<svg width="18" height="18" viewBox="0 0 27 27" fill="none" xmlns="http://www.w3.org/2000/svg">
<path d="M6.59679 16.1528C6.59679 16.1528 12.999 10.0459 16.2002 6.99182C14.8864 5.18504 15.2883 2.78194 16.7739 1.6952C18.6043 0.356554 21.3244 1.01417 22.1492 3.12636C22.2687 3.43065 22.4227 4.02808 22.1492 4.91531C22.3468 4.88298 23.8112 4.67232 24.9441 5.70222C25.991 6.6541 26.317 8.26694 25.6607 9.56657C25.1082 10.6611 23.925 11.4101 22.8658 11.3555C21.8814 11.3054 20.3534 10.6154 20.3534 10.6154L19.1434 11.8616C19.1434 11.8616 14.9143 16.028 10.9688 20.0874C11.1295 20.5198 11.4029 21.5865 11.327 22.6643C11.2846 23.2629 11.0134 24.9014 9.60705 25.6705C8.51099 26.2701 6.6738 26.0628 5.6648 24.9549C4.61004 23.7957 4.8422 22.291 4.8768 22.0926C4.68928 22.1338 3.37446 22.4024 2.22482 21.5196C0.888789 20.4953 0.995939 18.8513 1.00598 18.7298C1.12876 17.2641 2.22259 16.4693 2.36769 16.3679C3.76065 15.3926 6.4662 16.1038 6.59567 16.1528" fill="#F6F4AB"/>
<path d="M6.59679 16.1528C6.59679 16.1528 12.999 10.0459 16.2002 6.99182C14.8864 5.18504 15.2883 2.78194 16.7739 1.6952C18.6043 0.356554 21.3244 1.01417 22.1492 3.12636C22.2687 3.43065 22.4227 4.02808 22.1492 4.91531C22.3468 4.88298 23.8112 4.67232 24.9441 5.70222C25.991 6.6541 26.317 8.26694 25.6607 9.56657C25.1082 10.6611 23.925 11.4101 22.8658 11.3555C21.8814 11.3054 20.3534 10.6154 20.3534 10.6154L19.1434 11.8616C19.1434 11.8616 14.9143 16.028 10.9688 20.0874C11.1295 20.5198 11.4029 21.5865 11.327 22.6643C11.2846 23.2629 11.0134 24.9014 9.60705 25.6705C8.51099 26.2701 6.6738 26.0628 5.6648 24.9549C4.61004 23.7957 4.8422 22.291 4.8768 22.0926C4.68928 22.1338 3.37446 22.4024 2.22482 21.5196C0.888789 20.4953 0.995939 18.8513 1.00598 18.7298C1.12876 17.2641 2.22259 16.4693 2.36769 16.3679C3.76065 15.3926 6.4662 16.1038 6.59567 16.1528" stroke="#231815" stroke-width="2" stroke-miterlimit="10" stroke-linecap="round"/>
</svg>
