<svg width="321" height="295" viewBox="0 0 321 295" fill="none" xmlns="http://www.w3.org/2000/svg">
<g clip-path="url(#clip0_333_3690)">
<path d="M320.945 16.6968V278.853C320.945 285.14 315.989 290.571 308.797 293.205C305.807 294.316 302.44 294.925 298.866 294.925H193.435C193.393 294.972 193.351 294.986 193.309 295L192.701 294.925H22.0805C9.89013 294.925 0.00390625 287.741 0.00390625 278.853V16.6968C0.00390625 15.8604 0.0884039 15.0217 0.276899 14.2159C0.59214 12.6935 1.19662 11.2322 2.03185 9.87899V9.86489C2.67858 8.84528 3.45206 7.88675 4.33279 6.98695C4.62528 6.68153 4.94052 6.39256 5.27201 6.10359C5.71075 5.67836 6.21448 5.28132 6.75722 4.91718C7.00746 4.73393 7.28045 4.53658 7.5502 4.35333C8.36592 3.82003 9.2434 3.31962 10.1631 2.8615C10.7709 2.55609 11.3981 2.28356 12.0643 2.02513C13.0263 1.63044 14.05 1.29449 15.116 1.01962C17.5859 0.366498 20.2606 0 23.0425 0H297.907C301.209 0 304.345 0.50276 307.189 1.41665C307.585 1.55292 307.982 1.69153 308.381 1.84189C310.178 2.49735 311.852 3.33372 313.337 4.30635C313.63 4.50369 313.922 4.70104 314.195 4.90073C314.78 5.29542 315.304 5.723 315.785 6.17877C316.1 6.46774 316.412 6.75671 316.685 7.04568C317.25 7.62362 317.77 8.2321 318.251 8.87112C318.713 9.51014 319.129 10.1797 319.486 10.8493C320.029 11.8689 320.406 12.9331 320.656 14.0467C320.718 14.3357 320.783 14.6411 320.822 14.9442C320.906 15.5245 320.945 16.1024 320.945 16.6968Z" fill="#ACADBC" fill-opacity="0.2"/>
<path d="M256.847 156.231L222.427 166.869C221.286 167.222 219.97 166.834 219.486 166.005L217.796 163.105C217.312 162.276 217.845 161.315 218.986 160.963L253.405 150.325C254.546 149.973 255.862 150.36 256.346 151.19L258.036 154.089C258.521 154.92 257.988 155.879 256.847 156.231Z" fill="#ACADBC" fill-opacity="0.2"/>
<path d="M273.745 161.604L239.326 172.242C238.185 172.595 236.869 172.207 236.384 171.378L234.694 168.478C234.21 167.649 234.743 166.688 235.884 166.336L270.304 155.698C271.444 155.346 272.761 155.733 273.245 156.563L274.935 159.462C275.416 160.293 274.886 161.252 273.745 161.604Z" fill="#ACADBC" fill-opacity="0.2"/>
<path d="M290.515 167.353L256.095 177.991C254.954 178.343 253.638 177.956 253.154 177.126L251.464 174.227C250.98 173.398 251.513 172.437 252.653 172.085L287.073 161.447C288.214 161.094 289.53 161.482 290.015 162.311L291.704 165.21C292.189 166.042 291.656 167.001 290.515 167.353Z" fill="#ACADBC" fill-opacity="0.2"/>
<path d="M49.5982 27.5296L12.6793 31.8453C11.4573 31.9886 10.3036 31.3825 10.1086 30.4921L9.42287 27.3816C9.22788 26.4912 10.0599 25.6525 11.2818 25.5091L48.2008 21.1934C49.4227 21.0501 50.5765 21.6562 50.7715 22.5466L51.4572 25.6572C51.6554 26.5499 50.8202 27.3863 49.5982 27.5296Z" fill="#ACADBC" fill-opacity="0.2"/>
<path d="M54.9967 15.8416L18.0777 20.1573C16.8558 20.3006 15.702 19.6945 15.507 18.8041L14.8213 15.6936C14.6263 14.8032 15.4583 13.9645 16.6803 13.8212L53.5992 9.50541C54.8212 9.3621 55.9749 9.96824 56.1699 10.8586L56.8556 13.9692C57.0539 14.8619 56.2219 15.6983 54.9967 15.8416Z" fill="#ACADBC" fill-opacity="0.2"/>
<path d="M179.065 239.943L153.232 238.198C152.176 238.127 151.399 237.446 151.497 236.675L151.955 233.071C152.052 232.303 152.988 231.737 154.044 231.807L179.878 233.553C180.934 233.623 181.711 234.305 181.613 235.075L181.155 238.679C181.058 239.45 180.122 240.016 179.065 239.943Z" fill="#ACADBC" fill-opacity="0.2"/>
<path d="M77.3755 235.921L52.9947 229.465C51.997 229.202 51.4835 228.398 51.8475 227.673L53.5472 224.271C53.9112 223.545 55.0129 223.171 56.0106 223.434L80.3914 229.89C81.3892 230.153 81.9027 230.957 81.5387 231.683L79.839 235.085C79.475 235.811 78.3733 236.184 77.3755 235.921Z" fill="#ACADBC" fill-opacity="0.2"/>
<path d="M313.475 254.323L294.083 253.013C293.157 252.949 292.477 252.352 292.562 251.678L293.066 247.729C293.15 247.055 293.972 246.559 294.898 246.622L314.291 247.933C315.217 247.997 315.896 248.593 315.812 249.268L315.308 253.217C315.22 253.891 314.401 254.387 313.475 254.323Z" fill="#ACADBC" fill-opacity="0.2"/>
<path d="M191.4 154.204L173.474 159.744C172.619 160.009 171.631 159.718 171.267 159.095L169.139 155.444C168.775 154.822 169.174 154.103 170.029 153.837L187.956 148.298C188.81 148.032 189.798 148.323 190.162 148.946L192.291 152.597C192.655 153.222 192.255 153.941 191.4 154.204Z" fill="#ACADBC" fill-opacity="0.2"/>
<path d="M148.274 167.877L140.666 154.826C140.302 154.204 140.702 153.485 141.556 153.219L146.571 151.669C147.426 151.403 148.414 151.695 148.778 152.317L156.386 165.368C156.75 165.991 156.35 166.709 155.495 166.975L150.481 168.525C149.626 168.791 148.638 168.5 148.274 167.877Z" fill="#ACADBC" fill-opacity="0.2"/>
<path d="M27.542 179.401L16.2973 167.825C15.7611 167.273 15.9398 166.507 16.7003 166.117L21.1494 163.827C21.9099 163.437 22.9596 163.568 23.4959 164.12L34.7406 175.696C35.2768 176.248 35.0981 177.014 34.3376 177.404L29.8885 179.694C29.128 180.084 28.0783 179.955 27.542 179.401Z" fill="#ACADBC" fill-opacity="0.2"/>
<path d="M159.383 59.0272L142.519 51.9393C141.713 51.601 141.437 50.8515 141.901 50.2642L144.625 46.8294C145.09 46.2445 146.12 46.0424 146.926 46.3807L163.79 53.4687C164.596 53.807 164.872 54.5564 164.407 55.1438L161.684 58.5785C161.219 59.1658 160.189 59.3655 159.383 59.0272Z" fill="#ACADBC" fill-opacity="0.2"/>
<path d="M135.242 50.4592L118.378 43.3712C117.572 43.0329 117.296 42.2835 117.761 41.6961L120.484 38.2614C120.949 37.6764 121.979 37.4744 122.785 37.8127L139.649 44.9006C140.455 45.2389 140.731 45.9884 140.266 46.5757L137.543 50.0104C137.078 50.5978 136.048 50.7975 135.242 50.4592Z" fill="#ACADBC" fill-opacity="0.2"/>
<path d="M86.106 22.6077L78.667 9.50541C78.3127 8.88049 78.719 8.16394 79.5802 7.90551L84.6143 6.39019C85.4723 6.13176 86.457 6.43012 86.8145 7.05505L94.2535 20.1573C94.6077 20.7823 94.2015 21.4988 93.3403 21.7572L88.3062 23.2726C87.445 23.531 86.4602 23.235 86.106 22.6077Z" fill="#ACADBC" fill-opacity="0.2"/>
<path d="M110.29 21.2263L102.851 8.124C102.496 7.49908 102.903 6.78253 103.764 6.5241L108.798 5.00878C109.656 4.75035 110.641 5.04872 110.998 5.67364L118.437 18.7759C118.791 19.4008 118.385 20.1174 117.524 20.3758L112.49 21.8911C111.632 22.1496 110.647 21.8512 110.29 21.2263Z" fill="#ACADBC" fill-opacity="0.2"/>
<path d="M13.8545 180.838L2.60984 169.263C2.0736 168.711 2.25235 167.945 3.01283 167.555L7.46195 165.265C8.22243 164.875 9.27215 165.006 9.80838 165.558L21.0531 177.133C21.5893 177.686 21.4106 178.451 20.6501 178.841L16.201 181.132C15.4437 181.522 14.394 181.39 13.8545 180.838Z" fill="#ACADBC" fill-opacity="0.2"/>
<path d="M41.9694 163.787L34.6311 151.201C34.1924 150.45 34.6733 149.583 35.7068 149.263L43.4156 146.881C44.4491 146.561 45.6385 146.912 46.0773 147.663L53.4156 160.249C53.8543 161 53.3733 161.867 52.3398 162.187L44.6311 164.569C43.6008 164.889 42.4081 164.539 41.9694 163.787Z" fill="#ACADBC" fill-opacity="0.2"/>
<path d="M70.8467 54.6645L60.0051 43.5028C59.3583 42.8356 59.5761 41.9146 60.4893 41.4424L67.3271 37.9231C68.2436 37.4509 69.511 37.6106 70.1578 38.2755L80.9995 49.4372C81.6462 50.1044 81.4284 51.0254 80.5152 51.4976L73.6774 55.0169C72.7609 55.4891 71.4935 55.3317 70.8467 54.6645Z" fill="#ACADBC" fill-opacity="0.2"/>
<path d="M34.7702 243.937L27.4319 231.352C26.9931 230.6 27.4741 229.733 28.5076 229.413L36.2164 227.031C37.2499 226.712 38.4393 227.062 38.8781 227.813L46.2164 240.399C46.6551 241.151 46.1741 242.018 45.1406 242.337L37.4318 244.719C36.4016 245.039 35.2089 244.689 34.7702 243.937Z" fill="#ACADBC" fill-opacity="0.2"/>
<path d="M208.102 136.224L180.348 144.802C179.276 145.133 178.037 144.769 177.579 143.989L175.785 140.911C175.33 140.129 175.831 139.229 176.903 138.896L204.657 130.318C205.73 129.987 206.968 130.351 207.426 131.131L209.22 134.209C209.675 134.991 209.175 135.893 208.102 136.224Z" fill="#ACADBC" fill-opacity="0.2"/>
<path d="M114.103 60.5567L89.4848 73.2291C88.5326 73.7201 87.2164 73.5556 86.5437 72.8626L83.8917 70.1326C83.219 69.4396 83.4432 68.481 84.3955 67.99L109.014 55.3177C109.966 54.8266 111.282 54.9911 111.955 55.6841L114.607 58.4141C115.283 59.1071 115.055 60.0657 114.103 60.5567Z" fill="#ACADBC" fill-opacity="0.2"/>
<path d="M236.941 262.793L211.107 261.047C210.051 260.977 209.274 260.295 209.372 259.525L209.83 255.921C209.927 255.153 210.863 254.587 211.919 254.657L237.753 256.403C238.809 256.473 239.586 257.154 239.488 257.925L239.03 261.529C238.933 262.299 237.997 262.863 236.941 262.793Z" fill="#ACADBC" fill-opacity="0.2"/>
<path d="M239.116 253.139L213.283 251.394C212.227 251.323 211.45 250.642 211.547 249.871L212.006 246.268C212.103 245.499 213.039 244.933 214.095 245.004L239.929 246.749C240.985 246.82 241.762 247.501 241.664 248.272L241.206 251.875C241.108 252.644 240.173 253.21 239.116 253.139Z" fill="#ACADBC" fill-opacity="0.2"/>
<path d="M164.467 262.26L158.218 243.928C157.961 243.178 158.588 242.419 159.618 242.234L164.444 241.362C165.475 241.176 166.518 241.632 166.771 242.382L173.021 260.714C173.278 261.463 172.651 262.222 171.62 262.407L166.794 263.279C165.764 263.467 164.724 263.009 164.467 262.26Z" fill="#ACADBC" fill-opacity="0.2"/>
<path d="M64.4769 56.8048C64.4769 56.8048 74.9839 59.0601 77.2296 64.9077C79.4753 70.7575 70.174 75.2918 68.0746 77.2182C65.9751 79.1447 42.4263 77.4132 42.4263 77.4132C42.4263 77.4132 19.1862 69.4959 18.7767 64.9077C18.3672 60.3194 -0.238513 59.5958 21.6496 54.0443C43.5378 48.4928 33.1413 45.5961 43.5378 48.4928C53.9375 51.3895 64.4769 56.8048 64.4769 56.8048Z" fill="#60D394"/>
<path d="M278.399 39.4737C278.399 39.4737 288.906 41.729 291.151 47.5765C293.397 53.4241 284.096 57.9607 281.996 59.8871C279.897 61.8136 256.348 60.0821 256.348 60.0821C256.348 60.0821 233.108 52.1648 232.699 47.5765C232.289 42.9883 213.683 42.2647 235.571 36.7132C257.46 31.1617 247.063 28.2649 257.46 31.1617C267.856 34.0608 278.399 39.4737 278.399 39.4737Z" fill="#FFD97D"/>
<path d="M88.22 141.008C88.22 141.008 86.3903 144.818 80.6607 145.948C74.9312 147.081 70.053 144.095 68.0543 143.474C66.0557 142.854 66.8519 134.512 66.8519 134.512C66.8519 134.512 73.8132 125.911 78.3598 125.497C82.9064 125.081 82.8967 118.529 89.2763 125.859C95.6591 133.189 98.129 129.381 95.6591 133.189C93.1891 137 88.22 141.008 88.22 141.008Z" fill="#FFD97D"/>
<path d="M0 96.1283C17.634 91.5025 58.7193 85.178 68.1798 89.778C77.6403 94.3757 113.929 94.1008 113.929 94.1008L147.149 79.4785C147.149 79.4785 197.003 88.4812 196.541 69.8744C196.08 51.2653 211.234 21.9502 230.503 15.0525C249.772 8.15482 251.283 0.00494385 251.283 0.00494385H234.513C234.513 0.00494385 225.501 12.9428 217.107 14.094C208.712 15.2428 184.195 31.4932 186.451 40.2304C188.709 48.9676 186.451 64.2736 186.451 64.2736L165.443 69.2471L138.173 66.092C138.173 66.092 126.148 77.4181 124.527 79.4785C122.905 81.5389 108.531 85.5351 99.9704 83.456C91.4102 81.3744 66.0576 81.5389 66.0576 81.5389C66.0576 81.5389 37.9427 89.7851 32.9508 84.9196C27.9557 80.0565 14.0364 82.3048 14.0364 82.3048L0 84.9196V96.1283Z" fill="#FFD97D"/>
<path d="M320.945 151.138V167.682C319.083 168.93 316.324 170.558 313.253 171.519C310.909 172.28 308.381 172.613 305.976 172.096C304.952 171.883 303.802 171.991 302.567 172.371C298.784 173.513 294.267 177.089 290.419 180.65C288.306 182.614 286.405 184.593 284.962 186.146C283.269 187.987 282.222 189.235 282.222 189.235C282.222 189.235 262.028 200.406 253.454 202.462C250.318 203.209 247.244 204.959 244.611 206.968C244.004 207.44 243.419 207.912 242.876 208.399C242.268 208.915 241.706 209.449 241.183 209.966C238.508 212.66 236.854 215.247 237.042 216.328C237.439 218.686 237.104 233.008 237.104 233.008L236.984 233.055L233.451 234.41L229.415 235.947L212.648 242.356L199.915 255.475C199.915 255.475 203.471 259.873 208.235 264.745C210.702 267.318 213.545 270.027 216.327 272.294H216.347C217.455 273.191 218.563 274.027 219.649 274.758C224.667 278.106 224.917 286.965 223.139 294.925H208.108C207.566 291.272 206.561 287.468 205.18 283.662C204.407 281.456 203.487 279.264 202.483 277.103C201.667 275.383 200.789 273.677 199.87 272.019C198.469 269.507 196.922 267.071 195.291 264.773C192.801 261.256 190.065 258.061 187.221 255.383C178.251 246.968 189.938 238.625 201.563 233.024C202.713 232.461 203.864 231.944 205.011 231.441C206.119 230.955 207.205 230.482 208.274 230.057C214.212 227.623 218.914 226.19 218.914 226.19L233.529 199.995C233.529 199.995 233.571 199.981 233.633 199.934C233.675 199.92 233.718 199.889 233.779 199.859C234.095 199.675 234.761 199.325 235.681 198.839C236.246 198.52 236.915 198.169 237.689 197.758C239.967 196.572 243.019 195.003 246.428 193.33C255.606 188.885 267.396 183.787 273.753 183.542C279.71 183.315 290.185 176.875 300.305 169.16C302.752 167.304 305.177 165.354 307.516 163.406C312.71 159.083 317.435 154.73 320.945 151.138Z" fill="#FFD97D"/>
<path d="M107.339 290.846C107.173 292.094 106.878 293.297 106.504 294.469C106.442 294.622 106.4 294.774 106.338 294.925H30.2772C30.2577 294.925 30.2577 294.911 30.2577 294.911C29.1495 293.875 28.1258 292.855 27.1833 291.835C24.5704 288.943 22.8349 286.143 22.7082 283.737C22.1232 272.808 -4.72104 271.088 26.8486 257.862C27.6838 257.511 28.48 257.161 29.2535 256.825C30.82 256.125 32.2629 255.456 33.6019 254.8C56.2245 243.613 44.6613 238.287 58.4409 244.632C62.4351 246.458 66.426 248.727 70.1699 251.039C71.4438 251.845 72.6983 252.667 73.9138 253.473C82.3798 259.104 88.6521 264.433 88.6521 264.433C88.6521 264.433 103.81 269.789 107.05 283.732C107.632 286.204 107.674 288.577 107.339 290.846Z" fill="#60D394"/>
<path d="M238.899 80.8339C214.242 93.6895 175.688 93.9268 196.546 112.489C217.401 131.051 243.634 151.674 262.496 139.351C281.359 127.029 277.056 128.594 287.101 111.14C297.15 93.6871 306.975 79.288 274.801 74.7185C242.626 70.1514 238.899 80.8339 238.899 80.8339Z" fill="#60D394"/>
<path d="M171.161 192.327C155.47 198.212 130.933 198.32 144.206 206.817C157.479 215.315 174.173 224.755 186.175 219.114C198.177 213.473 195.441 214.19 201.833 206.199C208.226 198.209 214.482 191.617 194.008 189.526C173.533 187.438 171.161 192.327 171.161 192.327Z" fill="#60D394"/>
<path d="M100.42 262.133C107.804 270.557 106.884 283.169 119.114 276.875C131.343 270.581 145.015 262.586 137.804 256.071C130.592 249.557 131.457 251.009 120.781 247.228C110.105 243.451 101.34 239.83 97.5799 250.222C93.8197 260.61 100.42 262.133 100.42 262.133Z" fill="#FFD97D"/>
<path d="M320.94 182.455V198.428L307.674 179.614L305.373 176.344L276.624 135.59L272.048 129.111L252.227 101.008L249.939 97.7586L226.861 65.037L224.561 61.7761L206.65 36.3727L204.32 33.0718L182.172 1.67051C181.792 1.13955 181.61 0.566315 181.626 0.00482178H192.266L213.826 30.5792L216.127 33.8401L244.918 74.6646L247.219 77.9255L281.064 125.913L285.639 132.393L320.94 182.455Z" fill="white"/>
<path d="M320.942 111.749V119.852L285.638 132.39L276.626 135.588L209.024 159.614L204.504 161.21L154.28 179.053L149.788 180.648L144.413 182.558L105.671 196.323L95.4238 199.96L55.8529 214.021L49.9024 216.135L40.2729 219.549C40.1591 219.588 40.0356 219.631 39.9089 219.671L20.4257 226.599L15.9051 228.204L2.19044 233.078C1.48846 233.334 0.73123 233.447 0 233.447V225.741L32.1741 214.317L41.4526 211.025L93.4316 192.559C93.5584 192.508 93.6851 192.468 93.8119 192.428L134.956 177.815L143.997 174.596L166.441 166.625L170.932 165.03L237.087 141.536L241.579 139.932L272.053 129.111L281.065 125.911L320.942 111.749Z" fill="white"/>
<path d="M159.042 294.925H149.029C150.179 274.164 145.977 257.392 139.432 244.029C138.639 242.384 137.8 240.803 136.923 239.281C123.228 214.958 102.113 203.209 95.4216 199.967C94.1476 199.342 93.3936 199.022 93.3091 198.992C90.9042 198.033 90.0072 195.811 91.3429 194.06C91.9084 193.299 92.8054 192.752 93.8096 192.432C95.1486 192.021 96.7378 192.052 98.1385 192.599C98.431 192.721 101.317 193.894 105.665 196.328C112.942 200.392 124.356 207.987 134.81 220.117C135.041 220.392 135.272 220.664 135.522 220.939C136.985 222.69 138.47 224.576 139.932 226.587C147.313 236.708 154.151 250.163 157.326 267.348C157.765 269.693 158.142 272.113 158.434 274.608C159.169 280.923 159.442 287.679 159.042 294.925Z" fill="white"/>
<path d="M320.943 52.7051V56.497L309.165 59.92L247.222 77.9253L242.324 79.3467C242.028 79.4383 241.706 79.4806 241.398 79.4806C240.4 79.4806 239.461 79.0507 239.081 78.3365C238.561 77.3967 239.194 76.3442 240.471 75.966L244.921 74.6691L304.732 57.2864L309.405 55.9261L320.016 52.8391C320.325 52.7451 320.634 52.7051 320.943 52.7051Z" fill="white"/>
<path d="M309.46 59.8167C309.362 59.8567 309.265 59.8872 309.164 59.9177C308.868 60 308.576 60.0399 308.267 60.0399C307.383 60.0399 306.525 59.6922 306.064 59.079L304.731 57.2818L274.185 16.1918L271.784 12.9614L262.801 0.874078C262.59 0.599205 262.492 0.303188 262.492 0.00482178H267.855L276.431 11.5518L278.833 14.7798L309.405 55.9215L310.471 57.3523C311.13 58.2333 310.682 59.3351 309.46 59.8167Z" fill="white"/>
<path d="M144.694 245.506C144.365 245.506 144.031 245.459 143.709 245.361L45.8151 214.855C44.5444 214.457 43.9562 213.389 44.4989 212.461C45.0416 211.537 46.5106 211.107 47.7846 211.502L145.678 242.008C146.949 242.405 147.537 243.474 146.994 244.402C146.591 245.093 145.665 245.506 144.694 245.506Z" fill="white"/>
<path d="M97.7201 230.908L97.6161 230.999L73.908 253.48L47.0021 279.02L43.6969 282.156L30.252 294.911L30.2325 294.925H23.918L27.1809 291.835L39.9335 279.734L43.5929 276.248L70.1674 251.044L92.8713 229.521L93.7487 228.699C94.584 227.893 96.1537 227.741 97.2391 228.349C98.3473 228.976 98.5553 230.116 97.7201 230.908Z" fill="white"/>
<path d="M188.308 231.624C187.411 231.624 186.544 231.272 186.092 230.654L147.486 177.479C146.839 176.591 147.307 175.487 148.529 175.017C149.751 174.544 151.266 174.885 151.913 175.775L190.518 228.951C191.165 229.839 190.697 230.943 189.475 231.413C189.101 231.556 188.702 231.624 188.308 231.624Z" fill="white"/>
<path d="M254.609 225.838C253.725 225.838 252.867 225.495 252.412 224.891L202.159 158.087C201.496 157.204 201.941 156.097 203.153 155.613C204.366 155.13 205.887 155.454 206.549 156.337L256.803 223.141C257.466 224.022 257.021 225.131 255.808 225.614C255.428 225.765 255.019 225.838 254.609 225.838Z" fill="white"/>
<path d="M235.402 200.307C234.405 200.307 233.465 199.87 233.075 199.156C232.565 198.221 233.196 197.162 234.479 196.79L310.277 174.934C311.561 174.566 313.017 175.021 313.527 175.959C314.037 176.894 313.407 177.953 312.123 178.325L236.325 200.181C236.023 200.265 235.711 200.307 235.402 200.307Z" fill="white"/>
<path d="M320.943 241.837V245.506C320.816 245.506 320.719 245.506 320.592 245.485L288.405 242.123V242.114L283.423 241.592L245.874 237.669L240.891 237.147L187.973 231.608L139.94 226.589V226.58L131.786 225.732C130.804 225.631 129.988 225.098 129.722 224.393C129.468 223.679 129.819 222.932 130.619 222.483L134.814 220.122L165.809 202.708L167.479 201.769C168.575 201.155 170.147 201.308 170.989 202.107C171.074 202.189 171.158 202.281 171.213 202.372C171.776 203.138 171.522 204.109 170.541 204.661L168.181 205.988L138.367 222.737L183.791 227.489L189.939 228.133L241.597 233.539L246.595 234.06L284.145 237.984L289.114 238.505L320.943 241.837Z" fill="white"/>
<path d="M313.336 4.30635L278.839 14.7797L274.175 16.194L216.119 33.8352L211.309 35.2965C211.247 35.3106 211.182 35.3271 211.12 35.3412C210.87 35.4164 209.469 35.7359 207.253 36.2386C207.064 36.2833 206.856 36.3302 206.645 36.3749C202.066 37.3945 194.562 38.9615 186.45 40.2255C179.697 41.2897 172.528 42.159 166.317 42.3117C165.628 42.3258 164.959 42.3422 164.289 42.3422C162.869 42.3422 161.488 42.2976 160.214 42.206C159.899 42.1754 159.567 42.1308 159.275 42.1002C151.706 41.036 145.391 33.9269 140.562 25.8451C139.892 24.7033 139.245 23.5475 138.618 22.3751C133.392 12.5878 130.318 2.45271 129.691 0.380594C129.648 0.258428 129.629 0.122166 129.629 0H134.709C136.736 6.82014 140.165 15.4939 144.325 22.892C144.409 22.9977 144.471 23.1058 144.513 23.228C149.301 31.5376 154.988 38.158 160.718 38.5692C167.702 39.086 177.715 37.9137 186.873 36.4242C193.73 35.2989 200.087 33.9879 204.331 33.0764C207.175 32.4515 209.057 32.0122 209.476 31.9041L210.353 31.6457L213.824 30.5814L271.793 12.9684L276.434 11.5541L308.38 1.84423C310.178 2.49735 311.851 3.33372 313.336 4.30635Z" fill="white"/>
<path d="M170.94 170.908C170.033 170.908 169.156 170.548 168.714 169.919C140.173 129.522 139.76 102.175 167.46 86.3101C174.606 82.2176 178.441 77.244 178.86 71.5281C179.929 56.941 158.938 41.8441 158.724 41.6914C157.736 40.989 157.716 39.8354 158.681 39.1142C159.647 38.3953 161.233 38.3788 162.221 39.0813C163.153 39.7438 185.045 55.4656 183.862 71.709C183.368 78.5221 178.889 84.3978 170.557 89.1716C145.042 103.785 145.896 129.651 173.166 168.248C173.8 169.143 173.316 170.24 172.084 170.703C171.714 170.842 171.324 170.908 170.94 170.908Z" fill="white"/>
<path d="M151.031 132.125C150.056 132.125 149.13 131.709 148.727 131.016C148.187 130.088 148.779 129.019 150.053 128.627L254.736 96.2761C256.01 95.8814 257.479 96.316 258.018 97.2416C258.558 98.1696 257.966 99.2386 256.692 99.6309L152.009 131.981C151.691 132.08 151.359 132.125 151.031 132.125Z" fill="white"/>
<path d="M231.315 63.6579L226.866 65.037L181.581 79.0367L180.626 79.3327C180.304 79.4244 179.979 79.4761 179.644 79.4761C179.196 79.4761 178.747 79.3844 178.338 79.2106L176.486 78.393L132.297 58.8441L127.691 56.8119L75.0819 33.5323L74.2825 33.1846C73.7787 32.9708 73.3985 32.6231 73.2165 32.2143L72.261 30.1704L58.3936 0.596856C58.2962 0.401861 58.2539 0.197468 58.2539 0.00482178H63.392L77.2594 29.5877L77.6526 30.4147L82.6932 32.6419L133.493 55.1134L178.185 74.876L179.843 75.6114L183.408 74.5072L224.565 61.7738L229.365 60.2913C230.629 59.9037 232.101 60.3313 232.65 61.2616C233.183 62.1872 232.592 63.2609 231.315 63.6579Z" fill="white"/>
<path d="M174.523 125.02C174.003 123.848 173.356 122.723 172.534 121.672C168.586 116.452 161.182 112.83 152.564 112.433H152.538C152.04 112.418 151.543 112.402 151.023 112.402C150.627 112.402 150.227 112.402 149.83 112.433C149.034 112.449 148.215 112.508 147.445 112.599H147.422C137.783 113.633 129.983 118.733 127.377 125.429V125.443C126.756 126.98 126.457 128.624 126.457 130.299C126.457 131.516 126.607 132.719 126.928 133.861C129.213 142.02 139.151 148.199 151.023 148.199C152.463 148.199 153.929 148.107 155.297 147.924C156.116 147.818 156.912 147.696 157.682 147.529C158.527 147.363 159.346 147.165 160.116 146.921H160.142C169.184 144.273 175.618 137.82 175.618 130.299C175.618 128.46 175.245 126.695 174.523 125.02ZM158.501 143.484H158.475C157.679 143.728 156.86 143.925 156.041 144.078H156.015C155.219 144.231 154.448 144.353 153.63 144.428C152.759 144.52 151.914 144.564 151.02 144.564C140.214 144.564 131.446 138.172 131.446 130.304C131.446 123.425 138.105 117.716 147.022 116.347H147.048C147.845 116.224 148.615 116.149 149.434 116.102C149.957 116.072 150.477 116.058 151.023 116.058C151.397 116.058 151.741 116.058 152.092 116.072H152.118C158.849 116.347 164.689 119.1 167.916 123.103C168.761 124.139 169.431 125.265 169.879 126.451V126.467C170.35 127.684 170.601 128.979 170.601 130.304C170.601 136.238 165.583 141.336 158.501 143.484Z" fill="white"/>
<path d="M254.612 225.84C253.718 225.84 252.873 225.49 252.425 224.896L251.804 224.059C251.804 224.059 251.804 224.059 251.804 224.045L251.281 223.376H251.255C246.51 225.795 243.032 229.357 241.593 233.544L242.587 233.649L246.588 234.06C248.005 230.438 251.333 227.409 255.804 225.612C255.434 225.765 255.011 225.84 254.612 225.84ZM254.612 225.84C253.718 225.84 252.873 225.49 252.425 224.896L251.804 224.059C251.804 224.059 251.804 224.059 251.804 224.045L251.281 223.376H251.255C246.51 225.795 243.032 229.357 241.593 233.544L242.587 233.649L246.588 234.06C248.005 230.438 251.333 227.409 255.804 225.612C255.434 225.765 255.011 225.84 254.612 225.84ZM254.612 225.84C253.718 225.84 252.873 225.49 252.425 224.896L251.804 224.059L251.281 223.373H251.255C246.51 225.793 243.032 229.355 241.593 233.541L242.587 233.647L246.588 234.058C248.005 230.435 251.333 227.407 255.804 225.61C255.434 225.765 255.011 225.84 254.612 225.84ZM264.995 220.253C261.716 220.253 258.538 220.74 255.681 221.623H255.655C254.885 221.867 254.114 222.126 253.419 222.415C252.97 222.598 252.525 222.779 252.103 222.979C251.83 223.101 251.557 223.237 251.284 223.373H251.258C246.513 225.793 243.036 229.355 241.596 233.541C241.521 233.755 241.446 233.966 241.398 234.18C241.297 234.514 241.199 234.864 241.151 235.214C241.001 235.853 240.926 236.492 240.9 237.147C240.852 237.375 240.852 237.589 240.852 237.831C240.852 247.51 251.706 255.411 264.998 255.411C276.276 255.411 285.765 249.749 288.424 242.123V242.109C288.82 240.953 289.044 239.75 289.119 238.503V237.833C289.116 228.138 278.31 220.253 264.995 220.253ZM264.995 251.76C254.436 251.76 245.866 245.504 245.866 237.833V237.667C245.915 236.419 246.139 235.202 246.588 234.06C248.005 230.438 251.333 227.409 255.804 225.612H255.83C258.538 224.531 261.667 223.907 264.995 223.907C275.554 223.907 284.124 230.163 284.124 237.833V237.986C284.124 239.234 283.877 240.451 283.429 241.592C281.167 247.452 273.767 251.76 264.995 251.76ZM254.612 225.84C253.718 225.84 252.873 225.49 252.425 224.896L251.804 224.059C251.804 224.059 251.804 224.059 251.804 224.045L251.281 223.376H251.255C246.51 225.795 243.032 229.357 241.593 233.544L242.587 233.649L246.588 234.06C248.005 230.438 251.333 227.409 255.804 225.612C255.434 225.765 255.011 225.84 254.612 225.84ZM254.612 225.84C253.718 225.84 252.873 225.49 252.425 224.896L251.804 224.059C251.804 224.059 251.804 224.059 251.804 224.045L251.281 223.376H251.255C246.51 225.795 243.032 229.357 241.593 233.544L242.587 233.649L246.588 234.06C248.005 230.438 251.333 227.409 255.804 225.612C255.434 225.765 255.011 225.84 254.612 225.84Z" fill="white"/>
<path d="M241.399 145.878C240.447 145.878 239.537 145.481 239.117 144.809L217.33 109.86C216.758 108.944 217.317 107.863 218.575 107.447C219.832 107.031 221.318 107.438 221.886 108.354L243.674 143.303C244.246 144.219 243.687 145.3 242.429 145.716C242.094 145.826 241.743 145.878 241.399 145.878Z" fill="white"/>
<path d="M308.799 293.205C305.809 294.316 302.443 294.925 298.868 294.925H297.759C285.676 285.368 268.364 278.761 245.868 275.155C244.237 274.897 242.566 274.652 240.85 274.408C236.879 273.875 232.781 273.419 228.514 273.052C224.415 272.702 220.34 272.444 216.346 272.291H216.326C213.506 272.169 210.724 272.077 207.984 272.047C206.291 272.016 204.598 272.002 202.947 272.002C201.9 272.002 200.876 272.002 199.872 272.016C181.201 272.153 165.647 273.75 158.436 274.603C155.719 274.939 154.172 275.15 154.107 275.167C151.41 275.578 148.754 274.314 148.189 272.336C147.623 270.372 149.359 268.438 152.079 268.03C152.394 267.985 154.234 267.71 157.328 267.346C164.5 266.479 178.361 265.079 195.296 264.773C199.437 264.682 203.785 264.668 208.237 264.743C215.137 264.865 222.349 265.184 229.667 265.807C265.543 268.882 292.261 278.214 308.799 293.205Z" fill="white"/>
<path d="M107.337 290.846L128.098 294.925H108.865L106.502 294.469L43.6978 282.156L42.0891 281.837C41.2733 281.67 40.6266 281.228 40.3731 280.664L39.9344 279.736L29.2487 256.828L15.8915 228.199L14.1788 224.515C13.7401 223.556 14.4291 222.52 15.7453 222.201C17.042 221.865 18.4622 222.384 18.9237 223.343L20.4512 226.599L33.6003 254.803L43.5938 276.248L44.6825 278.562L47.0029 279.017L107.337 290.846Z" fill="white"/>
<path d="M205.182 283.662C204.012 285.793 202.381 287.968 200.122 290.085C198.198 291.88 195.962 293.511 193.43 294.925C193.388 294.972 193.346 294.986 193.304 295L192.696 294.925H184.207C184.542 294.789 184.877 294.666 185.211 294.53C185.358 294.469 185.504 294.408 185.65 294.333C185.692 294.333 185.734 294.319 185.754 294.302C189.956 292.568 193.408 290.421 196.124 287.879C199.972 284.301 201.727 280.422 202.481 277.103C202.9 275.155 203.004 273.388 202.943 272.005C202.881 270.027 202.546 268.777 202.546 268.732C202.254 267.757 203.131 266.784 204.47 266.587C205.829 266.373 207.145 266.998 207.441 267.987C207.502 268.154 207.922 269.693 207.983 272.052C208.087 274.986 207.629 279.217 205.182 283.662Z" fill="white"/>
<path d="M245.869 271.06V294.925H240.852V271.06C240.852 270.055 241.979 269.249 243.38 269.249C244.742 269.249 245.869 270.055 245.869 271.06Z" fill="white"/>
<path d="M192.702 294.925H184.652C184.799 294.758 185.007 294.636 185.218 294.53C185.364 294.469 185.51 294.408 185.657 294.333C185.699 294.333 185.741 294.319 185.761 294.302C186.157 294.211 186.596 294.166 187.057 294.227L192.702 294.925Z" fill="white"/>
<path d="M142.548 25.6032L140.569 25.8381L82.6946 32.6441L75.0995 33.5322H75.0865L43.6437 37.2324L38.1676 37.8761L11.9473 40.9632L6.96521 41.5458L0.397145 42.3234C0.257399 42.3328 0.143652 42.3446 0.00390625 42.3446V38.6655L8.49592 37.6741L72.2656 30.1726L77.264 29.59L138.619 22.3752L141.749 22.0063C143.11 21.8536 144.401 22.5279 144.612 23.5193C144.836 24.5107 143.91 25.4387 142.548 25.6032Z" fill="white"/>
<path d="M37.9941 219.95C35.8687 219.95 33.8992 218.959 33.2232 217.403C33.0445 216.99 15.8492 175.855 69.177 160.009C122.501 144.167 146.372 177.324 146.606 177.66C147.857 179.455 146.873 181.647 144.409 182.558C141.942 183.47 138.93 182.753 137.679 180.958C136.886 179.84 117.617 153.485 72.9599 166.756C54.1461 172.348 43.3499 182.138 40.867 195.853C38.9756 206.315 42.7292 215.115 42.7682 215.202C43.6034 217.119 42.141 219.168 39.5086 219.776C39.0048 219.896 38.4946 219.95 37.9941 219.95Z" fill="white"/>
<path d="M75.5848 163.97C74.86 163.97 74.1418 163.742 73.6478 163.303C72.7703 162.525 72.9263 161.376 73.9956 160.737L125.572 129.956L37.2683 36.9293C36.4819 36.1 36.7679 34.9653 37.9053 34.3944C39.0428 33.8235 40.6028 34.0302 41.386 34.8572L131.002 129.268C131.743 130.048 131.538 131.112 130.531 131.714L77.1707 163.557C76.706 163.834 76.1438 163.97 75.5848 163.97Z" fill="white"/>
<path d="M84.1395 84.9194C83.3822 84.9194 82.6348 84.6703 82.1408 84.1958C81.3055 83.3923 81.5233 82.2505 82.625 81.642L130.629 55.1908C131.731 54.5846 133.301 54.742 134.136 55.5432C134.971 56.3466 134.754 57.4884 133.652 58.0969L85.6474 84.5505C85.1957 84.7995 84.6627 84.9194 84.1395 84.9194Z" fill="white"/>
<path d="M37.1575 59.584C31.532 59.584 26.4914 58.6701 22.0715 56.8447C9.05559 51.467 6.51416 40.2278 6.41342 39.7509C6.19892 38.7571 7.1349 37.8244 8.49986 37.6693C9.86482 37.5143 11.142 38.1932 11.3565 39.187C11.3825 39.2998 13.677 49.2046 24.5772 53.6895C32.4939 56.9457 43.0951 56.6614 56.0883 52.8437C57.372 52.4655 58.8279 52.9166 59.3447 53.8516C59.8614 54.7843 59.2439 55.8486 57.9602 56.2245C50.3424 58.4634 43.3909 59.584 37.1575 59.584Z" fill="white"/>
<path d="M68.5698 67.8678L66.9124 68.1545L43.0645 72.2L38.1669 73.0388L25.645 75.1649L20.7312 75.9919L0.562234 79.4266C0.36724 79.4666 0.198244 79.4783 0 79.4783V75.7781L21.8426 72.0685C21.8979 72.0591 21.9401 72.0591 21.9824 72.0473L63.8542 64.9359L67.4324 64.3227C68.4853 64.1394 69.5383 64.4754 70.1005 65.1097C70.2565 65.2836 70.367 65.4786 70.4385 65.6829C70.7473 66.6626 69.9185 67.6447 68.5698 67.8678Z" fill="white"/>
<path d="M87.0619 118.144C82.0603 118.144 78.0369 113.454 74.1273 108.897C70.8026 105.023 66.6622 100.207 63.656 100.782C52.6649 102.906 41.1667 79.631 37.9038 72.4491C37.4715 71.4929 38.1833 70.4639 39.493 70.1467C40.8027 69.8343 42.2197 70.3511 42.6552 71.3049C49.2752 85.8826 58.4952 97.9935 62.3723 97.2605C68.9534 95.9918 73.7405 101.572 78.3716 106.966C81.3323 110.417 85.3914 115.148 87.6989 114.375C96.0901 111.584 106.734 106.879 106.841 106.829C108.021 106.308 109.561 106.58 110.279 107.438C110.997 108.298 110.624 109.418 109.444 109.942C108.999 110.14 98.4431 114.808 89.7788 117.69C88.8396 118 87.9361 118.144 87.0619 118.144Z" fill="white"/>
<path d="M38.4204 190.139L31.9921 190.948L0.422488 194.901C0.282742 194.923 0.142996 194.932 0 194.932V191.262L33.3798 187.074L37.5754 186.543C38.9242 186.378 40.2274 187.043 40.4679 188.034C40.6921 189.026 39.7821 189.966 38.4204 190.139Z" fill="white"/>
<path d="M46.1974 179.581C45.749 179.807 45.2582 179.917 44.7512 179.917C43.9648 179.917 43.1945 179.652 42.7005 179.142L40.1591 176.537L14.6278 150.233C14.5303 150.151 14.4458 150.069 14.3743 149.977L0 135.181V130.194C0.786478 130.194 1.54371 130.468 2.03444 130.971L15.6093 144.94L19.2297 148.671L43.2888 173.443L46.7824 177.049C47.5852 177.866 47.3187 178.999 46.1974 179.581Z" fill="white"/>
<path d="M65.6792 166.998C64.6392 166.998 63.6708 166.526 63.3133 165.772L20.005 74.446C19.5533 73.4945 20.2487 72.4561 21.5552 72.1295C22.8649 71.8006 24.2884 72.3057 24.7369 73.2572L68.0451 164.581C68.4969 165.532 67.8014 166.571 66.4949 166.897C66.2252 166.965 65.949 166.998 65.6792 166.998Z" fill="white"/>
<path d="M16.5463 150.877C16.413 150.877 16.2798 150.87 16.1465 150.854C14.7848 150.694 13.8553 149.766 14.0698 148.772C14.1478 148.42 16.0588 140.075 25.8898 135.386C32.7308 132.122 41.5511 131.481 52.11 133.478C53.449 133.729 54.2517 134.725 53.904 135.7C53.5562 136.675 52.188 137.26 50.8523 137.007C41.7428 135.287 34.2778 135.759 28.6749 138.416C20.6997 142.196 19.0292 149.277 19.0129 149.348C18.8147 150.241 17.752 150.877 16.5463 150.877Z" fill="white"/>
<path d="M37.6599 106.496L35.4012 106.935L0.646732 113.692C0.422488 113.732 0.224244 113.753 0 113.753V110.053L33.773 103.482L36.3697 102.972C37.5754 102.746 38.7974 103.186 39.2881 103.973C39.3434 104.064 39.3856 104.168 39.4279 104.269C39.7951 105.239 38.9956 106.242 37.6599 106.496Z" fill="white"/>
</g>
<defs>
<clipPath id="clip0_333_3690">
<rect width="320.945" height="295" fill="white"/>
</clipPath>
</defs>
</svg>
