<svg width="160" height="63" viewBox="0 0 160 63" fill="none" xmlns="http://www.w3.org/2000/svg">
<path d="M45.2616 22.56C45.2616 21.2 45.4882 20.04 45.9416 19.08C46.4216 18.0933 47.0616 17.2933 47.8616 16.68C48.6616 16.04 49.5949 15.5733 50.6616 15.28C51.7549 14.9867 52.9149 14.84 54.1416 14.84C56.1149 14.84 57.5682 15.1067 58.5016 15.64C59.4349 16.1467 59.9016 17.0267 59.9016 18.28C59.9016 18.8133 59.7816 19.2933 59.5416 19.72C59.3282 20.1467 59.0882 20.4667 58.8216 20.68C58.3149 20.5467 57.7816 20.44 57.2216 20.36C56.6882 20.2533 56.0616 20.2 55.3416 20.2C54.1949 20.2 53.3016 20.4 52.6616 20.8C52.0216 21.1733 51.7016 21.84 51.7016 22.8V24.08H58.2616C58.4216 24.3733 58.5682 24.7467 58.7016 25.2C58.8616 25.6267 58.9416 26.1067 58.9416 26.64C58.9416 27.5733 58.7282 28.2533 58.3016 28.68C57.9016 29.08 57.3549 29.28 56.6616 29.28H52.0616V41.96C51.7949 42.04 51.3682 42.12 50.7816 42.2C50.2216 42.28 49.6349 42.32 49.0216 42.32C48.4349 42.32 47.9016 42.28 47.4216 42.2C46.9682 42.12 46.5816 41.96 46.2616 41.72C45.9416 41.48 45.6882 41.16 45.5016 40.76C45.3416 40.3333 45.2616 39.7867 45.2616 39.12V22.56ZM81.5906 32.28C81.5906 33.9333 81.3373 35.4133 80.8306 36.72C80.324 38 79.604 39.08 78.6706 39.96C77.764 40.84 76.6706 41.5067 75.3906 41.96C74.1106 42.4133 72.684 42.64 71.1106 42.64C69.5373 42.64 68.1106 42.4 66.8306 41.92C65.5506 41.44 64.444 40.76 63.5106 39.88C62.604 38.9733 61.8973 37.88 61.3906 36.6C60.884 35.32 60.6306 33.88 60.6306 32.28C60.6306 30.7067 60.884 29.28 61.3906 28C61.8973 26.72 62.604 25.64 63.5106 24.76C64.444 23.8533 65.5506 23.16 66.8306 22.68C68.1106 22.2 69.5373 21.96 71.1106 21.96C72.684 21.96 74.1106 22.2133 75.3906 22.72C76.6706 23.2 77.764 23.8933 78.6706 24.8C79.604 25.68 80.324 26.76 80.8306 28.04C81.3373 29.32 81.5906 30.7333 81.5906 32.28ZM67.5906 32.28C67.5906 33.9067 67.8973 35.16 68.5106 36.04C69.1506 36.8933 70.0306 37.32 71.1506 37.32C72.2706 37.32 73.124 36.88 73.7106 36C74.324 35.12 74.6306 33.88 74.6306 32.28C74.6306 30.68 74.324 29.4533 73.7106 28.6C73.0973 27.72 72.2306 27.28 71.1106 27.28C69.9906 27.28 69.124 27.72 68.5106 28.6C67.8973 29.4533 67.5906 30.68 67.5906 32.28ZM91.7081 41.96C91.4415 42.04 91.0148 42.12 90.4281 42.2C89.8681 42.28 89.2815 42.32 88.6681 42.32C88.0815 42.32 87.5481 42.28 87.0681 42.2C86.6148 42.12 86.2281 41.96 85.9081 41.72C85.5881 41.48 85.3348 41.16 85.1481 40.76C84.9881 40.3333 84.9081 39.7867 84.9081 39.12V27.12C84.9081 26.5067 85.0148 25.9867 85.2281 25.56C85.4681 25.1067 85.8015 24.7067 86.2281 24.36C86.6548 24.0133 87.1748 23.7067 87.7881 23.44C88.4281 23.1467 89.1081 22.8933 89.8281 22.68C90.5481 22.4667 91.2948 22.3067 92.0681 22.2C92.8415 22.0667 93.6148 22 94.3881 22C95.6681 22 96.6815 22.2533 97.4281 22.76C98.1748 23.24 98.5481 24.04 98.5481 25.16C98.5481 25.5333 98.4948 25.9067 98.3881 26.28C98.2815 26.6267 98.1481 26.9467 97.9881 27.24C97.4281 27.24 96.8548 27.2667 96.2681 27.32C95.6815 27.3733 95.1081 27.4533 94.5481 27.56C93.9881 27.6667 93.4548 27.7867 92.9481 27.92C92.4681 28.0267 92.0548 28.16 91.7081 28.32V41.96ZM110.953 29C112.073 29 112.927 28.7467 113.513 28.24C114.127 27.7067 114.433 26.9067 114.433 25.84C114.433 24.8267 114.113 24.0533 113.473 23.52C112.86 22.96 111.953 22.68 110.753 22.68C110.327 22.68 109.967 22.6933 109.673 22.72C109.407 22.72 109.127 22.7467 108.833 22.8V29H110.953ZM108.873 41.84C108.58 41.92 108.113 42 107.473 42.08C106.86 42.16 106.247 42.2 105.633 42.2C105.02 42.2 104.473 42.1467 103.993 42.04C103.54 41.96 103.153 41.8 102.833 41.56C102.513 41.32 102.273 40.9867 102.113 40.56C101.953 40.1333 101.873 39.5733 101.873 38.88V20.04C101.873 19.48 102.02 19.0533 102.313 18.76C102.633 18.44 103.06 18.1867 103.593 18C104.5 17.68 105.527 17.4533 106.673 17.32C107.847 17.16 109.02 17.08 110.193 17.08C113.873 17.08 116.687 17.8667 118.633 19.44C120.58 21.0133 121.553 23.1467 121.553 25.84C121.553 27.1467 121.34 28.3333 120.913 29.4C120.513 30.44 119.9 31.3467 119.073 32.12C118.273 32.8667 117.247 33.4533 115.993 33.88C114.767 34.28 113.34 34.48 111.713 34.48H108.873V41.84ZM134.29 42.64C132.716 42.64 131.25 42.4267 129.89 42C128.556 41.5467 127.383 40.88 126.37 40C125.383 39.12 124.596 38.0133 124.01 36.68C123.45 35.3467 123.17 33.7867 123.17 32C123.17 30.24 123.45 28.7333 124.01 27.48C124.596 26.2 125.356 25.16 126.29 24.36C127.223 23.5333 128.29 22.9333 129.49 22.56C130.69 22.16 131.916 21.96 133.17 21.96C134.583 21.96 135.863 22.1733 137.01 22.6C138.183 23.0267 139.183 23.6133 140.01 24.36C140.863 25.1067 141.516 26 141.97 27.04C142.45 28.08 142.69 29.2133 142.69 30.44C142.69 31.3467 142.436 32.04 141.93 32.52C141.423 33 140.716 33.3067 139.81 33.44L129.93 34.92C130.223 35.8 130.823 36.4667 131.73 36.92C132.636 37.3467 133.676 37.56 134.85 37.56C135.943 37.56 136.97 37.4267 137.93 37.16C138.916 36.8667 139.716 36.5333 140.33 36.16C140.756 36.4267 141.116 36.8 141.41 37.28C141.703 37.76 141.85 38.2667 141.85 38.8C141.85 40 141.29 40.8933 140.17 41.48C139.316 41.9333 138.356 42.24 137.29 42.4C136.223 42.56 135.223 42.64 134.29 42.64ZM133.17 26.92C132.53 26.92 131.97 27.0267 131.49 27.24C131.036 27.4533 130.663 27.7333 130.37 28.08C130.076 28.4 129.85 28.7733 129.69 29.2C129.556 29.6 129.476 30.0133 129.45 30.44L136.29 29.32C136.21 28.7867 135.916 28.2533 135.41 27.72C134.903 27.1867 134.156 26.92 133.17 26.92ZM152.763 35.32C152.763 36.0133 152.976 36.5067 153.403 36.8C153.856 37.0933 154.483 37.24 155.283 37.24C155.683 37.24 156.096 37.2133 156.523 37.16C156.949 37.08 157.323 36.9867 157.643 36.88C157.883 37.1733 158.083 37.5067 158.243 37.88C158.429 38.2267 158.523 38.6533 158.523 39.16C158.523 40.1733 158.136 41 157.363 41.64C156.616 42.28 155.283 42.6 153.363 42.6C151.016 42.6 149.203 42.0667 147.923 41C146.669 39.9333 146.043 38.2 146.043 35.8V18.68C146.336 18.6 146.749 18.52 147.283 18.44C147.843 18.3333 148.429 18.28 149.043 18.28C150.216 18.28 151.123 18.4933 151.763 18.92C152.429 19.32 152.763 20.1867 152.763 21.52V24.08H158.003C158.163 24.3733 158.309 24.7467 158.443 25.2C158.603 25.6267 158.683 26.1067 158.683 26.64C158.683 27.5733 158.469 28.2533 158.043 28.68C157.643 29.08 157.096 29.28 156.403 29.28H152.763V35.32Z" fill="black"/>
<path d="M13.8117 25.3123C15.8175 25.0551 17.133 22.4401 16.75 19.4716C16.367 16.503 14.4305 14.3051 12.4248 14.5624C10.419 14.8196 9.10344 17.4346 9.48643 20.4031C9.86942 23.3717 11.8059 25.5696 13.8117 25.3123Z" fill="#6A8D4E" stroke="black" stroke-width="1.5" stroke-miterlimit="10"/>
<path d="M6.49977 32.172C8.45639 31.6174 9.38059 28.8463 8.56404 25.9825C7.74749 23.1188 5.49939 21.2469 3.54277 21.8015C1.58615 22.3561 0.661947 25.1272 1.4785 27.9909C2.29505 30.8547 4.54315 32.7266 6.49977 32.172Z" fill="#6A8D4E" stroke="black" stroke-width="1.5" stroke-miterlimit="10"/>
<path d="M26.8034 20.5256C27.2882 17.574 26.0618 14.9167 24.0641 14.5906C22.0664 14.2644 20.054 16.3928 19.5692 19.3445C19.0844 22.2962 20.3108 24.9534 22.3085 25.2796C24.3062 25.6057 26.3186 23.4773 26.8034 20.5256Z" fill="#6A8D4E" stroke="black" stroke-width="1.5" stroke-miterlimit="10"/>
<path d="M34.2346 29.4941C35.4638 26.8111 34.9472 23.947 33.0807 23.097C31.2143 22.247 28.7048 23.7329 27.4756 26.4159C26.2464 29.0989 26.763 31.963 28.6295 32.813C30.4959 33.6631 33.0054 32.1771 34.2346 29.4941Z" fill="#6A8D4E" stroke="black" stroke-width="1.5" stroke-miterlimit="10"/>
<path d="M28.2896 39.6846C28.2896 44.5085 21.5883 41.289 18.0125 41.289C14.079 41.289 8 44.5085 8 39.6846C8 34.8608 14.5689 30.9496 18.0125 30.9496C21.9459 30.9496 28.2896 34.8608 28.2896 39.6846Z" fill="#6A8D4E" stroke="black" stroke-width="1.5" stroke-miterlimit="10"/>
</svg>
