<svg width="1558" height="761" viewBox="0 0 1558 761" fill="none" xmlns="http://www.w3.org/2000/svg">
<rect x="60" width="1440" height="728" fill="#EAF5E8"/>
<rect x="279" y="218" width="166" height="166" rx="83" fill="#CDE7AC" fill-opacity="0.47"/>
<rect x="585" y="336" width="82" height="82" rx="41" fill="#CDE7AC" fill-opacity="0.47"/>
<rect x="1206" y="77" width="116" height="116" rx="58" fill="#CDE7AC" fill-opacity="0.47"/>
<rect x="1151" y="383" width="61" height="61" rx="30.5" fill="#CDE7AC" fill-opacity="0.47"/>
<path d="M685.038 47.912C685.262 48.264 685.454 48.744 685.614 49.352C685.806 49.928 685.902 50.536 685.902 51.176C685.902 52.424 685.63 53.32 685.086 53.864C684.574 54.376 683.87 54.632 682.974 54.632H672.894V60.056H683.406C683.662 60.408 683.87 60.872 684.03 61.448C684.222 62.024 684.318 62.632 684.318 63.272C684.318 64.488 684.046 65.368 683.502 65.912C682.99 66.424 682.286 66.68 681.39 66.68H672.99V76.808C672.638 76.904 672.078 77 671.31 77.096C670.574 77.192 669.838 77.24 669.102 77.24C668.366 77.24 667.71 77.176 667.134 77.048C666.59 76.952 666.126 76.76 665.742 76.472C665.358 76.184 665.07 75.784 664.878 75.272C664.686 74.76 664.59 74.088 664.59 73.256V52.376C664.59 51 664.99 49.912 665.79 49.112C666.59 48.312 667.678 47.912 669.054 47.912H685.038ZM716.372 65.336C716.372 67.32 716.068 69.096 715.46 70.664C714.852 72.2 713.988 73.496 712.868 74.552C711.78 75.608 710.468 76.408 708.932 76.952C707.396 77.496 705.684 77.768 703.796 77.768C701.908 77.768 700.196 77.48 698.66 76.904C697.124 76.328 695.796 75.512 694.676 74.456C693.588 73.368 692.74 72.056 692.132 70.52C691.524 68.984 691.22 67.256 691.22 65.336C691.22 63.448 691.524 61.736 692.132 60.2C692.74 58.664 693.588 57.368 694.676 56.312C695.796 55.224 697.124 54.392 698.66 53.816C700.196 53.24 701.908 52.952 703.796 52.952C705.684 52.952 707.396 53.256 708.932 53.864C710.468 54.44 711.78 55.272 712.868 56.36C713.988 57.416 714.852 58.712 715.46 60.248C716.068 61.784 716.372 63.48 716.372 65.336ZM699.572 65.336C699.572 67.288 699.94 68.792 700.676 69.848C701.444 70.872 702.5 71.384 703.844 71.384C705.188 71.384 706.212 70.856 706.916 69.8C707.652 68.744 708.02 67.256 708.02 65.336C708.02 63.416 707.652 61.944 706.916 60.92C706.18 59.864 705.14 59.336 703.796 59.336C702.452 59.336 701.412 59.864 700.676 60.92C699.94 61.944 699.572 63.416 699.572 65.336ZM732.353 76.952C732.033 77.048 731.521 77.144 730.817 77.24C730.145 77.336 729.441 77.384 728.705 77.384C728.001 77.384 727.361 77.336 726.785 77.24C726.241 77.144 725.777 76.952 725.393 76.664C725.009 76.376 724.705 75.992 724.481 75.512C724.289 75 724.193 74.344 724.193 73.544V59.144C724.193 58.408 724.321 57.784 724.577 57.272C724.865 56.728 725.265 56.248 725.777 55.832C726.289 55.416 726.913 55.048 727.649 54.728C728.417 54.376 729.233 54.072 730.097 53.816C730.961 53.56 731.857 53.368 732.785 53.24C733.713 53.08 734.641 53 735.569 53C737.105 53 738.321 53.304 739.217 53.912C740.113 54.488 740.561 55.448 740.561 56.792C740.561 57.24 740.497 57.688 740.369 58.136C740.241 58.552 740.081 58.936 739.889 59.288C739.217 59.288 738.529 59.32 737.825 59.384C737.121 59.448 736.433 59.544 735.761 59.672C735.089 59.8 734.449 59.944 733.841 60.104C733.265 60.232 732.769 60.392 732.353 60.584V76.952ZM758.002 52.952C759.922 52.952 761.698 53.208 763.33 53.72C764.994 54.2 766.418 54.952 767.602 55.976C768.786 57 769.714 58.296 770.387 59.864C771.058 61.4 771.394 63.24 771.394 65.384C771.394 67.432 771.106 69.224 770.53 70.76C769.954 72.296 769.138 73.592 768.082 74.648C767.026 75.672 765.746 76.44 764.242 76.952C762.77 77.464 761.122 77.72 759.298 77.72C757.922 77.72 756.642 77.512 755.458 77.096V85.064C755.138 85.16 754.626 85.256 753.922 85.352C753.218 85.48 752.498 85.544 751.762 85.544C751.058 85.544 750.418 85.496 749.842 85.4C749.298 85.304 748.834 85.112 748.45 84.824C748.066 84.536 747.778 84.136 747.586 83.624C747.394 83.144 747.298 82.504 747.298 81.704V58.664C747.298 57.8 747.474 57.096 747.826 56.552C748.21 56.008 748.722 55.512 749.362 55.064C750.354 54.424 751.586 53.912 753.058 53.528C754.53 53.144 756.178 52.952 758.002 52.952ZM758.098 71.288C761.394 71.288 763.042 69.32 763.042 65.384C763.042 63.336 762.626 61.816 761.794 60.824C760.994 59.832 759.826 59.336 758.29 59.336C757.682 59.336 757.138 59.416 756.658 59.576C756.178 59.704 755.762 59.864 755.41 60.056V70.616C755.794 70.808 756.21 70.968 756.658 71.096C757.106 71.224 757.586 71.288 758.098 71.288ZM791.553 77.768C789.665 77.768 787.905 77.512 786.273 77C784.673 76.456 783.265 75.656 782.049 74.6C780.865 73.544 779.921 72.216 779.217 70.616C778.545 69.016 778.209 67.144 778.209 65C778.209 62.888 778.545 61.08 779.217 59.576C779.921 58.04 780.833 56.792 781.953 55.832C783.073 54.84 784.353 54.12 785.793 53.672C787.233 53.192 788.705 52.952 790.209 52.952C791.905 52.952 793.441 53.208 794.817 53.72C796.225 54.232 797.425 54.936 798.417 55.832C799.441 56.728 800.225 57.8 800.769 59.048C801.345 60.296 801.633 61.656 801.633 63.128C801.633 64.216 801.329 65.048 800.721 65.624C800.113 66.2 799.265 66.568 798.177 66.728L786.321 68.504C786.673 69.56 787.393 70.36 788.481 70.904C789.569 71.416 790.817 71.672 792.225 71.672C793.537 71.672 794.769 71.512 795.921 71.192C797.105 70.84 798.065 70.44 798.801 69.992C799.313 70.312 799.745 70.76 800.097 71.336C800.449 71.912 800.625 72.52 800.625 73.16C800.625 74.6 799.953 75.672 798.609 76.376C797.585 76.92 796.433 77.288 795.153 77.48C793.873 77.672 792.673 77.768 791.553 77.768ZM790.209 58.904C789.441 58.904 788.769 59.032 788.193 59.288C787.649 59.544 787.201 59.88 786.849 60.296C786.497 60.68 786.225 61.128 786.033 61.64C785.873 62.12 785.777 62.616 785.745 63.128L793.953 61.784C793.857 61.144 793.505 60.504 792.897 59.864C792.289 59.224 791.393 58.904 790.209 58.904ZM817.56 68.984C817.56 69.816 817.816 70.408 818.328 70.76C818.872 71.112 819.624 71.288 820.584 71.288C821.064 71.288 821.56 71.256 822.072 71.192C822.584 71.096 823.032 70.984 823.416 70.856C823.704 71.208 823.944 71.608 824.136 72.056C824.36 72.472 824.472 72.984 824.472 73.592C824.472 74.808 824.008 75.8 823.08 76.568C822.184 77.336 820.584 77.72 818.28 77.72C815.464 77.72 813.288 77.08 811.752 75.8C810.248 74.52 809.496 72.44 809.496 69.56V49.016C809.848 48.92 810.344 48.824 810.984 48.728C811.656 48.6 812.36 48.536 813.096 48.536C814.504 48.536 815.592 48.792 816.36 49.304C817.16 49.784 817.56 50.824 817.56 52.424V55.496H823.848C824.04 55.848 824.216 56.296 824.376 56.84C824.568 57.352 824.664 57.928 824.664 58.568C824.664 59.688 824.408 60.504 823.896 61.016C823.416 61.496 822.76 61.736 821.928 61.736H817.56V68.984ZM866.645 69.848C866.229 70.2 865.685 70.488 865.013 70.712C864.373 70.904 863.621 71 862.757 71C861.605 71 860.645 70.856 859.877 70.568C859.141 70.28 858.661 69.784 858.437 69.08C857.541 66.264 856.805 63.992 856.229 62.264C855.653 60.504 855.205 58.968 854.885 57.656H854.645C854.549 59.544 854.469 61.272 854.405 62.84C854.373 64.376 854.341 65.88 854.309 67.352C854.309 68.824 854.277 70.312 854.213 71.816C854.181 73.32 854.117 74.984 854.021 76.808C853.605 76.968 853.061 77.096 852.389 77.192C851.717 77.32 851.045 77.384 850.373 77.384C848.965 77.384 847.861 77.16 847.061 76.712C846.293 76.264 845.909 75.448 845.909 74.264L847.301 49.784C847.557 49.368 848.117 48.92 848.981 48.44C849.845 47.96 851.061 47.72 852.629 47.72C854.325 47.72 855.653 47.992 856.613 48.536C857.573 49.048 858.277 49.896 858.725 51.08C859.013 51.848 859.317 52.728 859.637 53.72C859.989 54.712 860.325 55.736 860.645 56.792C860.997 57.848 861.333 58.904 861.653 59.96C861.973 60.984 862.261 61.912 862.517 62.744H862.757C863.525 60.056 864.293 57.464 865.061 54.968C865.829 52.44 866.533 50.328 867.173 48.632C867.653 48.376 868.261 48.168 868.997 48.008C869.765 47.816 870.613 47.72 871.541 47.72C873.109 47.72 874.389 47.96 875.381 48.44C876.373 48.888 876.949 49.544 877.109 50.408C877.237 51.048 877.365 52.04 877.493 53.384C877.653 54.696 877.813 56.184 877.973 57.848C878.133 59.512 878.293 61.272 878.453 63.128C878.613 64.984 878.757 66.776 878.885 68.504C879.045 70.2 879.173 71.768 879.269 73.208C879.365 74.616 879.429 75.704 879.461 76.472C878.917 76.792 878.341 77.016 877.733 77.144C877.157 77.304 876.405 77.384 875.477 77.384C874.261 77.384 873.237 77.176 872.405 76.76C871.573 76.344 871.125 75.528 871.061 74.312C870.869 70.824 870.741 67.688 870.677 64.904C870.645 62.12 870.581 59.784 870.485 57.896H870.245C869.925 59.144 869.461 60.712 868.853 62.6C868.245 64.488 867.509 66.904 866.645 69.848ZM897.983 71.816C898.527 71.816 899.119 71.768 899.759 71.672C900.431 71.544 900.927 71.384 901.247 71.192V67.352L897.791 67.64C896.895 67.704 896.159 67.896 895.583 68.216C895.007 68.536 894.719 69.016 894.719 69.656C894.719 70.296 894.959 70.824 895.439 71.24C895.951 71.624 896.799 71.816 897.983 71.816ZM897.599 52.952C899.327 52.952 900.895 53.128 902.303 53.48C903.743 53.832 904.959 54.376 905.951 55.112C906.975 55.816 907.759 56.728 908.303 57.848C908.847 58.936 909.119 60.232 909.119 61.736V72.488C909.119 73.32 908.879 74.008 908.399 74.552C907.951 75.064 907.407 75.512 906.767 75.896C904.687 77.144 901.759 77.768 897.983 77.768C896.287 77.768 894.751 77.608 893.375 77.288C892.031 76.968 890.863 76.488 889.871 75.848C888.911 75.208 888.159 74.392 887.615 73.4C887.103 72.408 886.847 71.256 886.847 69.944C886.847 67.736 887.503 66.04 888.815 64.856C890.127 63.672 892.159 62.936 894.911 62.648L901.199 61.976V61.64C901.199 60.712 900.783 60.056 899.951 59.672C899.151 59.256 897.983 59.048 896.447 59.048C895.231 59.048 894.047 59.176 892.895 59.432C891.743 59.688 890.703 60.008 889.775 60.392C889.359 60.104 889.007 59.672 888.719 59.096C888.431 58.488 888.287 57.864 888.287 57.224C888.287 56.392 888.479 55.736 888.863 55.256C889.279 54.744 889.903 54.312 890.735 53.96C891.663 53.608 892.751 53.352 893.999 53.192C895.279 53.032 896.479 52.952 897.599 52.952ZM928.652 52.952C930.572 52.952 932.348 53.208 933.98 53.72C935.644 54.2 937.068 54.952 938.252 55.976C939.436 57 940.364 58.296 941.036 59.864C941.708 61.4 942.044 63.24 942.044 65.384C942.044 67.432 941.756 69.224 941.18 70.76C940.604 72.296 939.788 73.592 938.732 74.648C937.676 75.672 936.396 76.44 934.892 76.952C933.42 77.464 931.772 77.72 929.948 77.72C928.572 77.72 927.292 77.512 926.108 77.096V85.064C925.788 85.16 925.276 85.256 924.572 85.352C923.868 85.48 923.148 85.544 922.412 85.544C921.708 85.544 921.068 85.496 920.492 85.4C919.948 85.304 919.484 85.112 919.1 84.824C918.716 84.536 918.428 84.136 918.236 83.624C918.044 83.144 917.948 82.504 917.948 81.704V58.664C917.948 57.8 918.124 57.096 918.476 56.552C918.86 56.008 919.372 55.512 920.012 55.064C921.004 54.424 922.236 53.912 923.708 53.528C925.18 53.144 926.828 52.952 928.652 52.952ZM928.748 71.288C932.044 71.288 933.692 69.32 933.692 65.384C933.692 63.336 933.276 61.816 932.444 60.824C931.644 59.832 930.476 59.336 928.94 59.336C928.332 59.336 927.788 59.416 927.308 59.576C926.828 59.704 926.412 59.864 926.06 60.056V70.616C926.444 70.808 926.86 70.968 927.308 71.096C927.756 71.224 928.236 71.288 928.748 71.288Z" fill="black"/>
<path d="M630.813 60.3123C632.818 60.0551 634.134 57.4401 633.751 54.4716C633.368 51.5031 631.432 49.3052 629.426 49.5624C627.42 49.8197 626.104 52.4347 626.487 55.4032C626.87 58.3717 628.807 60.5696 630.813 60.3123Z" fill="#6A8D4E" stroke="black" stroke-width="1.5" stroke-miterlimit="10"/>
<path d="M623.5 67.172C625.456 66.6174 626.381 63.8463 625.564 60.9825C624.747 58.1188 622.499 56.2469 620.543 56.8015C618.586 57.3561 617.662 60.1272 618.479 62.9909C619.295 65.8547 621.543 67.7266 623.5 67.172Z" fill="#6A8D4E" stroke="black" stroke-width="1.5" stroke-miterlimit="10"/>
<path d="M643.804 55.5256C644.289 52.5739 643.062 49.9167 641.065 49.5905C639.067 49.2644 637.054 51.3928 636.57 54.3445C636.085 57.2961 637.311 59.9534 639.309 60.2795C641.307 60.6057 643.319 58.4773 643.804 55.5256Z" fill="#6A8D4E" stroke="black" stroke-width="1.5" stroke-miterlimit="10"/>
<path d="M651.235 64.4941C652.464 61.8111 651.947 58.9471 650.081 58.097C648.214 57.247 645.705 58.7329 644.476 61.4159C643.246 64.0989 643.763 66.963 645.629 67.813C647.496 68.6631 650.005 67.1771 651.235 64.4941Z" fill="#6A8D4E" stroke="black" stroke-width="1.5" stroke-miterlimit="10"/>
<path d="M645.29 74.6846C645.29 79.5084 638.588 76.289 635.012 76.289C631.079 76.289 625 79.5084 625 74.6846C625 69.8607 631.569 65.9496 635.012 65.9496C638.946 65.9496 645.29 69.8607 645.29 74.6846Z" fill="#6A8D4E" stroke="black" stroke-width="1.5" stroke-miterlimit="10"/>
<path d="M85.8395 542.647H113.764L136.522 760.023H62.7222L85.8395 542.647Z" fill="#93642D"/>
<path d="M85.6384 542.647H113.38L125.442 659.646H73.5767L85.6384 542.647Z" fill="#714D22"/>
<path d="M183.501 639.786C211.339 642.592 192.895 609.115 179.438 579.345C165.982 549.576 136.869 493.576 92.182 493.576C55.5637 493.576 -13.8246 624.975 2.42513 637.338C15.4249 647.229 45.9401 639.468 66.2522 623.9C72.3459 637.636 81.5464 644.066 96.1712 645.165C110.796 646.264 119.326 636.263 130.836 623.9C134.898 628.479 159.215 637.338 183.501 639.786Z" fill="#66A865"/>
<path fill-rule="evenodd" clip-rule="evenodd" d="M178.252 576.017C161.472 542.991 132.465 499.224 91.2872 499.224C70.1075 499.224 38.8377 539.683 16.8867 579.551C31.8266 578.04 49.5615 570.851 63.1152 560.463C69.7358 575.387 80.6046 590.906 96.494 592.1C112.383 593.294 124.236 577.723 133.284 560.463C137.01 564.663 156.419 572.177 178.252 576.017Z" fill="#458244"/>
<path d="M183.501 564.146C210.143 572.69 192.895 533.474 179.438 503.705C165.982 473.936 136.869 417.935 92.182 417.935C55.5638 417.935 -13.8246 549.335 2.42514 561.698C15.4249 571.588 45.9401 547.347 66.2522 531.779C72.3459 545.515 81.5464 568.425 96.1712 569.524C110.796 570.623 119.326 544.142 130.836 531.779C134.898 536.358 159.215 556.357 183.501 564.146Z" fill="#83C082"/>
<path fill-rule="evenodd" clip-rule="evenodd" d="M165.691 473.109C172.139 486.84 176.858 496.89 176.101 496.813C155.461 494.74 131.53 485.628 128.078 481.75C121.001 495.205 110.129 503.775 97.6997 502.844C85.2707 501.914 73.9302 491.561 68.7515 479.927C51.4891 493.113 19.4618 498.02 21.7111 494.401C25.5576 488.213 29.1525 481.376 32.5745 474.189C53.1595 441.217 78.2313 412.381 96.1117 412.381C117.714 412.381 135.967 424.427 150.861 440.647C151.629 442.582 152.4 444.425 153.184 446.154C157.44 455.538 161.869 464.97 165.691 473.109Z" fill="#458244"/>
<path d="M174.895 475.1C194.194 481.733 179.793 447.515 168.865 423.235C157.937 398.954 130.36 360.669 94.1609 358.095C60.3093 355.689 4.89675 461.398 18.0932 471.481C28.6504 479.548 56.6076 463.645 73.1032 450.948C78.0519 462.151 85.5237 480.837 97.4005 481.733C109.277 482.63 116.204 461.031 125.552 450.948C128.851 454.682 157.687 469.185 174.895 475.1Z" fill="#66A865"/>
<path fill-rule="evenodd" clip-rule="evenodd" d="M159.327 404.946C163.255 411.876 165.66 416.118 165.246 416C164.351 415.744 163.247 415.436 161.984 415.083C151.34 412.108 129.388 405.973 125.443 401.526C123.032 404.55 120.854 407.36 118.861 409.932C110.031 421.326 104.811 428.062 98.9069 428.062C91.4946 428.062 87.0871 421.692 81.4792 413.587C78.8511 409.789 75.9594 405.609 72.3713 401.526C50.3027 418.441 34.98 417.206 34.98 417.206C34.98 417.206 43.131 387.007 57.4089 359.694C70.4077 344.986 83.2763 335.185 93.7006 335.185C106.518 335.185 118.155 339.425 128.612 346.262C128.761 346.587 128.911 346.916 129.061 347.249C138.669 368.504 151.797 391.663 159.327 404.946Z" fill="#458244"/>
<path d="M156.714 399.017C173.045 408.414 163.008 378.036 153.992 357.672C144.977 337.308 125.471 299 95.5316 299C70.9979 299 24.5087 388.885 35.3958 397.342C44.1055 404.108 64.5502 387.526 78.1591 376.876C82.2417 386.273 88.406 401.944 98.2043 402.696C108.003 403.448 113.717 385.333 121.429 376.876C124.151 380.008 143.649 391.5 156.714 399.017Z" fill="#83C082"/>
<path d="M1442.91 580.706H1461.89L1477.36 728.477H1427.19L1442.91 580.706Z" fill="#93642D"/>
<path d="M1442.77 580.706H1461.63L1469.83 660.242H1434.57L1442.77 580.706Z" fill="#714D22"/>
<path fill-rule="evenodd" clip-rule="evenodd" d="M1368.34 510.967C1368.34 488.939 1386.2 471.081 1408.22 471.081C1430.25 471.081 1448.11 488.939 1448.11 510.967V513.816C1448.11 515.314 1448.03 516.791 1447.87 518.246C1464.47 523.071 1476.6 538.394 1476.6 556.551V559.4C1476.6 581.429 1458.74 599.286 1436.72 599.286C1424.8 599.286 1414.11 594.064 1406.8 585.783C1399.49 594.064 1388.8 599.286 1376.89 599.286C1354.86 599.286 1337 581.429 1337 559.4V556.551C1337 537.396 1350.5 521.394 1368.51 517.546C1368.4 516.318 1368.34 515.074 1368.34 513.816V510.967Z" fill="#66A865"/>
<path fill-rule="evenodd" clip-rule="evenodd" d="M1458.02 632.64C1444.5 648.901 1420.36 651.124 1404.09 637.604C1387.83 624.083 1385.61 599.941 1399.13 583.679L1400.88 581.576C1401.8 580.471 1402.77 579.431 1403.78 578.456C1394.48 564.705 1394.93 545.947 1406.08 532.543L1407.83 530.44C1421.35 514.178 1445.49 511.956 1461.75 525.476C1470.54 532.788 1475.23 543.206 1475.54 553.804C1486.02 552.177 1497.12 554.885 1505.92 562.197C1522.18 575.717 1524.4 599.859 1510.88 616.121L1509.13 618.224C1497.37 632.365 1477.58 635.889 1461.93 627.678C1461.26 628.654 1460.54 629.608 1459.77 630.537L1458.02 632.64Z" fill="#66A865"/>
<path fill-rule="evenodd" clip-rule="evenodd" d="M1448.46 497.784C1448.46 475.694 1466.7 457.786 1488.79 457.786C1510.88 457.786 1529.12 475.694 1529.12 497.784V501.327C1529.12 502.732 1529.04 504.121 1528.9 505.488C1545.58 510.357 1557.92 525.7 1557.92 543.874V547.418C1557.92 569.508 1539.69 587.416 1517.6 587.416C1505.62 587.416 1494.77 582.149 1487.35 573.804C1479.93 582.149 1469.08 587.416 1457.1 587.416C1435.01 587.416 1416.77 569.508 1416.77 547.418V543.874C1416.77 524.693 1430.52 508.665 1448.61 504.777C1448.51 503.64 1448.46 502.489 1448.46 501.327V497.784Z" fill="#66A865"/>
<path fill-rule="evenodd" clip-rule="evenodd" d="M1433.77 441.099C1433.77 419.009 1452.01 401.101 1474.1 401.101C1496.19 401.101 1514.43 419.009 1514.43 441.099V444.643C1514.43 446.048 1514.36 447.436 1514.21 448.804C1530.89 453.672 1543.24 469.015 1543.24 487.19V490.733C1543.24 512.823 1525 530.731 1502.91 530.731C1490.93 530.731 1480.08 525.464 1472.66 517.12C1465.24 525.464 1454.39 530.731 1442.41 530.731C1420.32 530.731 1402.08 512.823 1402.08 490.733V487.19C1402.08 468.008 1415.84 451.98 1433.92 448.092C1433.82 446.955 1433.77 445.805 1433.77 444.643V441.099Z" fill="#66A865"/>
<path fill-rule="evenodd" clip-rule="evenodd" d="M1376.12 458.006C1376.12 439.731 1390.93 424.916 1409.21 424.916C1427.49 424.916 1442.3 439.731 1442.3 458.006V460.37C1442.3 461.612 1442.23 462.838 1442.1 464.045C1455.87 468.048 1465.94 480.76 1465.94 495.824V498.188C1465.94 516.463 1451.12 531.278 1432.85 531.278C1422.96 531.278 1414.09 526.946 1408.03 520.076C1401.96 526.946 1393.09 531.278 1383.21 531.278C1364.93 531.278 1350.12 516.463 1350.12 498.188V495.824C1350.12 479.932 1361.32 466.656 1376.26 463.464C1376.17 462.446 1376.12 461.413 1376.12 460.37V458.006Z" fill="#66A865"/>
<path fill-rule="evenodd" clip-rule="evenodd" d="M1482.44 426.114C1494.99 439.397 1494.4 460.341 1481.11 472.892C1467.83 485.444 1446.89 484.851 1434.33 471.568L1432.71 469.85C1431.86 468.947 1431.07 468.009 1430.33 467.041C1417.57 473.59 1401.53 471.263 1391.18 460.314L1389.56 458.596C1377.01 445.313 1377.6 424.369 1390.88 411.818C1398.07 405.03 1407.49 402.086 1416.61 402.915C1416.3 393.757 1419.78 384.515 1426.96 377.727C1440.24 365.175 1461.19 365.768 1473.74 379.052L1475.36 380.77C1486.28 392.321 1487.25 409.664 1478.58 422.245C1479.35 422.921 1480.1 423.638 1480.81 424.396L1482.44 426.114Z" fill="#83C082"/>
<path fill-rule="evenodd" clip-rule="evenodd" d="M1554.36 528.222C1548.47 536.903 1539.25 543.182 1528.59 545.254C1527.37 551.261 1524.69 557.061 1520.5 562.104L1518.75 564.207C1506.99 578.348 1487.2 581.873 1471.55 573.661C1470.88 574.637 1470.16 575.591 1469.39 576.52L1467.64 578.623C1454.12 594.884 1429.98 597.107 1413.71 583.587C1404.19 575.672 1399.49 564.115 1399.93 552.631C1394.1 555.962 1387.36 557.865 1380.17 557.865C1364.13 557.865 1350.31 548.404 1343.97 534.761C1339.57 541.172 1337 548.934 1337 557.296V560.145C1337 582.173 1354.86 600.031 1376.89 600.031C1382.3 600.031 1387.46 598.952 1392.17 596.997C1387.44 611.479 1391.67 628.016 1404.09 638.348C1420.36 651.868 1444.5 649.646 1458.02 633.384L1459.77 631.281C1460.54 630.353 1461.26 629.399 1461.93 628.422C1477.58 636.634 1497.37 633.109 1509.13 618.968L1510.88 616.865C1517.81 608.524 1520.61 598.108 1519.49 588.116C1540.72 587.129 1557.92 569.618 1557.92 548.163V544.619C1557.92 538.776 1556.65 533.225 1554.36 528.222Z" fill="#458244"/>
</svg>
