<svg width="253" height="253" viewBox="0 0 253 253" fill="none" xmlns="http://www.w3.org/2000/svg">
<rect width="253" height="253" rx="126.5" fill="white"/>
<g filter="url(#filter0_d_816_19582)">
<g clip-path="url(#clip0_816_19582)">
<path d="M197.485 60.8374V193.122C197.485 196.295 195.285 199.036 192.092 200.365C190.765 200.925 189.27 201.232 187.683 201.232H140.876C140.857 201.256 140.838 201.263 140.82 201.27L140.55 201.232H64.8012C59.3891 201.232 55 197.607 55 193.122V60.8374C55 60.4153 55.0375 59.9921 55.1212 59.5855C55.2612 58.8173 55.5295 58.0799 55.9003 57.3971V57.39C56.1875 56.8755 56.5308 56.3918 56.9219 55.9378C57.0517 55.7836 57.1917 55.6378 57.3388 55.492C57.5336 55.2774 57.7573 55.0771 57.9982 54.8933C58.1093 54.8009 58.2305 54.7013 58.3503 54.6088C58.7124 54.3397 59.102 54.0872 59.5103 53.856C59.7801 53.7019 60.0586 53.5644 60.3544 53.434C60.7814 53.2348 61.2359 53.0653 61.7092 52.9266C62.8057 52.597 63.9932 52.4121 65.2282 52.4121H187.257C188.723 52.4121 190.115 52.6658 191.378 53.127C191.554 53.1957 191.73 53.2657 191.907 53.3415C192.705 53.6723 193.448 54.0943 194.108 54.5851C194.238 54.6847 194.368 54.7843 194.489 54.885C194.748 55.0842 194.981 55.3 195.194 55.5299C195.334 55.6758 195.473 55.8216 195.594 55.9674C195.845 56.259 196.076 56.5661 196.289 56.8885C196.494 57.211 196.679 57.5488 196.838 57.8867C197.079 58.4012 197.246 58.9382 197.357 59.5001C197.384 59.646 197.413 59.8001 197.431 59.953C197.468 60.2458 197.485 60.5374 197.485 60.8374Z" fill="#ACADBC" fill-opacity="0.2"/>
<path d="M169.03 131.247L153.749 136.615C153.242 136.793 152.658 136.597 152.443 136.179L151.693 134.716C151.478 134.297 151.714 133.813 152.221 133.635L167.502 128.267C168.008 128.089 168.593 128.285 168.808 128.703L169.558 130.166C169.773 130.586 169.536 131.069 169.03 131.247Z" fill="#ACADBC" fill-opacity="0.2"/>
<path d="M176.534 133.958L161.253 139.326C160.746 139.504 160.162 139.309 159.947 138.89L159.197 137.427C158.982 137.009 159.218 136.524 159.725 136.346L175.006 130.978C175.512 130.8 176.096 130.996 176.311 131.414L177.062 132.877C177.275 133.297 177.04 133.781 176.534 133.958Z" fill="#ACADBC" fill-opacity="0.2"/>
<path d="M183.979 136.859L168.698 142.227C168.192 142.405 167.607 142.209 167.392 141.791L166.642 140.328C166.427 139.91 166.664 139.425 167.17 139.247L182.451 133.879C182.957 133.701 183.542 133.897 183.757 134.315L184.507 135.778C184.722 136.198 184.485 136.681 183.979 136.859Z" fill="#ACADBC" fill-opacity="0.2"/>
<path d="M77.0208 66.3036L60.6302 68.4813C60.0877 68.5536 59.5755 68.2478 59.4889 67.7985L59.1845 66.2289C59.0979 65.7796 59.4673 65.3563 60.0098 65.284L76.4003 63.1063C76.9428 63.034 77.455 63.3398 77.5416 63.7891L77.8461 65.3587C77.9341 65.8092 77.5633 66.2312 77.0208 66.3036Z" fill="#ACADBC" fill-opacity="0.2"/>
<path d="M79.4153 60.4058L63.0247 62.5836C62.4822 62.6559 61.97 62.35 61.8834 61.9007L61.579 60.3312C61.4924 59.8819 61.8618 59.4586 62.4043 59.3863L78.7949 57.2086C79.3374 57.1363 79.8496 57.4421 79.9361 57.8914L80.2406 59.461C80.3286 59.9115 79.9592 60.3335 79.4153 60.4058Z" fill="#ACADBC" fill-opacity="0.2"/>
<path d="M134.497 173.488L123.028 172.608C122.559 172.572 122.214 172.228 122.258 171.839L122.461 170.021C122.504 169.633 122.92 169.348 123.389 169.383L134.858 170.264C135.327 170.299 135.672 170.643 135.628 171.032L135.425 172.851C135.382 173.24 134.966 173.525 134.497 173.488Z" fill="#ACADBC" fill-opacity="0.2"/>
<path d="M89.3542 171.459L78.53 168.201C78.0871 168.068 77.8591 167.663 78.0207 167.297L78.7753 165.58C78.9369 165.214 79.426 165.025 79.869 165.158L90.6931 168.416C91.1361 168.549 91.364 168.954 91.2024 169.32L90.4478 171.037C90.2862 171.403 89.7971 171.592 89.3542 171.459Z" fill="#ACADBC" fill-opacity="0.2"/>
<path d="M194.171 180.745L185.561 180.083C185.15 180.051 184.848 179.75 184.886 179.41L185.11 177.417C185.147 177.077 185.512 176.827 185.923 176.859L194.533 177.52C194.944 177.552 195.246 177.853 195.208 178.194L194.984 180.186C194.945 180.527 194.582 180.777 194.171 180.745Z" fill="#ACADBC" fill-opacity="0.2"/>
<path d="M139.974 130.224L132.016 133.019C131.636 133.153 131.198 133.006 131.036 132.692L130.091 130.85C129.929 130.536 130.107 130.173 130.486 130.039L138.445 127.244C138.824 127.11 139.263 127.257 139.425 127.571L140.37 129.413C140.531 129.728 140.354 130.091 139.974 130.224Z" fill="#ACADBC" fill-opacity="0.2"/>
<path d="M120.828 137.124L117.45 130.538C117.289 130.224 117.466 129.861 117.846 129.727L120.072 128.945C120.451 128.811 120.89 128.958 121.052 129.272L124.429 135.857C124.591 136.172 124.413 136.534 124.034 136.668L121.808 137.451C121.428 137.585 120.99 137.438 120.828 137.124Z" fill="#ACADBC" fill-opacity="0.2"/>
<path d="M67.2271 142.938L62.2349 137.097C61.9968 136.819 62.0762 136.432 62.4138 136.236L64.389 135.08C64.7266 134.883 65.1927 134.949 65.4307 135.228L70.4229 141.069C70.661 141.347 70.5816 141.734 70.244 141.931L68.2688 143.087C67.9312 143.283 67.4651 143.218 67.2271 142.938Z" fill="#ACADBC" fill-opacity="0.2"/>
<path d="M125.76 82.1974L118.273 78.6208C117.915 78.4501 117.792 78.0719 117.999 77.7755L119.208 76.0424C119.414 75.7472 119.871 75.6452 120.229 75.8159L127.716 79.3926C128.074 79.5633 128.197 79.9414 127.99 80.2378L126.781 81.971C126.575 82.2674 126.117 82.3681 125.76 82.1974Z" fill="#ACADBC" fill-opacity="0.2"/>
<path d="M115.041 77.8739L107.554 74.2973C107.196 74.1266 107.074 73.7484 107.28 73.4521L108.489 71.7189C108.695 71.4237 109.153 71.3217 109.51 71.4924L116.997 75.0691C117.355 75.2398 117.478 75.6179 117.271 75.9143L116.062 77.6475C115.856 77.9439 115.399 78.0446 115.041 77.8739Z" fill="#ACADBC" fill-opacity="0.2"/>
<path d="M93.2266 63.82L89.924 57.2085C89.7667 56.8932 89.9471 56.5316 90.3294 56.4012L92.5644 55.6366C92.9453 55.5062 93.3824 55.6567 93.5412 55.9721L96.8438 62.5835C97.0011 62.8989 96.8207 63.2604 96.4383 63.3908L94.2034 64.1555C93.8211 64.2859 93.3839 64.1365 93.2266 63.82Z" fill="#ACADBC" fill-opacity="0.2"/>
<path d="M103.965 63.123L100.662 56.5115C100.505 56.1962 100.685 55.8346 101.068 55.7042L103.303 54.9395C103.684 54.8091 104.121 54.9597 104.279 55.275L107.582 61.8865C107.739 62.2018 107.559 62.5634 107.177 62.6938L104.942 63.4585C104.561 63.5889 104.124 63.4383 103.965 63.123Z" fill="#ACADBC" fill-opacity="0.2"/>
<path d="M61.1489 143.664L56.1567 137.823C55.9187 137.544 55.998 137.158 56.3357 136.961L58.3109 135.805C58.6485 135.609 59.1145 135.675 59.3526 135.954L64.3448 141.794C64.5829 142.073 64.5035 142.459 64.1659 142.656L62.1907 143.812C61.8545 144.009 61.3885 143.943 61.1489 143.664Z" fill="#ACADBC" fill-opacity="0.2"/>
<path d="M73.6347 135.06L70.3768 128.709C70.182 128.33 70.3955 127.892 70.8543 127.731L74.2767 126.529C74.7356 126.368 75.2636 126.544 75.4584 126.924L78.7163 133.274C78.9111 133.654 78.6976 134.091 78.2388 134.252L74.8164 135.454C74.359 135.616 73.8295 135.439 73.6347 135.06Z" fill="#ACADBC" fill-opacity="0.2"/>
<path d="M86.4551 79.996L81.6418 74.3637C81.3547 74.0271 81.4514 73.5624 81.8568 73.3241L84.8925 71.5482C85.2994 71.3099 85.8621 71.3905 86.1492 71.726L90.9625 77.3583C91.2496 77.695 91.153 78.1597 90.7475 78.398L87.7118 80.1738C87.3049 80.4121 86.7422 80.3327 86.4551 79.996Z" fill="#ACADBC" fill-opacity="0.2"/>
<path d="M70.4355 175.504L67.1775 169.153C66.9828 168.774 67.1963 168.336 67.6551 168.175L71.0775 166.973C71.5363 166.812 72.0644 166.988 72.2592 167.368L75.5171 173.718C75.7119 174.098 75.4984 174.535 75.0395 174.696L71.6171 175.899C71.1598 176.06 70.6302 175.883 70.4355 175.504Z" fill="#ACADBC" fill-opacity="0.2"/>
<path d="M147.387 121.151L135.065 125.48C134.589 125.647 134.039 125.463 133.836 125.07L133.039 123.517C132.837 123.122 133.06 122.668 133.536 122.499L145.858 118.171C146.334 118.004 146.883 118.188 147.087 118.581L147.883 120.134C148.085 120.529 147.863 120.984 147.387 121.151Z" fill="#ACADBC" fill-opacity="0.2"/>
<path d="M105.659 82.9693L94.7295 89.3638C94.3068 89.6116 93.7224 89.5286 93.4237 89.1789L92.2464 87.8013C91.9477 87.4516 92.0473 86.9679 92.47 86.7202L103.399 80.3256C103.822 80.0779 104.407 80.1608 104.705 80.5106L105.883 81.8881C106.183 82.2378 106.082 82.7215 105.659 82.9693Z" fill="#ACADBC" fill-opacity="0.2"/>
<path d="M160.192 185.018L148.723 184.138C148.254 184.102 147.91 183.758 147.953 183.369L148.156 181.551C148.2 181.163 148.615 180.878 149.084 180.913L160.553 181.794C161.022 181.83 161.367 182.173 161.324 182.562L161.12 184.381C161.077 184.77 160.661 185.054 160.192 185.018Z" fill="#ACADBC" fill-opacity="0.2"/>
<path d="M161.157 180.147L149.688 179.267C149.219 179.231 148.874 178.887 148.918 178.498L149.121 176.68C149.164 176.292 149.58 176.006 150.049 176.042L161.518 176.923C161.987 176.958 162.332 177.302 162.288 177.691L162.085 179.51C162.042 179.897 161.626 180.183 161.157 180.147Z" fill="#ACADBC" fill-opacity="0.2"/>
<path d="M128.019 184.749L125.244 175.499C125.13 175.121 125.409 174.738 125.866 174.644L128.009 174.204C128.466 174.111 128.929 174.341 129.042 174.719L131.816 183.969C131.93 184.348 131.652 184.73 131.195 184.824L129.052 185.264C128.595 185.359 128.133 185.128 128.019 184.749Z" fill="#ACADBC" fill-opacity="0.2"/>
<path d="M83.6271 81.076C83.6271 81.076 88.2918 82.214 89.2888 85.1647C90.2858 88.1166 86.1564 90.4046 85.2243 91.3767C84.2922 92.3488 73.8375 91.4751 73.8375 91.4751C73.8375 91.4751 63.5198 87.48 63.338 85.1647C63.1562 82.8495 54.896 82.4843 64.6134 79.683C74.3309 76.8817 69.7153 75.42 74.3309 76.8817C78.948 78.3434 83.6271 81.076 83.6271 81.076Z" fill="#60D394"/>
<path d="M178.6 72.3306C178.6 72.3306 183.264 73.4687 184.261 76.4194C185.258 79.3701 181.129 81.6592 180.197 82.6313C179.265 83.6034 168.81 82.7297 168.81 82.7297C168.81 82.7297 158.492 78.7346 158.311 76.4194C158.129 74.1041 149.869 73.739 159.586 70.9377C169.304 68.1364 164.688 66.6746 169.304 68.1364C173.919 69.5992 178.6 72.3306 178.6 72.3306Z" fill="#FFD97D"/>
<path d="M94.1655 123.565C94.1655 123.565 93.3532 125.488 90.8095 126.058C88.2658 126.63 86.1001 125.123 85.2127 124.81C84.3254 124.497 84.6789 120.287 84.6789 120.287C84.6789 120.287 87.7694 115.947 89.788 115.739C91.8065 115.529 91.8022 112.222 94.6344 115.921C97.4682 119.62 98.5647 117.698 97.4682 119.62C96.3716 121.543 94.1655 123.565 94.1655 123.565Z" fill="#FFD97D"/>
<path d="M55 100.919C62.8288 98.5848 81.0691 95.3935 85.2692 97.7147C89.4693 100.035 105.58 99.896 105.58 99.896L120.329 92.5175C120.329 92.5175 142.462 97.0603 142.257 87.6712C142.052 78.281 148.78 63.4884 157.334 60.0079C165.889 56.5273 166.56 52.4148 166.56 52.4148H159.115C159.115 52.4148 155.114 58.9433 151.387 59.5242C147.66 60.1039 136.775 68.3039 137.777 72.7127C138.78 77.1216 137.777 84.845 137.777 84.845L128.45 87.3547L116.343 85.7626C116.343 85.7626 111.005 91.4778 110.285 92.5175C109.565 93.5572 103.183 95.5737 99.383 94.5245C95.5825 93.4742 84.327 93.5572 84.327 93.5572C84.327 93.5572 71.8451 97.7182 69.6289 95.2631C67.4112 92.8091 61.2316 93.9436 61.2316 93.9436L55 95.2631V100.919Z" fill="#FFD97D"/>
<path d="M197.486 128.677V137.025C196.659 137.655 195.435 138.476 194.071 138.961C193.031 139.345 191.908 139.514 190.841 139.253C190.386 139.145 189.875 139.199 189.327 139.391C187.648 139.968 185.642 141.772 183.934 143.569C182.996 144.56 182.152 145.558 181.511 146.342C180.759 147.271 180.295 147.901 180.295 147.901C180.295 147.901 171.329 153.538 167.523 154.575C166.131 154.952 164.766 155.835 163.597 156.849C163.327 157.087 163.067 157.326 162.827 157.571C162.557 157.832 162.307 158.101 162.075 158.362C160.887 159.721 160.153 161.027 160.237 161.572C160.413 162.762 160.264 169.989 160.264 169.989L160.211 170.013L158.642 170.697L156.85 171.472L149.407 174.706L143.754 181.326C143.754 181.326 145.332 183.545 147.447 186.004C148.542 187.302 149.805 188.669 151.04 189.813H151.049C151.541 190.266 152.033 190.688 152.515 191.056C154.742 192.746 154.853 197.216 154.064 201.232H147.391C147.15 199.389 146.704 197.47 146.091 195.549C145.748 194.436 145.339 193.33 144.894 192.239C144.531 191.372 144.142 190.511 143.734 189.674C143.112 188.407 142.425 187.177 141.701 186.018C140.595 184.243 139.38 182.631 138.118 181.28C134.136 177.033 139.324 172.823 144.485 169.997C144.996 169.713 145.507 169.452 146.016 169.198C146.508 168.953 146.99 168.715 147.465 168.5C150.101 167.272 152.189 166.549 152.189 166.549L158.677 153.33C158.677 153.33 158.696 153.323 158.723 153.3C158.742 153.292 158.761 153.277 158.788 153.262C158.928 153.169 159.224 152.993 159.632 152.747C159.883 152.586 160.18 152.409 160.524 152.202C161.535 151.603 162.89 150.811 164.404 149.967C168.478 147.724 173.713 145.152 176.535 145.028C179.18 144.913 183.83 141.664 188.323 137.771C189.409 136.834 190.486 135.85 191.524 134.868C193.83 132.686 195.928 130.49 197.486 128.677Z" fill="#FFD97D"/>
<path d="M102.655 199.174C102.581 199.804 102.45 200.411 102.284 201.002C102.256 201.079 102.238 201.156 102.21 201.232H68.4423C68.4336 201.232 68.4336 201.225 68.4336 201.225C67.9416 200.702 67.4871 200.188 67.0687 199.673C65.9086 198.214 65.1382 196.801 65.0819 195.587C64.8222 190.072 52.9044 189.204 66.9201 182.53C67.2909 182.353 67.6444 182.177 67.9878 182.007C68.6832 181.654 69.3238 181.316 69.9183 180.985C79.9618 175.34 74.8282 172.653 80.9459 175.855C82.7191 176.776 84.4909 177.921 86.153 179.087C86.7186 179.494 87.2756 179.909 87.8152 180.316C91.5738 183.157 94.3584 185.846 94.3584 185.846C94.3584 185.846 101.088 188.549 102.526 195.585C102.785 196.832 102.803 198.029 102.655 199.174Z" fill="#60D394"/>
<path d="M161.06 93.2011C150.113 99.6881 132.997 99.8079 142.257 109.174C151.515 118.541 163.162 128.947 171.536 122.729C179.91 116.511 178 117.301 182.46 108.494C186.921 99.687 191.283 92.4211 176.999 90.1153C162.715 87.8107 161.06 93.2011 161.06 93.2011Z" fill="#60D394"/>
<path d="M130.99 149.461C124.024 152.431 113.13 152.485 119.023 156.773C124.915 161.061 132.327 165.824 137.656 162.978C142.984 160.131 141.769 160.493 144.607 156.461C147.445 152.429 150.223 149.103 141.133 148.048C132.043 146.994 130.99 149.461 130.99 149.461Z" fill="#60D394"/>
<path d="M99.5837 184.685C102.862 188.936 102.454 195.3 107.883 192.124C113.312 188.948 119.382 184.914 116.181 181.627C112.979 178.339 113.363 179.072 108.623 177.165C103.883 175.258 99.992 173.431 98.3227 178.675C96.6533 183.917 99.5837 184.685 99.5837 184.685Z" fill="#FFD97D"/>
<path d="M197.487 144.48V152.54L191.597 143.046L190.576 141.396L177.813 120.831L175.781 117.562L166.981 103.381L165.966 101.742L155.72 85.2301L154.698 83.5846L146.747 70.7659L145.712 69.1003L135.88 53.2551C135.711 52.9871 135.63 52.6979 135.637 52.4146H140.361L149.933 67.8425L150.954 69.488L163.736 90.0882L164.758 91.7336L179.784 115.948L181.815 119.218L197.487 144.48Z" fill="white"/>
<path d="M197.485 108.801V112.89L181.812 119.217L177.811 120.83L147.799 132.954L145.792 133.759L123.494 142.763L121.5 143.568L119.114 144.532L101.914 151.477L97.3644 153.313L79.7965 160.408L77.1547 161.475L72.8796 163.197C72.8291 163.217 72.7743 163.239 72.718 163.259L64.0682 166.755L62.0612 167.565L55.9725 170.024C55.6608 170.154 55.3246 170.211 55 170.211V166.322L69.284 160.557L73.4033 158.896L96.48 149.578C96.5363 149.552 96.5925 149.532 96.6488 149.512L114.915 142.138L118.929 140.514L128.893 136.492L130.887 135.687L160.258 123.832L162.252 123.022L175.781 117.562L179.782 115.947L197.485 108.801Z" fill="white"/>
<path d="M125.608 201.232H121.163C121.674 190.756 119.808 182.293 116.902 175.55C116.55 174.72 116.178 173.922 115.788 173.154C109.708 160.881 100.334 154.952 97.3635 153.316C96.7979 153.001 96.4632 152.84 96.4256 152.824C95.3579 152.34 94.9597 151.219 95.5527 150.336C95.8038 149.952 96.202 149.675 96.6478 149.514C97.2423 149.307 97.9478 149.322 98.5697 149.598C98.6995 149.66 99.9808 150.252 101.911 151.48C105.142 153.531 110.209 157.363 114.851 163.484C114.953 163.623 115.055 163.76 115.167 163.899C115.816 164.782 116.475 165.734 117.125 166.749C120.401 171.856 123.437 178.645 124.847 187.317C125.041 188.5 125.209 189.721 125.339 190.98C125.665 194.167 125.786 197.576 125.608 201.232Z" fill="white"/>
<path d="M197.487 79.0073V80.9207L192.258 82.648L164.758 91.7335L162.583 92.4508C162.452 92.497 162.309 92.5183 162.172 92.5183C161.729 92.5183 161.312 92.3014 161.143 91.941C160.912 91.4668 161.194 90.9357 161.761 90.7448L163.736 90.0905L190.29 81.319L192.365 80.6326L197.076 79.0749C197.213 79.0275 197.35 79.0073 197.487 79.0073Z" fill="white"/>
<path d="M192.387 82.5959C192.344 82.6161 192.3 82.6315 192.256 82.6469C192.124 82.6884 191.995 82.7085 191.857 82.7085C191.465 82.7085 191.084 82.5331 190.879 82.2237L190.288 81.3168L176.726 60.5826L175.66 58.9525L171.672 52.8532C171.578 52.7145 171.535 52.5651 171.535 52.4146H173.916L177.723 58.2412L178.79 59.8701L192.362 80.6304L192.836 81.3523C193.129 81.7969 192.929 82.3529 192.387 82.5959Z" fill="white"/>
<path d="M119.236 176.296C119.091 176.296 118.942 176.272 118.799 176.222L75.3381 160.829C74.774 160.628 74.5128 160.089 74.7538 159.621C74.9947 159.155 75.6469 158.938 76.2125 159.137L119.673 174.531C120.238 174.731 120.499 175.27 120.258 175.739C120.079 176.087 119.668 176.296 119.236 176.296Z" fill="white"/>
<path d="M98.3864 168.929L98.3402 168.975L87.8147 180.319L75.8695 193.207L74.4022 194.789L68.4332 201.225L68.4245 201.233H65.6211L67.0697 199.674L72.7314 193.567L74.356 191.808L86.154 179.09L96.2337 168.23L96.6232 167.815C96.994 167.408 97.6909 167.331 98.1728 167.638C98.6648 167.955 98.7572 168.53 98.3864 168.929Z" fill="white"/>
<path d="M138.6 169.291C138.202 169.291 137.817 169.113 137.616 168.801L120.477 141.969C120.19 141.52 120.397 140.963 120.94 140.726C121.482 140.488 122.155 140.66 122.442 141.109L139.581 167.941C139.868 168.39 139.661 168.947 139.118 169.184C138.952 169.256 138.775 169.291 138.6 169.291Z" fill="white"/>
<path d="M168.036 166.371C167.643 166.371 167.262 166.198 167.06 165.893L144.75 132.184C144.455 131.738 144.653 131.18 145.191 130.935C145.729 130.691 146.405 130.855 146.699 131.3L169.009 165.01C169.304 165.454 169.106 166.014 168.568 166.258C168.399 166.334 168.217 166.371 168.036 166.371Z" fill="white"/>
<path d="M159.51 153.488C159.067 153.488 158.65 153.268 158.477 152.907C158.251 152.435 158.53 151.901 159.1 151.714L192.752 140.685C193.321 140.499 193.968 140.729 194.194 141.202C194.421 141.674 194.141 142.208 193.571 142.396L159.92 153.424C159.786 153.467 159.647 153.488 159.51 153.488Z" fill="white"/>
<path d="M197.486 174.444V176.296C197.429 176.296 197.386 176.296 197.33 176.285L183.04 174.589V174.584L180.828 174.321L164.158 172.341L161.946 172.078L138.452 169.282L117.127 166.75V166.745L113.507 166.317C113.071 166.267 112.709 165.997 112.591 165.642C112.478 165.281 112.634 164.904 112.989 164.678L114.852 163.487L128.612 154.7L129.354 154.226C129.84 153.916 130.538 153.993 130.912 154.396C130.949 154.438 130.987 154.484 131.011 154.53C131.261 154.917 131.148 155.406 130.713 155.685L129.665 156.355L116.429 164.806L136.595 167.204L139.325 167.529L162.259 170.257L164.478 170.52L181.148 172.5L183.354 172.763L197.486 174.444Z" fill="white"/>
<path d="M194.11 54.5851L178.794 59.87L176.724 60.5837L150.949 69.4855L148.813 70.2229C148.786 70.23 148.757 70.2383 148.73 70.2454C148.619 70.2833 147.997 70.4446 147.013 70.6983C146.929 70.7208 146.837 70.7445 146.743 70.767C144.71 71.2815 141.379 72.0723 137.777 72.71C134.779 73.2471 131.596 73.6857 128.839 73.7628C128.533 73.7699 128.236 73.7782 127.939 73.7782C127.308 73.7782 126.695 73.7556 126.129 73.7094C125.989 73.694 125.842 73.6715 125.712 73.6561C122.352 73.119 119.549 69.5318 117.404 65.4537C117.107 64.8775 116.82 64.2943 116.542 63.7027C114.222 58.764 112.857 53.6498 112.578 52.6042C112.559 52.5425 112.551 52.4738 112.551 52.4121H114.806C115.706 55.8536 117.228 60.2304 119.075 63.9635C119.113 64.0169 119.14 64.0714 119.159 64.133C121.284 68.3261 123.809 71.6668 126.353 71.8743C129.454 72.1351 133.899 71.5435 137.965 70.7919C141.009 70.2241 143.831 69.5626 145.716 69.1026C146.978 68.7873 147.814 68.5656 148 68.511L148.389 68.3806L149.93 67.8436L175.666 58.956L177.726 58.2423L191.909 53.3427C192.707 53.6723 193.45 54.0943 194.11 54.5851Z" fill="white"/>
<path d="M130.89 138.653C130.487 138.653 130.098 138.472 129.901 138.154C117.23 117.769 117.047 103.97 129.344 95.9647C132.517 93.8996 134.22 91.3899 134.406 88.5056C134.881 81.1449 125.561 73.5269 125.466 73.4499C125.028 73.0954 125.019 72.5134 125.447 72.1494C125.876 71.7866 126.58 71.7783 127.019 72.1328C127.433 72.4671 137.152 80.4004 136.626 88.5969C136.407 92.0348 134.419 94.9997 130.72 97.4086C119.392 104.782 119.771 117.835 131.878 137.311C132.159 137.763 131.944 138.316 131.398 138.55C131.233 138.62 131.06 138.653 130.89 138.653Z" fill="white"/>
<path d="M122.053 119.083C121.62 119.083 121.209 118.873 121.03 118.523C120.79 118.055 121.053 117.516 121.619 117.318L168.094 100.993C168.659 100.794 169.311 101.014 169.551 101.481C169.791 101.949 169.528 102.488 168.962 102.686L122.487 119.011C122.346 119.06 122.199 119.083 122.053 119.083Z" fill="white"/>
<path d="M157.696 84.5342L155.72 85.2301L135.616 92.2944L135.192 92.4438C135.049 92.49 134.905 92.5161 134.756 92.5161C134.557 92.5161 134.358 92.4698 134.176 92.3821L133.354 91.9696L113.735 82.1051L111.691 81.0797L88.3343 69.3327L87.9793 69.1572C87.7557 69.0493 87.5869 68.8739 87.5061 68.6676L87.0819 67.6362L80.9253 52.7133C80.882 52.6149 80.8633 52.5118 80.8633 52.4146H83.1444L89.301 67.3422L89.4755 67.7595L91.7134 68.8834L114.266 80.2226L134.108 90.1949L134.844 90.5659L136.427 90.0088L154.699 83.5834L156.83 82.8354C157.391 82.6398 158.045 82.8555 158.289 83.325C158.525 83.7921 158.263 84.3338 157.696 84.5342Z" fill="white"/>
<path d="M132.48 115.498C132.249 114.906 131.962 114.338 131.597 113.809C129.844 111.174 126.557 109.346 122.731 109.146H122.719C122.499 109.139 122.278 109.131 122.047 109.131C121.871 109.131 121.694 109.131 121.517 109.146C121.164 109.154 120.8 109.184 120.458 109.23H120.448C116.169 109.752 112.706 112.326 111.549 115.704V115.711C111.273 116.487 111.141 117.316 111.141 118.162C111.141 118.776 111.207 119.383 111.35 119.959C112.364 124.076 116.776 127.194 122.047 127.194C122.686 127.194 123.337 127.148 123.944 127.055C124.308 127.002 124.661 126.94 125.003 126.856C125.378 126.772 125.742 126.672 126.084 126.549H126.096C130.11 125.213 132.966 121.956 132.966 118.162C132.966 117.233 132.8 116.343 132.48 115.498ZM125.367 124.815H125.355C125.002 124.938 124.638 125.038 124.275 125.115H124.263C123.91 125.192 123.568 125.253 123.204 125.291C122.817 125.337 122.442 125.36 122.046 125.36C117.248 125.36 113.355 122.134 113.355 118.164C113.355 114.693 116.312 111.812 120.271 111.121H120.282C120.636 111.059 120.978 111.021 121.341 110.998C121.574 110.982 121.805 110.975 122.047 110.975C122.213 110.975 122.366 110.975 122.522 110.982H122.533C125.521 111.121 128.114 112.51 129.547 114.531C129.922 115.053 130.219 115.621 130.418 116.22V116.228C130.628 116.842 130.739 117.495 130.739 118.164C130.739 121.159 128.511 123.731 125.367 124.815Z" fill="white"/>
<path d="M168.039 166.372C167.642 166.372 167.267 166.195 167.068 165.895L166.792 165.473C166.792 165.473 166.792 165.473 166.792 165.466L166.56 165.128H166.548C164.442 166.349 162.898 168.147 162.259 170.259L162.7 170.312L164.476 170.52C165.105 168.692 166.583 167.164 168.568 166.257C168.404 166.334 168.216 166.372 168.039 166.372ZM168.039 166.372C167.642 166.372 167.267 166.195 167.068 165.895L166.792 165.473C166.792 165.473 166.792 165.473 166.792 165.466L166.56 165.128H166.548C164.442 166.349 162.898 168.147 162.259 170.259L162.7 170.312L164.476 170.52C165.105 168.692 166.583 167.164 168.568 166.257C168.404 166.334 168.216 166.372 168.039 166.372ZM168.039 166.372C167.642 166.372 167.267 166.195 167.068 165.895L166.792 165.473L166.56 165.127H166.548C164.442 166.348 162.898 168.145 162.259 170.258L162.7 170.311L164.476 170.519C165.105 168.691 166.583 167.163 168.568 166.256C168.404 166.334 168.216 166.372 168.039 166.372ZM172.648 163.553C171.193 163.553 169.782 163.798 168.513 164.244H168.502C168.16 164.367 167.818 164.498 167.509 164.643C167.31 164.736 167.112 164.827 166.925 164.928C166.804 164.99 166.682 165.058 166.561 165.127H166.55C164.443 166.348 162.899 168.145 162.26 170.258C162.227 170.366 162.194 170.472 162.172 170.58C162.127 170.749 162.084 170.925 162.062 171.102C161.996 171.424 161.963 171.747 161.951 172.078C161.93 172.193 161.93 172.3 161.93 172.423C161.93 177.307 166.749 181.294 172.65 181.294C177.657 181.294 181.87 178.437 183.05 174.588V174.581C183.226 173.998 183.325 173.391 183.359 172.762V172.424C183.357 167.531 178.56 163.553 172.648 163.553ZM172.648 179.451C167.961 179.451 164.156 176.294 164.156 172.424V172.34C164.178 171.71 164.277 171.096 164.476 170.52C165.105 168.692 166.583 167.164 168.568 166.257H168.58C169.782 165.712 171.171 165.396 172.648 165.396C177.336 165.396 181.141 168.553 181.141 172.424V172.501C181.141 173.13 181.031 173.744 180.832 174.321C179.828 177.277 176.543 179.451 172.648 179.451ZM168.039 166.372C167.642 166.372 167.267 166.195 167.068 165.895L166.792 165.473C166.792 165.473 166.792 165.473 166.792 165.466L166.56 165.128H166.548C164.442 166.349 162.898 168.147 162.259 170.259L162.7 170.312L164.476 170.52C165.105 168.692 166.583 167.164 168.568 166.257C168.404 166.334 168.216 166.372 168.039 166.372ZM168.039 166.372C167.642 166.372 167.267 166.195 167.068 165.895L166.792 165.473C166.792 165.473 166.792 165.473 166.792 165.466L166.56 165.128H166.548C164.442 166.349 162.898 168.147 162.259 170.259L162.7 170.312L164.476 170.52C165.105 168.692 166.583 167.164 168.568 166.257C168.404 166.334 168.216 166.372 168.039 166.372Z" fill="white"/>
<path d="M162.172 126.023C161.749 126.023 161.345 125.822 161.159 125.483L151.486 107.848C151.232 107.386 151.481 106.84 152.039 106.63C152.597 106.421 153.257 106.626 153.509 107.088L163.182 124.723C163.436 125.186 163.188 125.731 162.629 125.941C162.481 125.997 162.325 126.023 162.172 126.023Z" fill="white"/>
<path d="M192.094 200.365C190.767 200.925 189.272 201.232 187.685 201.232H187.193C181.829 196.41 174.143 193.076 164.155 191.257C163.431 191.126 162.689 191.003 161.928 190.88C160.165 190.61 158.345 190.38 156.451 190.196C154.631 190.019 152.822 189.888 151.049 189.811H151.04C149.788 189.75 148.553 189.704 147.336 189.688C146.585 189.673 145.833 189.666 145.1 189.666C144.635 189.666 144.181 189.666 143.735 189.673C135.446 189.741 128.541 190.548 125.339 190.978C124.133 191.147 123.446 191.254 123.417 191.262C122.219 191.47 121.041 190.832 120.79 189.834C120.539 188.843 121.309 187.867 122.517 187.661C122.657 187.638 123.473 187.5 124.847 187.316C128.031 186.879 134.185 186.172 141.703 186.018C143.542 185.972 145.472 185.965 147.449 186.002C150.512 186.064 153.714 186.225 156.963 186.539C172.89 188.091 184.752 192.8 192.094 200.365Z" fill="white"/>
<path d="M102.656 199.174L111.872 201.232H103.334L102.285 201.002L74.4021 194.789L73.6879 194.628C73.3258 194.544 73.0386 194.321 72.9261 194.036L72.7313 193.568L67.9873 182.008L62.0572 167.562L61.2969 165.703C61.1021 165.22 61.408 164.697 61.9923 164.536C62.568 164.366 63.1985 164.628 63.4034 165.112L64.0815 166.755L69.9192 180.987L74.3559 191.808L74.8393 192.975L75.8695 193.205L102.656 199.174Z" fill="white"/>
<path d="M146.093 195.549C145.574 196.624 144.85 197.722 143.847 198.79C142.993 199.696 142 200.519 140.876 201.232C140.857 201.256 140.838 201.263 140.82 201.27L140.55 201.232H136.781C136.93 201.164 137.078 201.102 137.227 201.033C137.292 201.002 137.357 200.972 137.422 200.934C137.441 200.934 137.459 200.927 137.468 200.918C139.334 200.043 140.866 198.96 142.072 197.677C143.78 195.872 144.56 193.914 144.894 192.239C145.08 191.257 145.127 190.365 145.099 189.667C145.072 188.669 144.923 188.038 144.923 188.015C144.793 187.523 145.183 187.033 145.777 186.933C146.38 186.825 146.965 187.14 147.096 187.64C147.123 187.724 147.31 188.5 147.337 189.69C147.383 191.171 147.18 193.306 146.093 195.549Z" fill="white"/>
<path d="M164.157 189.19V201.232H161.93V189.19C161.93 188.683 162.43 188.276 163.052 188.276C163.657 188.276 164.157 188.683 164.157 189.19Z" fill="white"/>
<path d="M140.554 201.232H136.98C137.045 201.148 137.138 201.087 137.232 201.033C137.296 201.002 137.361 200.972 137.426 200.934C137.445 200.934 137.464 200.927 137.472 200.918C137.649 200.872 137.843 200.85 138.048 200.88L140.554 201.232Z" fill="white"/>
<path d="M118.284 65.3315L117.405 65.45L91.7114 68.8844L88.3395 69.3325H88.3338L74.3744 71.1996L71.9432 71.5245L60.3024 73.0822L58.0905 73.3762L55.1746 73.7686C55.1125 73.7733 55.062 73.7793 55 73.7793V71.9228L58.7701 71.4225L87.0814 67.6373L89.3005 67.3433L116.54 63.7026L117.929 63.5165C118.534 63.4394 119.106 63.7797 119.2 64.28C119.3 64.7802 118.889 65.2485 118.284 65.3315Z" fill="white"/>
<path d="M71.8687 163.4C70.9251 163.4 70.0508 162.9 69.7506 162.115C69.6713 161.906 62.0373 141.149 85.7127 133.153C109.387 125.16 119.984 141.89 120.088 142.06C120.644 142.966 120.206 144.072 119.113 144.532C118.018 144.992 116.68 144.63 116.125 143.724C115.773 143.16 107.218 129.861 87.3922 136.558C79.0396 139.379 74.2465 144.319 73.1442 151.24C72.3045 156.519 73.9709 160.96 73.9882 161.004C74.3591 161.971 73.7098 163.005 72.5411 163.312C72.3174 163.373 72.0909 163.4 71.8687 163.4Z" fill="white"/>
<path d="M88.5558 135.152C88.2341 135.152 87.9152 135.037 87.6959 134.816C87.3063 134.423 87.3756 133.843 87.8503 133.521L110.748 117.989L71.5448 71.0469C71.1957 70.6284 71.3226 70.0558 71.8276 69.7678C72.3326 69.4797 73.0252 69.584 73.3729 70.0013L113.159 117.641C113.488 118.035 113.397 118.572 112.95 118.875L89.2599 134.944C89.0536 135.083 88.804 135.152 88.5558 135.152Z" fill="white"/>
<path d="M92.355 95.2627C92.0189 95.2627 91.687 95.137 91.4677 94.8976C91.0969 94.4921 91.1936 93.916 91.6827 93.6089L112.995 80.2615C113.484 79.9557 114.181 80.0351 114.552 80.4393C114.922 80.8448 114.826 81.4209 114.337 81.728L93.0245 95.0766C92.824 95.2022 92.5873 95.2627 92.355 95.2627Z" fill="white"/>
<path d="M71.4948 82.4786C68.9973 82.4786 66.7594 82.0174 64.7972 81.0963C59.0186 78.3827 57.8903 72.7113 57.8456 72.4707C57.7504 71.9692 58.1659 71.4986 58.7719 71.4203C59.3779 71.3421 59.9449 71.6847 60.0402 72.1861C60.0517 72.243 61.0703 77.2411 65.9096 79.5042C69.4243 81.1472 74.1309 81.0038 79.8993 79.0774C80.4692 78.8865 81.1156 79.1141 81.345 79.586C81.5744 80.0566 81.3003 80.5936 80.7304 80.7833C77.3484 81.9131 74.2622 82.4786 71.4948 82.4786Z" fill="white"/>
<path d="M85.4423 86.6585L84.7065 86.8031L74.119 88.8446L71.9446 89.2678L66.3854 90.3406L64.2038 90.7579L55.2496 92.4911C55.163 92.5113 55.088 92.5172 55 92.5172V90.65L64.6973 88.7782C64.7218 88.7734 64.7406 88.7734 64.7593 88.7675L83.3488 85.179L84.9373 84.8696C85.4048 84.7771 85.8723 84.9467 86.1219 85.2667C86.1911 85.3545 86.2402 85.4529 86.2719 85.556C86.409 86.0504 86.0411 86.5459 85.4423 86.6585Z" fill="white"/>
<path d="M93.6538 112.028C91.4333 112.028 89.6471 109.662 87.9114 107.362C86.4354 105.407 84.5972 102.977 83.2626 103.267C78.3829 104.339 73.2782 92.5942 71.8296 88.9702C71.6377 88.4877 71.9537 87.9685 72.5351 87.8084C73.1166 87.6508 73.7457 87.9116 73.939 88.3929C76.878 95.7488 80.9714 101.86 82.6927 101.49C85.6144 100.85 87.7397 103.666 89.7957 106.387C91.1101 108.129 92.9122 110.516 93.9366 110.126C97.662 108.718 102.387 106.344 102.435 106.319C102.959 106.055 103.643 106.193 103.961 106.626C104.28 107.06 104.114 107.625 103.591 107.889C103.393 107.989 98.7066 110.345 94.8601 111.799C94.4431 111.956 94.042 112.028 93.6538 112.028Z" fill="white"/>
<path d="M72.0572 148.357L69.2032 148.765L55.1876 150.76C55.1255 150.771 55.0635 150.776 55 150.776V148.924L69.8193 146.81L71.682 146.542C72.2808 146.459 72.8594 146.795 72.9662 147.295C73.0657 147.795 72.6617 148.27 72.0572 148.357Z" fill="white"/>
<path d="M75.5099 143.03C75.3108 143.144 75.0929 143.199 74.8678 143.199C74.5186 143.199 74.1767 143.065 73.9574 142.808L72.8291 141.493L61.4942 128.221C61.4509 128.179 61.4134 128.138 61.3816 128.091L55 120.625V118.108C55.3492 118.108 55.6853 118.247 55.9032 118.501L61.9299 125.55L63.5372 127.432L74.2185 139.932L75.7696 141.752C76.126 142.164 76.0076 142.736 75.5099 143.03Z" fill="white"/>
<path d="M84.1591 136.68C83.6974 136.68 83.2674 136.442 83.1087 136.061L63.8815 89.9779C63.6809 89.4978 63.9897 88.9738 64.5697 88.809C65.1512 88.643 65.7832 88.8979 65.9823 89.378L85.2094 135.46C85.41 135.94 85.1012 136.464 84.5212 136.629C84.4015 136.664 84.2788 136.68 84.1591 136.68Z" fill="white"/>
<path d="M62.3436 128.545C62.2844 128.545 62.2253 128.542 62.1661 128.533C61.5616 128.453 61.1489 127.985 61.2441 127.483C61.2788 127.305 62.1271 123.094 66.4917 120.728C69.5289 119.082 73.4447 118.758 78.1325 119.766C78.7269 119.892 79.0833 120.395 78.9289 120.887C78.7745 121.379 78.1671 121.674 77.5741 121.546C73.5299 120.678 70.2157 120.917 67.7282 122.257C64.1875 124.165 63.4459 127.738 63.4387 127.774C63.3507 128.224 62.8789 128.545 62.3436 128.545Z" fill="white"/>
<path d="M71.7195 106.15L70.7168 106.372L55.2871 109.781C55.1876 109.802 55.0996 109.812 55 109.812V107.945L69.9939 104.629L71.1467 104.372C71.682 104.258 72.2245 104.48 72.4424 104.877C72.4669 104.923 72.4857 104.975 72.5044 105.026C72.6675 105.516 72.3125 106.022 71.7195 106.15Z" fill="white"/>
</g>
</g>
<defs>
<filter id="filter0_d_816_19582" x="39" y="40.4121" width="174.488" height="180.858" filterUnits="userSpaceOnUse" color-interpolation-filters="sRGB">
<feFlood flood-opacity="0" result="BackgroundImageFix"/>
<feColorMatrix in="SourceAlpha" type="matrix" values="0 0 0 0 0 0 0 0 0 0 0 0 0 0 0 0 0 0 127 0" result="hardAlpha"/>
<feOffset dy="4"/>
<feGaussianBlur stdDeviation="8"/>
<feComposite in2="hardAlpha" operator="out"/>
<feColorMatrix type="matrix" values="0 0 0 0 0 0 0 0 0 0 0 0 0 0 0 0 0 0 0.15 0"/>
<feBlend mode="normal" in2="BackgroundImageFix" result="effect1_dropShadow_816_19582"/>
<feBlend mode="normal" in="SourceGraphic" in2="effect1_dropShadow_816_19582" result="shape"/>
</filter>
<clipPath id="clip0_816_19582">
<rect width="142.487" height="148.858" fill="white" transform="translate(55 52.4121)"/>
</clipPath>
</defs>
</svg>
