<svg width="26" height="26" viewBox="0 0 26 26" fill="none" xmlns="http://www.w3.org/2000/svg">
<path d="M6.37292 15.5467C6.37292 15.5467 12.5191 9.68402 15.5921 6.75215C14.331 5.01764 14.7167 2.71067 16.1429 1.66739C17.9002 0.382292 20.5114 1.01361 21.3033 3.0413C21.4179 3.33342 21.5658 3.90695 21.3033 4.75869C21.4929 4.72766 22.8987 4.52543 23.9863 5.51413C24.9914 6.42793 25.3043 7.97626 24.6742 9.22391C24.1438 10.2747 23.008 10.9937 21.9912 10.9413C21.0461 10.8931 19.5792 10.2308 19.5792 10.2308L18.4177 11.4271C18.4177 11.4271 14.3578 15.4268 10.57 19.3239C10.7243 19.739 10.9868 20.7631 10.914 21.7978C10.8732 22.3724 10.6129 23.9453 9.26276 24.6836C8.21055 25.2593 6.44685 25.0603 5.47821 23.9967C4.46564 22.8839 4.68851 21.4393 4.72173 21.2489C4.54171 21.2884 3.27948 21.5463 2.17583 20.6989C0.893237 19.7155 0.996102 18.1372 1.00575 18.0206C1.12361 16.6135 2.17369 15.8506 2.31298 15.7532C3.65022 14.8169 6.24755 15.4996 6.37184 15.5467" fill="white"/>
<path d="M6.37292 15.5467C6.37292 15.5467 12.5191 9.68402 15.5921 6.75215C14.331 5.01764 14.7167 2.71067 16.1429 1.66739C17.9002 0.382292 20.5114 1.01361 21.3033 3.0413C21.4179 3.33342 21.5658 3.90695 21.3033 4.75869C21.4929 4.72766 22.8987 4.52543 23.9863 5.51413C24.9914 6.42793 25.3043 7.97626 24.6742 9.22391C24.1438 10.2747 23.008 10.9937 21.9912 10.9413C21.0461 10.8931 19.5792 10.2308 19.5792 10.2308L18.4177 11.4271C18.4177 11.4271 14.3578 15.4268 10.57 19.3239C10.7243 19.739 10.9868 20.7631 10.914 21.7978C10.8732 22.3724 10.6129 23.9453 9.26277 24.6836C8.21055 25.2593 6.44685 25.0603 5.47821 23.9967C4.46564 22.8839 4.68851 21.4393 4.72173 21.2489C4.54171 21.2884 3.27948 21.5463 2.17583 20.6989C0.893237 19.7155 0.996102 18.1372 1.00575 18.0206C1.12361 16.6135 2.17369 15.8506 2.31298 15.7532C3.65022 14.8169 6.24755 15.4996 6.37184 15.5467" stroke="#231815" stroke-width="2" stroke-miterlimit="10" stroke-linecap="round"/>
</svg>
