<svg width="171" height="171" viewBox="0 0 171 171" fill="none" xmlns="http://www.w3.org/2000/svg">
<circle cx="85.5" cy="85.5" r="85.5" fill="#C4C4C4"/>
<path d="M70.0861 76.4468C77.0033 75.5597 81.5401 66.5415 80.2193 56.3041C78.8985 46.0668 72.2203 38.487 65.303 39.3741C58.3858 40.2613 53.849 49.2795 55.1698 59.5168C56.4906 69.7542 63.1688 77.334 70.0861 76.4468Z" fill="#ECECEC" stroke="#ECECEC" stroke-width="1.5" stroke-miterlimit="10"/>
<path d="M44.8724 100.104C51.6201 98.1912 54.8074 88.6346 51.9914 78.7586C49.1754 68.8826 41.4225 62.427 34.6748 64.3396C27.9271 66.2522 24.7399 75.8088 27.5559 85.6849C30.3719 95.5609 38.1247 102.017 44.8724 100.104Z" fill="#ECECEC" stroke="#ECECEC" stroke-width="1.5" stroke-miterlimit="10"/>
<path d="M114.894 59.935C116.566 49.7557 112.337 40.5919 105.447 39.467C98.5582 38.3422 91.618 45.6824 89.9461 55.8617C88.2743 66.041 92.5038 75.2048 99.393 76.3296C106.282 77.4545 113.222 70.1143 114.894 59.935Z" fill="#ECECEC" stroke="#ECECEC" stroke-width="1.5" stroke-miterlimit="10"/>
<path d="M140.521 90.868C144.76 81.6153 142.978 71.7381 136.542 68.8066C130.105 65.8752 121.451 70.9996 117.212 80.2523C112.973 89.505 114.754 99.3823 121.191 102.314C127.627 105.245 136.282 100.121 140.521 90.868Z" fill="#ECECEC" stroke="#ECECEC" stroke-width="1.5" stroke-miterlimit="10"/>
<path d="M120.014 126.013C120.014 142.648 96.9043 131.545 84.5724 131.545C71.0073 131.545 50.043 142.648 50.043 126.013C50.043 109.377 72.6967 95.8887 84.5724 95.8887C98.1375 95.8887 120.014 109.377 120.014 126.013Z" fill="#ECECEC" stroke="#ECECEC" stroke-width="1.5" stroke-miterlimit="10"/>
</svg>
