<svg width="322" height="121" viewBox="0 0 403 151" fill="none" xmlns="http://www.w3.org/2000/svg">
<path d="M127.528 54.344C127.528 51.08 128.072 48.296 129.16 45.992C130.312 43.624 131.848 41.704 133.768 40.232C135.688 38.696 137.928 37.576 140.488 36.872C143.112 36.168 145.896 35.816 148.84 35.816C153.576 35.816 157.064 36.456 159.304 37.736C161.544 38.952 162.664 41.064 162.664 44.072C162.664 45.352 162.376 46.504 161.8 47.528C161.288 48.552 160.712 49.32 160.072 49.832C158.856 49.512 157.576 49.256 156.232 49.064C154.952 48.808 153.448 48.68 151.72 48.68C148.968 48.68 146.824 49.16 145.288 50.12C143.752 51.016 142.984 52.616 142.984 54.92V57.992H158.728C159.112 58.696 159.464 59.592 159.784 60.68C160.168 61.704 160.36 62.856 160.36 64.136C160.36 66.376 159.848 68.008 158.824 69.032C157.864 69.992 156.552 70.472 154.888 70.472H143.848V100.904C143.208 101.096 142.184 101.288 140.776 101.48C139.432 101.672 138.024 101.768 136.552 101.768C135.144 101.768 133.864 101.672 132.712 101.48C131.624 101.288 130.696 100.904 129.928 100.328C129.16 99.752 128.552 98.984 128.104 98.024C127.72 97 127.528 95.688 127.528 94.088V54.344ZM214.718 77.672C214.718 81.64 214.11 85.192 212.894 88.328C211.678 91.4 209.95 93.992 207.71 96.104C205.534 98.216 202.91 99.816 199.838 100.904C196.766 101.992 193.342 102.536 189.566 102.536C185.79 102.536 182.366 101.96 179.294 100.808C176.222 99.656 173.566 98.024 171.326 95.912C169.15 93.736 167.454 91.112 166.238 88.04C165.022 84.968 164.414 81.512 164.414 77.672C164.414 73.896 165.022 70.472 166.238 67.4C167.454 64.328 169.15 61.736 171.326 59.624C173.566 57.448 176.222 55.784 179.294 54.632C182.366 53.48 185.79 52.904 189.566 52.904C193.342 52.904 196.766 53.512 199.838 54.728C202.91 55.88 205.534 57.544 207.71 59.72C209.95 61.832 211.678 64.424 212.894 67.496C214.11 70.568 214.718 73.96 214.718 77.672ZM181.118 77.672C181.118 81.576 181.854 84.584 183.326 86.696C184.862 88.744 186.974 89.768 189.661 89.768C192.35 89.768 194.398 88.712 195.806 86.6C197.278 84.488 198.014 81.512 198.014 77.672C198.014 73.832 197.278 70.888 195.806 68.84C194.334 66.728 192.254 65.672 189.566 65.672C186.878 65.672 184.798 66.728 183.326 68.84C181.854 70.888 181.118 73.832 181.118 77.672ZM239 100.904C238.36 101.096 237.336 101.288 235.928 101.48C234.584 101.672 233.176 101.768 231.704 101.768C230.296 101.768 229.016 101.672 227.864 101.48C226.776 101.288 225.848 100.904 225.08 100.328C224.312 99.752 223.704 98.984 223.256 98.024C222.872 97 222.68 95.688 222.68 94.088V65.288C222.68 63.816 222.936 62.568 223.448 61.544C224.024 60.456 224.824 59.496 225.848 58.664C226.872 57.832 228.12 57.096 229.592 56.456C231.128 55.752 232.76 55.144 234.488 54.632C236.216 54.12 238.008 53.736 239.864 53.48C241.72 53.16 243.576 53 245.432 53C248.504 53 250.936 53.608 252.728 54.824C254.52 55.976 255.416 57.896 255.416 60.584C255.416 61.48 255.288 62.376 255.032 63.272C254.776 64.104 254.456 64.872 254.072 65.576C252.728 65.576 251.352 65.64 249.944 65.768C248.536 65.896 247.16 66.088 245.816 66.344C244.472 66.6 243.192 66.888 241.976 67.208C240.824 67.464 239.832 67.784 239 68.168V100.904ZM285.188 69.8C287.876 69.8 289.924 69.192 291.332 67.976C292.804 66.696 293.54 64.776 293.54 62.216C293.54 59.784 292.772 57.928 291.236 56.648C289.764 55.304 287.588 54.632 284.708 54.632C283.684 54.632 282.82 54.664 282.116 54.728C281.476 54.728 280.804 54.792 280.1 54.92V69.8H285.188ZM280.196 100.616C279.492 100.808 278.372 101 276.836 101.192C275.364 101.384 273.892 101.48 272.42 101.48C270.948 101.48 269.636 101.352 268.484 101.096C267.396 100.904 266.468 100.52 265.7 99.944C264.932 99.368 264.356 98.568 263.972 97.544C263.588 96.52 263.396 95.176 263.396 93.512V48.296C263.396 46.952 263.748 45.928 264.452 45.224C265.22 44.456 266.244 43.848 267.524 43.4C269.7 42.632 272.164 42.088 274.916 41.768C277.732 41.384 280.548 41.192 283.364 41.192C292.196 41.192 298.948 43.08 303.62 46.856C308.292 50.632 310.628 55.752 310.628 62.216C310.628 65.352 310.116 68.2 309.092 70.76C308.132 73.256 306.66 75.432 304.676 77.288C302.756 79.08 300.292 80.488 297.284 81.512C294.34 82.472 290.916 82.952 287.012 82.952H280.196V100.616ZM341.195 102.536C337.419 102.536 333.899 102.024 330.635 101C327.435 99.912 324.619 98.312 322.187 96.2C319.819 94.088 317.931 91.432 316.523 88.232C315.179 85.032 314.507 81.288 314.507 77C314.507 72.776 315.179 69.16 316.523 66.152C317.931 63.08 319.755 60.584 321.995 58.664C324.235 56.68 326.795 55.24 329.675 54.344C332.555 53.384 335.499 52.904 338.507 52.904C341.899 52.904 344.971 53.416 347.723 54.44C350.539 55.464 352.939 56.872 354.923 58.664C356.971 60.456 358.539 62.6 359.627 65.096C360.779 67.592 361.355 70.312 361.355 73.256C361.355 75.432 360.747 77.096 359.531 78.248C358.315 79.4 356.619 80.136 354.443 80.456L330.731 84.008C331.435 86.12 332.875 87.72 335.051 88.808C337.227 89.832 339.723 90.344 342.539 90.344C345.163 90.344 347.627 90.024 349.931 89.384C352.299 88.68 354.219 87.88 355.691 86.984C356.715 87.624 357.579 88.52 358.283 89.672C358.987 90.824 359.339 92.04 359.339 93.32C359.339 96.2 357.995 98.344 355.307 99.752C353.259 100.84 350.955 101.576 348.395 101.96C345.835 102.344 343.435 102.536 341.195 102.536ZM338.507 64.808C336.971 64.808 335.627 65.064 334.475 65.576C333.387 66.088 332.491 66.76 331.787 67.592C331.083 68.36 330.539 69.256 330.155 70.28C329.835 71.24 329.643 72.232 329.579 73.256L345.995 70.568C345.803 69.288 345.099 68.008 343.883 66.728C342.667 65.448 340.875 64.808 338.507 64.808ZM385.531 84.968C385.531 86.632 386.043 87.816 387.067 88.52C388.155 89.224 389.659 89.576 391.579 89.576C392.539 89.576 393.531 89.512 394.555 89.384C395.579 89.192 396.475 88.968 397.243 88.712C397.819 89.416 398.299 90.216 398.683 91.112C399.131 91.944 399.355 92.968 399.355 94.184C399.355 96.616 398.427 98.6 396.571 100.136C394.779 101.672 391.579 102.44 386.971 102.44C381.339 102.44 376.987 101.16 373.915 98.6C370.907 96.04 369.403 91.88 369.403 86.12V45.032C370.107 44.84 371.099 44.648 372.379 44.456C373.723 44.2 375.131 44.072 376.603 44.072C379.419 44.072 381.595 44.584 383.131 45.608C384.731 46.568 385.531 48.648 385.531 51.848V57.992H398.107C398.491 58.696 398.843 59.592 399.163 60.68C399.547 61.704 399.739 62.856 399.739 64.136C399.739 66.376 399.227 68.008 398.203 69.032C397.243 69.992 395.931 70.472 394.267 70.472H385.531V84.968Z" fill="black"/>
<path d="M37.3628 60.5961C42.7884 59.9002 46.347 52.8266 45.311 44.7968C44.275 36.7669 39.0368 30.8215 33.6111 31.5174C28.1855 32.2132 24.6269 39.2868 25.6629 47.3167C26.6989 55.3466 31.9371 61.292 37.3628 60.5961Z" fill="#6A8D4E" stroke="black" stroke-width="3" stroke-miterlimit="10"/>
<path d="M17.582 79.1564C22.8746 77.6561 25.3746 70.1602 23.1658 62.4138C20.9571 54.6673 14.8759 49.6037 9.58324 51.1039C4.29056 52.6042 1.79057 60.1001 3.99936 67.8465C6.20815 75.593 12.2893 80.6566 17.582 79.1564Z" fill="#6A8D4E" stroke="black" stroke-width="3" stroke-miterlimit="10"/>
<path d="M72.5026 47.6521C73.814 39.6678 70.4965 32.4799 65.0928 31.5977C59.689 30.7154 54.2454 36.4728 52.934 44.4571C51.6226 52.4415 54.9402 59.6293 60.3439 60.5116C65.7476 61.3938 71.1913 55.6365 72.5026 47.6521Z" fill="#6A8D4E" stroke="black" stroke-width="3" stroke-miterlimit="10"/>
<path d="M92.6042 71.9103C95.9291 64.6527 94.5317 56.9053 89.483 54.606C84.4343 52.3067 77.6461 56.3261 74.3211 63.5836C70.9962 70.8412 72.3936 78.5886 77.4423 80.8879C82.491 83.1872 89.2792 79.1678 92.6042 71.9103Z" fill="#6A8D4E" stroke="black" stroke-width="3" stroke-miterlimit="10"/>
<path d="M76.5241 99.4759C76.5241 112.524 58.3973 103.816 48.7245 103.816C38.0844 103.816 21.6406 112.524 21.6406 99.4759C21.6406 86.4273 39.4096 75.8477 48.7245 75.8477C59.3646 75.8477 76.5241 86.4273 76.5241 99.4759Z" fill="#6A8D4E" stroke="black" stroke-width="3" stroke-miterlimit="10"/>
</svg>
