<svg width="83" height="83" viewBox="0 0 83 83" fill="none" xmlns="http://www.w3.org/2000/svg">
<g filter="url(#filter0_d_967_28745)">
<circle cx="41.5" cy="37.5" r="30.5" fill="#676767"/>
</g>
<path d="M54.625 20.625H28.375C26.3039 20.625 24.625 22.3039 24.625 24.375V50.625C24.625 52.6961 26.3039 54.375 28.375 54.375H54.625C56.6961 54.375 58.375 52.6961 58.375 50.625V24.375C58.375 22.3039 56.6961 20.625 54.625 20.625Z" stroke="white" stroke-width="2" stroke-linecap="round" stroke-linejoin="round"/>
<path d="M34.9375 33.75C36.4908 33.75 37.75 32.4908 37.75 30.9375C37.75 29.3842 36.4908 28.125 34.9375 28.125C33.3842 28.125 32.125 29.3842 32.125 30.9375C32.125 32.4908 33.3842 33.75 34.9375 33.75Z" stroke="white" stroke-width="2" stroke-linecap="round" stroke-linejoin="round"/>
<path d="M58.375 43.125L49 33.75L28.375 54.375" stroke="white" stroke-width="2" stroke-linecap="round" stroke-linejoin="round"/>
<defs>
<filter id="filter0_d_967_28745" x="0" y="0" width="83" height="83" filterUnits="userSpaceOnUse" color-interpolation-filters="sRGB">
<feFlood flood-opacity="0" result="BackgroundImageFix"/>
<feColorMatrix in="SourceAlpha" type="matrix" values="0 0 0 0 0 0 0 0 0 0 0 0 0 0 0 0 0 0 127 0" result="hardAlpha"/>
<feOffset dy="4"/>
<feGaussianBlur stdDeviation="5.5"/>
<feComposite in2="hardAlpha" operator="out"/>
<feColorMatrix type="matrix" values="0 0 0 0 0 0 0 0 0 0 0 0 0 0 0 0 0 0 0.25 0"/>
<feBlend mode="normal" in2="BackgroundImageFix" result="effect1_dropShadow_967_28745"/>
<feBlend mode="normal" in="SourceGraphic" in2="effect1_dropShadow_967_28745" result="shape"/>
</filter>
</defs>
</svg>
