<svg width="1727" height="920" viewBox="0 0 1727 920" fill="none" xmlns="http://www.w3.org/2000/svg">
<rect width="1727" height="920" fill="#EAF5E8"/>
<mask id="mask0_948_28743" style="mask-type:alpha" maskUnits="userSpaceOnUse" x="0" y="0" width="1727" height="920">
<rect width="1727" height="920" fill="#EAF5E8"/>
</mask>
<g mask="url(#mask0_948_28743)">
<rect x="347" y="380" width="262" height="262" rx="131" fill="#CDE7AC" fill-opacity="0.47"/>
<rect x="396" y="785" width="82" height="82" rx="41" fill="#CDE7AC" fill-opacity="0.47"/>
<rect x="1404" y="107" width="238" height="238" rx="119" fill="#CDE7AC" fill-opacity="0.47"/>
<rect x="1098" y="86" width="85" height="85" rx="42.5" fill="#CDE7AC" fill-opacity="0.47"/>
<path d="M169.839 746.646H197.764L220.522 964.022H146.722L169.839 746.646Z" fill="#93642D"/>
<path d="M169.638 746.646H197.38L209.442 863.645H157.577L169.638 746.646Z" fill="#714D22"/>
<path d="M267.501 843.787C295.339 846.593 276.895 813.115 263.438 783.346C249.982 753.577 220.869 697.576 176.182 697.576C139.564 697.576 70.1754 828.976 86.4251 841.339C99.4249 851.229 129.94 843.468 150.252 827.9C156.346 841.637 165.546 848.066 180.171 849.165C194.796 850.264 203.326 840.263 214.836 827.9C218.898 832.479 243.215 841.339 267.501 843.787Z" fill="#66A865"/>
<path fill-rule="evenodd" clip-rule="evenodd" d="M262.252 780.017C245.472 746.991 216.465 703.225 175.287 703.225C154.108 703.225 122.838 743.684 100.887 783.551C115.827 782.04 133.562 774.851 147.115 764.463C153.736 779.388 164.605 794.906 180.494 796.1C196.383 797.294 208.236 781.723 217.284 764.463C221.01 768.663 240.419 776.177 262.252 780.017Z" fill="#458244"/>
<path d="M267.501 768.146C294.143 776.691 276.895 737.474 263.438 707.705C249.982 677.936 220.869 621.936 176.182 621.936C139.564 621.936 70.1754 753.335 86.4251 765.698C99.4249 775.588 129.94 751.347 150.252 735.779C156.346 749.516 165.546 772.426 180.171 773.525C194.796 774.624 203.326 748.142 214.836 735.779C218.898 740.358 243.215 760.357 267.501 768.146Z" fill="#83C082"/>
<path fill-rule="evenodd" clip-rule="evenodd" d="M249.691 677.108C256.139 690.839 260.858 700.889 260.101 700.813C239.461 698.74 215.53 689.628 212.078 685.75C205.001 699.205 194.129 707.774 181.7 706.844C169.271 705.913 157.93 695.561 152.751 683.926C135.489 697.112 103.462 702.019 105.711 698.401C109.558 692.213 113.152 685.376 116.575 678.189C137.159 645.217 162.231 616.381 180.112 616.381C201.714 616.381 219.967 628.426 234.861 644.647C235.629 646.581 236.4 648.425 237.184 650.154C241.44 659.537 245.869 668.969 249.691 677.108Z" fill="#458244"/>
<path d="M258.895 679.1C278.194 685.733 263.793 651.514 252.865 627.234C241.937 602.954 214.36 564.668 178.161 562.095C144.309 559.689 88.8967 665.398 102.093 675.481C112.65 683.548 140.608 667.645 157.103 654.947C162.052 666.151 169.524 684.837 181.401 685.733C193.277 686.629 200.204 665.031 209.552 654.947C212.851 658.682 241.687 673.185 258.895 679.1Z" fill="#66A865"/>
<path fill-rule="evenodd" clip-rule="evenodd" d="M243.327 608.947C247.255 615.877 249.66 620.119 249.246 620.001C248.351 619.745 247.247 619.436 245.984 619.083C235.34 616.108 213.388 609.974 209.443 605.526C207.032 608.55 204.854 611.36 202.861 613.932C194.031 625.326 188.811 632.062 182.907 632.062C175.495 632.062 171.087 625.692 165.479 617.587C162.851 613.789 159.959 609.61 156.371 605.526C134.303 622.441 118.98 621.207 118.98 621.207C118.98 621.207 127.131 591.007 141.409 563.694C154.408 548.987 167.276 539.186 177.701 539.186C190.518 539.186 202.155 543.426 212.612 550.262C212.761 550.588 212.911 550.916 213.061 551.249C222.669 572.504 235.797 595.663 243.327 608.947Z" fill="#458244"/>
<path d="M240.714 603.017C257.045 612.414 247.008 582.036 237.992 561.672C228.977 541.308 209.471 503 179.532 503C154.998 503 108.509 592.885 119.396 601.342C128.105 608.108 148.55 591.526 162.159 580.876C166.242 590.273 172.406 605.944 182.204 606.696C192.003 607.448 197.717 589.333 205.429 580.876C208.151 584.008 227.649 595.5 240.714 603.017Z" fill="#83C082"/>
<path d="M1526.91 784.707H1545.89L1561.36 932.478H1511.19L1526.91 784.707Z" fill="#93642D"/>
<path d="M1526.77 784.707H1545.63L1553.83 864.242H1518.57L1526.77 784.707Z" fill="#714D22"/>
<path fill-rule="evenodd" clip-rule="evenodd" d="M1452.34 714.968C1452.34 692.94 1470.2 675.082 1492.22 675.082C1514.25 675.082 1532.11 692.94 1532.11 714.968V717.817C1532.11 719.314 1532.03 720.792 1531.87 722.246C1548.47 727.071 1560.6 742.395 1560.6 760.552V763.401C1560.6 785.43 1542.74 803.287 1520.72 803.287C1508.8 803.287 1498.11 798.064 1490.8 789.784C1483.49 798.064 1472.8 803.287 1460.89 803.287C1438.86 803.287 1421 785.43 1421 763.401V760.552C1421 741.396 1434.5 725.395 1452.51 721.547C1452.4 720.319 1452.34 719.075 1452.34 717.817V714.968Z" fill="#66A865"/>
<path fill-rule="evenodd" clip-rule="evenodd" d="M1542.02 836.64C1528.5 852.901 1504.36 855.124 1488.09 841.604C1471.83 828.084 1469.61 803.941 1483.13 787.679L1484.88 785.576C1485.8 784.471 1486.77 783.431 1487.78 782.456C1478.48 768.705 1478.93 749.947 1490.08 736.543L1491.82 734.44C1505.34 718.179 1529.49 715.956 1545.75 729.476C1554.54 736.788 1559.23 747.206 1559.54 757.805C1570.02 756.177 1581.12 758.885 1589.92 766.197C1606.18 779.717 1608.4 803.859 1594.88 820.121L1593.13 822.224C1581.37 836.365 1561.58 839.89 1545.93 831.678C1545.26 832.654 1544.54 833.608 1543.77 834.537L1542.02 836.64Z" fill="#66A865"/>
<path fill-rule="evenodd" clip-rule="evenodd" d="M1532.46 701.783C1532.46 679.693 1550.7 661.785 1572.79 661.785C1594.88 661.785 1613.12 679.693 1613.12 701.783V705.326C1613.12 706.732 1613.04 708.12 1612.9 709.488C1629.58 714.356 1641.92 729.699 1641.92 747.874V751.417C1641.92 773.507 1623.69 791.415 1601.6 791.415C1589.62 791.415 1578.77 786.148 1571.35 777.804C1563.93 786.148 1553.08 791.415 1541.1 791.415C1519.01 791.415 1500.77 773.507 1500.77 751.417V747.874C1500.77 728.692 1514.52 712.664 1532.61 708.776C1532.51 707.639 1532.46 706.488 1532.46 705.326V701.783Z" fill="#66A865"/>
<path fill-rule="evenodd" clip-rule="evenodd" d="M1517.77 645.099C1517.77 623.009 1536.01 605.102 1558.1 605.102C1580.19 605.102 1598.43 623.009 1598.43 645.099V648.643C1598.43 650.048 1598.36 651.436 1598.21 652.804C1614.89 657.673 1627.24 673.016 1627.24 691.19V694.733C1627.24 716.824 1609 734.731 1586.91 734.731C1574.93 734.731 1564.08 729.464 1556.66 721.12C1549.24 729.464 1538.39 734.731 1526.41 734.731C1504.32 734.731 1486.08 716.824 1486.08 694.733V691.19C1486.08 672.008 1499.84 655.98 1517.92 652.092C1517.82 650.955 1517.77 649.805 1517.77 648.643V645.099Z" fill="#66A865"/>
<path fill-rule="evenodd" clip-rule="evenodd" d="M1460.12 662.007C1460.12 643.731 1474.93 628.916 1493.21 628.916C1511.49 628.916 1526.3 643.731 1526.3 662.007V664.37C1526.3 665.612 1526.23 666.838 1526.1 668.045C1539.87 672.048 1549.94 684.761 1549.94 699.824V702.188C1549.94 720.464 1535.12 735.279 1516.85 735.279C1506.96 735.279 1498.09 730.946 1492.03 724.076C1485.96 730.946 1477.09 735.279 1467.21 735.279C1448.93 735.279 1434.12 720.464 1434.12 702.188V699.824C1434.12 683.932 1445.32 670.657 1460.26 667.465C1460.17 666.446 1460.12 665.414 1460.12 664.37V662.007Z" fill="#66A865"/>
<path fill-rule="evenodd" clip-rule="evenodd" d="M1566.44 630.114C1578.99 643.397 1578.4 664.341 1565.11 676.893C1551.83 689.444 1530.89 688.851 1518.33 675.568L1516.71 673.85C1515.86 672.947 1515.07 672.009 1514.33 671.041C1501.57 677.59 1485.53 675.263 1475.18 664.314L1473.56 662.596C1461.01 649.313 1461.6 628.369 1474.88 615.818C1482.07 609.03 1491.49 606.086 1500.61 606.915C1500.3 597.757 1503.78 588.515 1510.96 581.727C1524.24 569.175 1545.19 569.768 1557.74 583.052L1559.36 584.77C1570.28 596.321 1571.25 613.664 1562.58 626.245C1563.35 626.921 1564.1 627.638 1564.81 628.396L1566.44 630.114Z" fill="#83C082"/>
<path fill-rule="evenodd" clip-rule="evenodd" d="M1638.36 732.221C1632.47 740.902 1623.25 747.182 1612.59 749.253C1611.37 755.26 1608.69 761.06 1604.5 766.103L1602.75 768.206C1590.99 782.347 1571.2 785.872 1555.55 777.66C1554.88 778.636 1554.16 779.591 1553.39 780.519L1551.64 782.622C1538.12 798.884 1513.98 801.106 1497.71 787.586C1488.19 779.671 1483.49 768.115 1483.93 756.631C1478.1 759.961 1471.36 761.864 1464.17 761.864C1448.13 761.864 1434.31 752.403 1427.97 738.76C1423.57 745.171 1421 752.933 1421 761.295V764.144C1421 786.173 1438.86 804.03 1460.89 804.03C1466.3 804.03 1471.46 802.951 1476.17 800.997C1471.44 815.478 1475.67 832.015 1488.09 842.347C1504.36 855.867 1528.5 853.645 1542.02 837.383L1543.77 835.28C1544.54 834.352 1545.26 833.398 1545.93 832.421C1561.58 840.633 1581.37 837.108 1593.13 822.968L1594.88 820.864C1601.81 812.523 1604.61 802.107 1603.49 792.115C1624.72 791.128 1641.92 773.618 1641.92 752.162V748.618C1641.92 742.775 1640.65 737.225 1638.36 732.221Z" fill="#458244"/>
<rect x="27" y="64" width="214" height="214" rx="107" fill="#CDE7AC" fill-opacity="0.47"/>
<rect x="1153" y="828" width="188" height="188" rx="94" fill="#CDE7AC" fill-opacity="0.47"/>
</g>
</svg>
