<svg width="49" height="40" viewBox="0 0 49 40" fill="none" xmlns="http://www.w3.org/2000/svg">
<path d="M18.3523 16.0314C21.0175 15.6896 22.7655 12.2149 22.2566 8.27041C21.7477 4.32596 19.1746 1.40546 16.5094 1.74728C13.8442 2.08911 12.0961 5.56382 12.605 9.50826C13.1139 13.4527 15.6871 16.3732 18.3523 16.0314Z" fill="#6A8D4E" stroke="black" stroke-width="1.5" stroke-miterlimit="10"/>
<path d="M8.63664 25.1458C11.2365 24.4089 12.4646 20.7267 11.3796 16.9215C10.2946 13.1163 7.30737 10.6289 4.7075 11.3659C2.10762 12.1028 0.87957 15.7849 1.96457 19.5902C3.04958 23.3954 6.03677 25.8828 8.63664 25.1458Z" fill="#6A8D4E" stroke="black" stroke-width="1.5" stroke-miterlimit="10"/>
<path d="M35.6148 9.67101C36.259 5.74892 34.6294 2.2181 31.975 1.78471C29.3205 1.35131 26.6465 4.17946 26.0023 8.10155C25.3581 12.0236 26.9878 15.5545 29.6422 15.9879C32.2966 16.4212 34.9707 13.5931 35.6148 9.67101Z" fill="#6A8D4E" stroke="black" stroke-width="1.5" stroke-miterlimit="10"/>
<path d="M45.4891 21.5872C47.1224 18.0222 46.436 14.2165 43.956 13.087C41.4759 11.9575 38.1414 13.9319 36.5081 17.497C34.8748 21.0621 35.5613 24.8678 38.0413 25.9973C40.5213 27.1267 43.8559 25.1523 45.4891 21.5872Z" fill="#6A8D4E" stroke="black" stroke-width="1.5" stroke-miterlimit="10"/>
<path d="M37.5889 35.1272C37.5889 41.537 28.6846 37.2591 23.9331 37.2591C18.7064 37.2591 10.6289 41.537 10.6289 35.1272C10.6289 28.7175 19.3574 23.5205 23.9331 23.5205C29.1597 23.5205 37.5889 28.7175 37.5889 35.1272Z" fill="#6A8D4E" stroke="black" stroke-width="1.5" stroke-miterlimit="10"/>
</svg>
