<svg width="399" height="312" viewBox="0 0 399 312" fill="none" xmlns="http://www.w3.org/2000/svg">
<path d="M397.73 193.866C397.535 196.752 397.283 199.444 396.916 201.712C366.97 200.807 343.915 204.14 324.631 209.282C322.258 209.9 319.976 210.565 317.787 211.252C282.693 222.018 265.748 238.613 261.071 243.87C260.165 244.866 259.707 245.462 259.661 245.53C258.044 247.237 253.275 251.451 250.753 250.409C249.652 249.963 250.661 245.931 250.202 245.141C249.606 244.087 249.652 242.839 250.443 241.739C250.615 241.51 252.312 239.243 255.82 235.818C261.678 230.103 272.639 221.124 290.145 212.912C290.547 212.729 290.936 212.546 291.338 212.351C293.86 211.206 296.588 210.038 299.489 208.881C314.095 203.074 333.505 197.703 358.291 195.206C361.674 194.863 365.159 194.565 368.759 194.336C377.873 193.763 387.297 193.534 397.742 193.843L397.73 193.866Z" fill="white"/>
<path d="M236.023 200.941C265.492 184.915 294.966 168.335 324.435 151.181C326.212 150.146 327.989 149.111 329.766 148.071C329.766 148.071 335.742 95.8065 337.763 96.0909C339.785 96.3752 342.561 96.8906 345.76 97.868C345.76 97.868 352.331 99.8761 359.089 104.088C372.075 112.178 380.796 124.898 381.747 126.302C389.353 137.555 392.116 147.729 394.186 155.624C395.55 160.831 398.967 175.124 397.741 193.832C397.581 196.276 397.074 201.385 395.741 208.049C392.023 228.357 384.435 242.729 382.191 246.701C372.079 264.619 359.942 275.268 356.423 278.245C343.148 289.476 330.712 294.621 321.769 298.237C312.137 302.129 297.769 306.754 279.563 308.456C265.048 272.616 250.538 236.78 236.023 200.941Z" fill="#46635A" stroke="#46635A" stroke-miterlimit="10"/>
<path d="M170.27 37.4445C191.448 90.167 212.623 142.885 233.801 195.608L325.767 143.627C328.135 127.633 330.507 111.639 332.875 95.645C327.508 94.5831 320.209 93.0993 311.55 91.2022C308.835 90.6068 303.282 89.394 297.777 88.0922C288.314 85.8575 277.758 83.3651 264.901 79.2067C255.815 76.27 246.001 73.0579 233.801 67.2112C226.768 63.8391 220.211 60.2004 216.03 57.8813C206.349 52.51 204.035 50.7462 199.148 48.1072C192.834 44.6951 183.345 40.4167 170.27 37.4445Z" fill="#46635A" stroke="#46635A" stroke-width="1.15" stroke-miterlimit="10" stroke-linecap="round" stroke-linejoin="round"/>
<path d="M197.817 235.593C197.884 231.648 198.346 226.237 200.039 220.044C202.562 210.821 206.556 204.494 208.036 202.273C213.114 194.649 218.974 189.686 223.141 186.723C218.254 174.581 213.367 162.434 208.48 150.292C206.236 151.732 202.891 153.793 198.706 156.068C191.389 160.044 185.426 162.536 179.602 164.953C175.146 166.801 170.952 168.543 165.829 170.285C159.179 172.55 149.746 175.229 137.84 176.949C138.044 177.278 138.342 177.74 138.728 178.282C140.648 180.978 143.038 183.24 144.948 184.501C150.182 187.958 156.993 187.309 158.277 187.167C160.027 189.535 161.804 191.903 163.608 194.276C174.826 209.021 186.279 222.772 197.817 235.593Z" fill="#7FA176" stroke="#7FA176" stroke-miterlimit="10"/>
<path d="M226.743 196.497C223.389 198.306 218.33 201.592 214.017 207.167C205.59 218.05 205.736 230.267 205.836 238.732C205.904 244.33 206.158 255.271 212.653 267.186C215.108 271.685 219.321 279.416 228.107 284.969C243.101 294.443 260.122 290.433 264.013 289.415C251.591 258.441 239.165 227.471 226.743 196.497Z" fill="#7FA176" stroke="#7FA176" stroke-miterlimit="10"/>
<path d="M269.299 297.359C270.793 301.335 272.292 305.316 273.786 309.292C269.829 309.721 263.741 310.308 256.29 310.724C245.316 311.335 234.487 311.397 202.456 309.769C182.47 308.752 168.589 307.807 162.529 307.382C139.591 305.774 129.555 304.657 118.116 302.609C112.624 301.626 107.313 300.662 100.171 298.791C92.4636 296.772 79.1218 293.187 63.3843 284.949C58.3777 282.329 51.6619 278.467 44.0938 273.016C56.9556 263.47 69.813 253.924 82.6748 244.378C108.246 225.605 133.817 206.828 159.388 188.055C172.847 205.396 186.305 222.741 199.764 240.082C199.88 242.091 200.123 244.893 200.661 248.196C201.756 254.926 204.533 270.763 216.363 283.994C219.588 287.603 226.425 295.063 237.896 298.791C252.499 303.535 265.002 299.115 269.299 297.359Z" fill="#7FA176" stroke="#7FA176" stroke-width="0.94" stroke-miterlimit="10"/>
<path d="M163.957 37.0015C145.581 36.9394 106.772 39.4734 69.1169 64.0723C44.8014 79.9597 31.0786 98.4432 27.708 103.125C14.1411 121.968 7.72937 140.128 4.55469 151.941C7.73827 147.721 12.4803 142.595 19.2482 138.184C22.9438 135.774 31.4482 130.373 43.7373 129.308C48.2522 128.918 55.0557 128.407 62.8833 131.527C70.6887 134.638 75.6756 140.767 80.6936 146.616C84.5851 151.151 83.8549 151.276 86.9272 154.604C88.3075 156.1 95.2669 163.449 106.518 167.917C117.035 172.093 126.234 171.743 131.898 171.468C162.826 169.963 200.69 148.711 206.701 145.285C192.453 109.192 178.205 73.0988 163.957 37.0015Z" fill="#7FA176" stroke="#7FA176" stroke-miterlimit="10"/>
<path d="M397.964 193.83C397.769 196.716 397.442 199.559 397.075 201.827C367.129 200.922 343.915 204.139 324.631 209.281C322.258 209.899 319.976 210.564 317.787 211.251C282.693 222.017 265.748 238.612 261.071 243.869C260.165 244.865 254.73 249.74 254.684 249.809C253.067 251.515 253.275 251.45 250.753 250.408C249.652 249.962 250.661 245.93 250.202 245.14C249.606 244.086 249.652 242.838 250.443 241.738C250.615 241.509 252.312 239.242 255.82 235.817C261.678 230.102 272.639 221.123 290.145 212.911C290.547 212.728 290.936 212.545 291.338 212.35C293.86 211.205 296.588 210.037 299.489 208.88C314.095 203.073 333.505 197.702 358.291 195.205C361.674 194.862 365.159 194.564 368.759 194.335C377.873 193.762 387.519 193.521 397.964 193.83Z" fill="white"/>
<path d="M329.764 146.032C329.764 147.254 329.147 148.441 328.06 149.057L234.929 201.752C233.373 202.631 231.44 201.992 230.617 200.326C229.793 198.659 230.388 196.593 231.944 195.703L325.075 143.008C326.63 142.129 328.563 142.768 329.387 144.434C329.639 144.948 329.753 145.484 329.753 146.032H329.764Z" fill="white"/>
<path d="M3.22139 161.177C2.61863 164.028 1.82764 168.125 1.37557 172.936C1.09635 175.878 -0.100306 189.908 4.0348 208.36C5.79432 216.224 8.82141 229.219 17.7742 243.783C25.6145 256.54 34.8508 265.378 42.1504 271.135C80.2661 244.532 118.382 217.924 156.497 191.32C155.243 191.231 153.377 191.011 151.179 190.424C148.635 189.742 143.055 188.249 138.769 183.249C137.643 181.935 135.937 179.599 134.78 176.075C133.061 176.142 130.619 176.187 127.689 176.075C123.111 175.9 117.58 175.689 110.847 173.833C107.714 172.967 102.289 171.187 96.2215 167.555C93.0791 165.676 88.6338 163.017 84.2549 158.139C81.804 155.408 78.7193 151.26 75.834 147.377C74.2341 145.22 73.2369 143.812 71.402 141.996C68.4236 139.046 65.5694 137.324 64.3107 136.616C63.3135 136.055 57.8222 133.042 50.5713 132.58C39.828 131.898 31.5711 137.221 24.8654 141.548C19.1791 145.216 14.5654 149.516 11.5693 152.31C8.54219 155.13 6.14889 157.646 4.478 159.484C4.0348 160.08 3.6646 160.58 3.22139 161.177Z" fill="#7FA176" stroke="#7FA176" stroke-miterlimit="10"/>
<path d="M148.086 145.905C146.512 146.406 145.006 147.032 143.604 147.83C136.612 151.646 131.754 158.812 131.217 167.139V167.162C131.195 167.64 131.172 168.119 131.172 168.631C131.172 169.019 131.172 169.406 131.217 169.782C131.24 170.556 131.32 171.342 131.446 172.083V172.106C132.826 181.424 139.669 188.965 148.633 191.483H148.656C150.721 192.087 152.922 192.372 155.169 192.372C156.8 192.372 158.408 192.224 159.936 191.916C170.874 189.706 179.154 180.103 179.154 168.62C179.154 167.23 179.028 165.806 178.789 164.485C178.652 163.699 178.481 162.924 178.264 162.183C178.036 161.363 177.774 160.577 177.443 159.825V159.803C173.896 151.065 165.251 144.834 155.169 144.834C152.705 144.834 150.344 145.198 148.097 145.893L148.086 145.905ZM172.824 161.397V161.42C173.155 162.195 173.417 162.981 173.622 163.778V163.801C173.828 164.576 173.987 165.316 174.09 166.102C174.215 166.945 174.272 167.765 174.272 168.631C174.272 179.077 165.707 187.553 155.157 187.553C145.942 187.553 138.289 181.117 136.453 172.493V172.47C136.293 171.696 136.19 170.955 136.122 170.169C136.076 169.668 136.065 169.155 136.065 168.631C136.065 168.267 136.065 167.936 136.088 167.595V167.572C136.453 161.067 140.148 155.417 145.508 152.295C146.9 151.475 148.405 150.826 149.991 150.393H150.013C151.644 149.937 153.378 149.698 155.157 149.698C163.107 149.698 169.938 154.551 172.824 161.397Z" fill="white"/>
<path d="M270.23 293.416C270.23 295.484 269.109 297.402 267.359 298.068C266.891 298.24 220.507 314.997 202.645 263.027C184.782 211.058 222.165 187.801 222.543 187.571C224.567 186.354 227.037 187.307 228.066 189.707C229.095 192.108 228.284 195.048 226.259 196.265C225.001 197.035 195.28 215.813 210.249 259.34C216.55 277.67 227.597 288.202 243.059 290.614C254.86 292.452 264.775 288.799 264.878 288.765C267.039 287.95 269.349 289.374 270.035 291.946C270.173 292.44 270.23 292.934 270.23 293.428V293.416Z" fill="white"/>
<path d="M204.957 244.925C204.957 245.64 204.646 246.331 204.06 246.815C203.014 247.668 201.463 247.518 200.601 246.481L159.104 196.037L45.4606 274.244C45.4606 274.244 44.0021 273.322 43.2393 272.689C42.3413 271.945 41.207 270.69 41.207 270.69L158.162 190.713C159.208 189.987 160.644 190.183 161.46 191.174L204.393 243.37C204.761 243.819 204.945 244.372 204.945 244.925H204.957Z" fill="white"/>
<path d="M153.386 229.16C153.386 234.046 147.051 237.966 140.888 241.783C135.647 245.025 129.139 249.072 129.922 252.003C132.791 262.729 101.333 273.949 91.6224 277.134C90.3323 277.559 90.5396 276.513 90.1134 275.237C89.6872 273.961 88.7888 272.926 90.0789 272.501C109.788 266.04 126.156 257.038 125.165 253.256C123.449 246.83 130.994 242.162 138.285 237.644C142.95 234.759 149.343 230.793 148.306 228.539C144.528 220.354 138.17 209.962 138.101 209.858C137.398 208.709 137.767 207.203 138.919 206.501C140.082 205.8 141.591 206.168 142.305 207.318C142.57 207.754 148.882 218.055 152.776 226.505C153.19 227.413 153.386 228.298 153.386 229.149V229.16Z" fill="white"/>
<path d="M329.764 146.032C329.764 147.254 329.147 148.441 328.06 149.057L234.929 201.752C233.373 202.631 231.44 201.992 230.617 200.326C229.793 198.659 230.388 196.593 231.944 195.703L325.075 143.008C326.63 142.129 328.563 142.768 329.387 144.434C329.639 144.948 329.753 145.484 329.753 146.032H329.764Z" fill="white"/>
<path d="M337.632 97.5814C337.632 97.5814 337.312 99.6464 336.258 100.18L219.817 159.724C218.282 160.507 216.346 159.985 215.51 158.544C214.662 157.103 215.235 155.311 216.77 154.516L331.989 95.2015C331.989 95.2015 334.546 95.5154 335.766 95.6458C336.976 95.7751 338.209 95.8679 338.209 95.8679C338.209 95.8679 337.632 97.0935 337.632 97.5701V97.5814Z" fill="white"/>
<path d="M338.207 95.8679C337.933 97.7209 337.506 100.613 337.506 100.613L330.043 151.863L323.279 198.387H323.268L322.12 206.287C321.982 207.235 321.27 208.023 320.317 208.285C319.352 208.536 318.354 208.194 317.745 207.418L314.564 203.353L291.106 173.338L289.843 171.717C289.016 170.655 289.223 169.137 290.302 168.315C290.417 168.235 290.532 168.155 290.658 168.098C291.691 167.55 293 167.801 293.735 168.749L295.527 171.032L318.089 199.905L324.497 155.905L325.369 149.945L332.649 99.9164C332.649 99.9164 333.058 97.1781 333.319 95.4236" fill="white"/>
<path d="M148.086 145.905C146.512 146.406 145.006 147.032 143.604 147.83C136.612 151.646 131.754 158.812 131.217 167.139V167.162C131.195 167.64 131.172 168.119 131.172 168.631C131.172 169.019 131.172 169.406 131.217 169.782C131.24 170.556 131.32 171.342 131.446 172.083V172.106C132.826 181.424 139.669 188.965 148.633 191.483H148.656C150.721 192.087 152.922 192.372 155.169 192.372C156.8 192.372 158.408 192.224 159.936 191.916C170.874 189.706 179.154 180.103 179.154 168.62C179.154 167.23 179.028 165.806 178.789 164.485C178.652 163.699 178.481 162.924 178.264 162.183C178.036 161.363 177.774 160.577 177.443 159.825V159.803C173.896 151.065 165.251 144.834 155.169 144.834C152.705 144.834 150.344 145.198 148.097 145.893L148.086 145.905ZM172.824 161.397V161.42C173.155 162.195 173.417 162.981 173.622 163.778V163.801C173.828 164.576 173.987 165.316 174.09 166.102C174.215 166.945 174.272 167.765 174.272 168.631C174.272 179.077 165.707 187.553 155.157 187.553C145.942 187.553 138.289 181.117 136.453 172.493V172.47C136.293 171.696 136.19 170.955 136.122 170.169C136.076 169.668 136.065 169.155 136.065 168.631C136.065 168.267 136.065 167.936 136.088 167.595V167.572C136.453 161.067 140.148 155.417 145.508 152.295C146.9 151.475 148.405 150.826 149.991 150.393H150.013C151.644 149.937 153.378 149.698 155.157 149.698C163.107 149.698 169.938 154.551 172.824 161.397Z" fill="white"/>
<path d="M270.232 293.414C270.232 295.481 269.111 297.399 267.361 298.065C266.892 298.238 220.509 314.994 202.646 263.025C184.784 211.055 222.76 187.173 223.138 186.943C225.162 185.726 227.039 187.304 228.068 189.705C229.097 192.105 228.716 195.055 226.692 196.273C225.434 197.042 195.282 215.81 210.251 259.338C216.552 277.668 227.599 288.2 243.06 290.612C254.862 292.449 264.777 288.797 264.88 288.762C267.041 287.947 269.351 289.371 270.037 291.944C270.174 292.438 270.232 292.931 270.232 293.425V293.414Z" fill="white"/>
<path d="M86.1376 244.253L86.5185 245.582L91.8397 264.731L92.9375 268.658L95.7381 278.706L96.8248 282.656L101.339 298.848C101.395 299.01 101.407 299.186 101.407 299.347C99.1499 298.747 97.8903 298.404 95.631 297.792L91.6604 281.766C91.6604 281.766 91.6492 281.685 91.638 281.651L82.284 248.03L81.4774 245.154C81.2422 244.311 81.679 243.468 82.508 243.018C82.7321 242.891 82.9897 242.798 83.2586 242.752C84.5469 242.509 85.8352 243.168 86.1376 244.253Z" fill="white"/>
<path d="M153.386 229.16C153.386 234.046 147.051 237.966 140.888 241.783C135.647 245.025 129.139 249.072 129.922 252.003C132.791 262.729 101.333 273.949 91.6224 277.134C90.3323 277.559 90.5396 276.513 90.1134 275.237C89.6872 273.961 88.7888 272.926 90.0789 272.501C109.788 266.04 126.156 257.038 125.165 253.256C123.449 246.83 130.994 242.162 138.285 237.644C142.95 234.759 149.343 230.793 148.306 228.539C144.528 220.354 138.17 209.962 138.101 209.858C137.398 208.709 137.767 207.203 138.919 206.501C140.082 205.8 141.591 206.168 142.305 207.318C142.57 207.754 148.882 218.055 152.776 226.505C153.19 227.413 153.386 228.298 153.386 229.149V229.16Z" fill="white"/>
<path d="M205.796 263.088C205.715 264.108 205.117 265.011 204.255 265.301L101.406 299.347C101.406 299.347 99.7317 298.905 99.4558 297.596C99.1799 296.286 97.0643 295.568 98.1681 295.209L203.278 260.562C204.37 260.203 205.485 260.967 205.75 262.277C205.807 262.543 205.819 262.821 205.807 263.088H205.796Z" fill="white"/>
<path d="M213.365 144.994C213.365 146.212 212.777 147.397 211.75 147.995C145.675 186.459 100.951 187.011 74.9961 149.685C68.3054 140.049 60.1613 134.886 50.8175 134.323C26.9619 132.885 5.03103 159.113 4.77724 159.4C4.58112 159.622 3 161.177 3 161.177C3.32669 154.762 4.55497 150.737 4.77711 150.292C4.99925 149.848 24.551 125.997 51.1174 127.584C62.2608 128.251 71.8699 134.288 79.6795 145.511C103.581 179.893 145.894 178.743 209.017 141.992C210.482 141.141 212.281 141.785 213.031 143.453C213.262 143.947 213.365 144.476 213.365 144.994Z" fill="white"/>
<path d="M217.734 154.38L227.398 178.484L228.928 182.306L230.769 186.885L244 219.873L247.498 228.596L261.016 262.295L263.052 267.368L266.331 275.564C266.366 275.656 266.412 275.77 266.446 275.874L273.108 292.471L274.649 296.316L279.332 308C279.332 308 279.605 308.611 279.562 308.676C279.519 308.742 275.025 309.475 272.231 309.683L261.304 282.462L258.14 274.565L240.387 230.295C240.341 230.192 240.295 230.077 240.261 229.973L226.213 194.931L223.118 187.23L215.456 168.119L213.926 164.297L191.341 107.964L189.8 104.141L179.399 78.1899L176.327 70.5112L163.605 36.7781C163.605 36.7781 167.16 36.556 170.492 37.2224" fill="#96DBF0"/>
<path d="M192.484 85.6135V20.9888L211.366 31.7596V96.4079L192.484 85.6135Z" fill="#91D08A"/>
<path d="M211.367 96.386V31.7596L230.249 20.9888V85.6135L211.367 96.386Z" fill="#A5E09F"/>
<path d="M212.941 34.3401L215.189 33.106V92.5697L212.941 93.8038V34.3401Z" fill="#68A961"/>
<path d="M217.547 31.7596L219.795 30.5255L219.907 89.877L217.659 91.1111L217.547 31.7596Z" fill="#68A961"/>
<path d="M222.156 29.1791L224.404 27.9449V87.4087L222.156 88.6428V29.1791Z" fill="#68A961"/>
<path d="M226.652 26.5986L228.9 25.3644V84.716L226.652 85.9501V26.5986Z" fill="#68A961"/>
<path d="M193.832 25.2523L196.192 26.5986V85.8379L193.832 84.4916V25.2523Z" fill="#68A961"/>
<path d="M198.555 27.9449L200.915 29.2913V88.5306L198.555 87.1843V27.9449Z" fill="#68A961"/>
<path d="M203.273 30.5255L205.634 31.8719V91.2234L203.273 89.877V30.5255Z" fill="#68A961"/>
<path d="M207.77 33.1059L210.13 34.4522V93.916L207.77 92.5696L207.77 33.1059Z" fill="#68A961"/>
<path d="M211.366 10.218L230.248 20.9888L211.366 31.7596L192.484 20.9888L211.366 10.218Z" fill="#D0F6CC"/>
<path d="M211.368 12.0131L227.103 20.9888L211.368 29.9644L195.633 20.9888L211.368 12.0131Z" fill="#76B76E"/>
<path d="M211.368 15.6034L217.662 19.1937L211.368 22.7839L205.074 19.1937L211.368 15.6034Z" fill="#D0F5CC"/>
<path d="M205.074 19.1937L211.368 22.7839V24.5791L205.074 20.9888V19.1937Z" fill="#91D08A"/>
<path d="M211.367 22.7839L217.661 19.1937V20.9888L211.367 24.5791V22.7839Z" fill="#A5E09F"/>
<path d="M217.363 100.72V36.0956L236.245 46.8664V111.515L217.363 100.72Z" fill="#91D08A"/>
<path d="M236.246 111.493V46.8664L255.128 36.0956V100.72L236.246 111.493Z" fill="#A5E09F"/>
<path d="M237.82 49.4469L240.068 48.2127V107.676L237.82 108.911V49.4469Z" fill="#68A961"/>
<path d="M242.426 46.8664L244.674 45.6322L244.786 104.984L242.538 106.218L242.426 46.8664Z" fill="#68A961"/>
<path d="M247.035 44.2858L249.283 43.0517V102.515L247.035 103.75V44.2858Z" fill="#68A961"/>
<path d="M251.531 41.7053L253.779 40.4712V99.8227L251.531 101.057V41.7053Z" fill="#68A961"/>
<path d="M218.711 40.359L221.071 41.7054V100.945L218.711 99.5984V40.359Z" fill="#68A961"/>
<path d="M223.434 43.0517L225.794 44.398V103.637L223.434 102.291V43.0517Z" fill="#68A961"/>
<path d="M228.152 45.6323L230.513 46.9786V106.33L228.152 104.984V45.6323Z" fill="#68A961"/>
<path d="M232.648 48.2126L235.009 49.559V109.023L232.648 107.676L232.648 48.2126Z" fill="#68A961"/>
<path d="M236.245 25.3248L255.127 36.0956L236.245 46.8663L217.363 36.0956L236.245 25.3248Z" fill="#D0F6CC"/>
<path d="M236.247 27.1199L251.981 36.0955L236.247 45.0712L220.512 36.0955L236.247 27.1199Z" fill="#76B76E"/>
<path d="M236.247 30.7101L242.541 34.3004L236.247 37.8907L229.953 34.3004L236.247 30.7101Z" fill="#D0F5CC"/>
<path d="M229.953 34.3004L236.247 37.8907V39.6858L229.953 36.0955V34.3004Z" fill="#91D08A"/>
<path d="M236.246 37.8907L242.54 34.3004V36.0955L236.246 39.6858V37.8907Z" fill="#A5E09F"/>
<path d="M243.574 114.491V49.8663L262.234 60.6371V125.286L243.574 114.491Z" fill="#91D08A"/>
<path d="M262.234 125.264V60.6371L280.894 49.8663V114.491L262.234 125.264Z" fill="#A5E09F"/>
<path d="M263.789 63.2177L266.01 61.9835V121.447L263.789 122.681V63.2177Z" fill="#68A961"/>
<path d="M268.344 60.6372L270.565 59.403L270.676 118.755L268.455 119.989L268.344 60.6372Z" fill="#68A961"/>
<path d="M272.898 58.0567L275.12 56.8225V116.286L272.898 117.52V58.0567Z" fill="#68A961"/>
<path d="M277.34 55.4762L279.561 54.242V113.594L277.34 114.828V55.4762Z" fill="#68A961"/>
<path d="M244.906 54.1298L247.239 55.4762V114.716L244.906 113.369V54.1298Z" fill="#68A961"/>
<path d="M249.57 56.8225L251.903 58.1689V117.408L249.57 116.062V56.8225Z" fill="#68A961"/>
<path d="M254.238 59.4031L256.571 60.7494V120.101L254.238 118.755V59.4031Z" fill="#68A961"/>
<path d="M258.68 61.9835L261.012 63.3298V122.794L258.68 121.447L258.68 61.9835Z" fill="#68A961"/>
<path d="M262.234 39.0956L280.894 49.8664L262.234 60.6372L243.574 49.8664L262.234 39.0956Z" fill="#D0F6CC"/>
<path d="M262.233 40.8907L277.783 49.8663L262.233 58.842L246.684 49.8663L262.233 40.8907Z" fill="#76B76E"/>
<path d="M262.236 44.481L268.455 48.0712L262.236 51.6615L256.016 48.0712L262.236 44.481Z" fill="#D0F5CC"/>
<path d="M256.016 48.0712L262.236 51.6615V53.4566L256.016 49.8664V48.0712Z" fill="#91D08A"/>
<path d="M262.234 51.6615L268.454 48.0712V49.8664L262.234 53.4566V51.6615Z" fill="#A5E09F"/>
<path d="M118.734 82.448V45.8779L140.06 58.0612V94.6313L118.734 82.448Z" fill="#4D70B5"/>
<path d="M140.059 94.6313V58.0813L161.384 45.8779V82.448L140.059 94.6313Z" fill="#5C85D4"/>
<path d="M118.734 45.8778L140.06 33.6945L161.385 45.8778L140.06 58.0612L118.734 45.8778Z" fill="#749EEC"/>
<path d="M121.398 45.8778L121.398 10.8508L140.058 21.5112V56.5383L121.398 45.8778Z" fill="#4D70B5"/>
<path d="M140.059 56.5382L140.059 21.5112L158.718 10.8508V45.8778L140.059 56.5382Z" fill="#5C85D3"/>
<path d="M121.398 10.8508L140.058 0L158.718 10.8508L140.058 21.5112L121.398 10.8508Z" fill="#749EEC"/>
<path d="M124.352 10.8508L140.06 1.71332L156.054 10.8508L140.06 19.9883L124.352 10.8508Z" fill="#4166AC"/>
<path d="M124.352 10.8508L140.06 1.71332L156.054 10.8508L140.06 19.9883L124.352 10.8508Z" fill="#345799"/>
<path d="M134.727 9.51825L140.058 6.47241L145.389 9.51825L140.058 12.5641L134.727 9.51825Z" fill="#749EEC"/>
<path d="M134.727 9.51825L140.058 12.5641V14.087L134.727 11.0412V9.51825Z" fill="#5F7CBA"/>
<path d="M140.059 12.5641L145.39 9.51825V11.0412L140.059 14.087V12.5641Z" fill="#688CD4"/>
<path d="M120.066 48.1622L122.066 49.3044V82.8086L120.066 81.6664L120.066 48.1622Z" fill="#415C9C"/>
<path d="M122.734 13.1351L124.734 14.2773V46.2586L122.734 45.1164V13.1351Z" fill="#415C9C"/>
<path d="M125.398 14.6581L127.398 15.8003V47.7815L125.398 46.6393V14.6581Z" fill="#415C9C"/>
<path d="M128.062 16.181L130.062 17.3232V49.3044L128.062 48.1622V16.181Z" fill="#415C9C"/>
<path d="M130.73 17.7039L132.73 18.8461V50.8273L130.73 49.6852V17.7039Z" fill="#415C9C"/>
<path d="M133.395 19.2268L135.394 20.369V52.3502L133.395 51.2081V19.2268Z" fill="#415C9C"/>
<path d="M136.062 20.7498L138.062 21.8919V53.8732L136.062 52.731V20.7498Z" fill="#415C9C"/>
<path d="M122.734 49.6851L124.734 50.8273V84.3315L122.734 83.1893L122.734 49.6851Z" fill="#415C9C"/>
<path d="M125.398 51.2081L127.398 52.3503V85.8544L125.398 84.7123L125.398 51.2081Z" fill="#415C9C"/>
<path d="M128.063 52.731L130.062 53.8731V87.3773L128.062 86.2351L128.063 52.731Z" fill="#415C9C"/>
<path d="M130.73 54.2539L132.73 55.3961V88.9002L130.73 87.7581L130.73 54.2539Z" fill="#415C9C"/>
<path d="M133.395 55.7768L135.394 56.919V90.4231L133.395 89.281L133.395 55.7768Z" fill="#415C9C"/>
<path d="M136.063 57.2997L138.062 58.4419V91.946L136.062 90.8038L136.063 57.2997Z" fill="#415C9C"/>
<path d="M141.391 58.9178L143.295 57.8708V91.375L141.391 92.422V58.9178Z" fill="#435E9D"/>
<path d="M141.391 22.3678L143.295 21.3208V53.302L141.391 54.349L141.391 22.3678Z" fill="#435E9D"/>
<path d="M144.059 20.8449L145.963 19.7979V51.7791L144.059 52.8261L144.059 20.8449Z" fill="#435E9D"/>
<path d="M146.723 19.1317L148.627 18.0847V50.0659L146.723 51.1129L146.723 19.1317Z" fill="#435E9D"/>
<path d="M149.391 17.7991L151.295 16.7521V48.7333L149.391 49.7803L149.391 17.7991Z" fill="#435E9D"/>
<path d="M152.055 16.2762L153.959 15.2292V47.2104L152.055 48.2574L152.055 16.2762Z" fill="#435E9D"/>
<path d="M154.723 14.7532L156.627 13.7062V45.6875L154.723 46.7345L154.723 14.7532Z" fill="#435E9D"/>
<path d="M143.867 57.3949L145.771 56.3479V89.8521L143.867 90.8991V57.3949Z" fill="#435E9D"/>
<path d="M146.535 55.872L148.439 54.825V88.3292L146.535 89.3762V55.872Z" fill="#435E9D"/>
<path d="M149.199 54.3491L151.103 53.3021V86.8062L149.199 87.8532V54.3491Z" fill="#435E9D"/>
<path d="M151.863 52.8262L153.767 51.7792V85.2833L151.863 86.3303V52.8262Z" fill="#435E9D"/>
<path d="M154.723 51.3032L156.627 50.2562V83.7604L154.723 84.8074V51.3032Z" fill="#435E9D"/>
<path d="M157.387 49.7803L159.291 48.7333V82.2375L157.387 83.2845V49.7803Z" fill="#435E9D"/>
<path d="M86.3008 99.8322V63.4338L107.404 75.56V111.958L86.3008 99.8322Z" fill="#4D70B5"/>
<path d="M107.402 111.958V75.58L128.506 63.4338V99.8322L107.402 111.958Z" fill="#5C85D4"/>
<path d="M86.3008 63.4338L107.404 51.3077L128.507 63.4338L107.404 75.5599L86.3008 63.4338Z" fill="#749EEC"/>
<path d="M88.9375 63.4339L88.9375 28.5712L107.403 39.1816V74.0442L88.9375 63.4339Z" fill="#4D70B5"/>
<path d="M107.402 74.0442L107.402 39.1816L125.868 28.5712V63.4338L107.402 74.0442Z" fill="#5C85D3"/>
<path d="M88.9375 28.5712L107.403 17.7714L125.868 28.5712L107.403 39.1816L88.9375 28.5712Z" fill="#749EEC"/>
<path d="M91.8594 28.5712L107.404 19.4766L123.232 28.5712L107.404 37.6658L91.8594 28.5712Z" fill="#4166AC"/>
<path d="M91.8594 28.5712L107.404 19.4766L123.232 28.5712L107.404 37.6658L91.8594 28.5712Z" fill="#345799"/>
<path d="M102.129 27.2449L107.405 24.2134L112.681 27.2449L107.405 30.2764L102.129 27.2449Z" fill="#749EEC"/>
<path d="M102.129 27.2449L107.405 30.2765V31.7922L102.129 28.7607V27.2449Z" fill="#5F7CBA"/>
<path d="M107.402 30.2765L112.678 27.2449V28.7607L107.402 31.7922V30.2765Z" fill="#688CD4"/>
<path d="M87.6211 65.7075L89.5995 66.8443V100.191L87.6211 99.0543L87.6211 65.7075Z" fill="#415C9C"/>
<path d="M90.2578 30.8448L92.2362 31.9817V63.8128L90.2578 62.6759V30.8448Z" fill="#415C9C"/>
<path d="M92.8945 32.3606L94.873 33.4974V65.3285L92.8945 64.1917V32.3606Z" fill="#415C9C"/>
<path d="M95.5352 33.8764L97.5136 35.0132V66.8443L95.5352 65.7075V33.8764Z" fill="#415C9C"/>
<path d="M98.1719 35.3922L100.15 36.529V68.3601L98.1719 67.2232V35.3922Z" fill="#415C9C"/>
<path d="M100.809 36.9079L102.787 38.0447V69.8758L100.809 68.739V36.9079Z" fill="#415C9C"/>
<path d="M103.445 38.4237L105.424 39.5605V71.3916L103.445 70.2548V38.4237Z" fill="#415C9C"/>
<path d="M90.2578 67.2233L92.2362 68.3601V101.707L90.2578 100.57L90.2578 67.2233Z" fill="#415C9C"/>
<path d="M92.8945 68.739L94.873 69.8758V103.223L92.8945 102.086L92.8945 68.739Z" fill="#415C9C"/>
<path d="M95.5352 70.2548L97.5136 71.3916V104.738L95.5352 103.602L95.5352 70.2548Z" fill="#415C9C"/>
<path d="M98.1719 71.7706L100.15 72.9074V106.254L98.1719 105.117L98.1719 71.7706Z" fill="#415C9C"/>
<path d="M100.809 73.2863L102.787 74.4231V107.77L100.809 106.633L100.809 73.2863Z" fill="#415C9C"/>
<path d="M103.445 74.8021L105.424 75.9389V109.286L103.445 108.149L103.445 74.8021Z" fill="#415C9C"/>
<path d="M108.723 76.4126L110.607 75.3705V108.717L108.723 109.759V76.4126Z" fill="#435E9D"/>
<path d="M108.723 40.0342L110.607 38.9921V70.8232L108.723 71.8652L108.723 40.0342Z" fill="#435E9D"/>
<path d="M111.359 38.5184L113.244 37.4763V69.3074L111.359 70.3495L111.359 38.5184Z" fill="#435E9D"/>
<path d="M114 36.8132L115.884 35.7711V67.6022L114 68.6443L114 36.8132Z" fill="#435E9D"/>
<path d="M116.637 35.4869L118.521 34.4448V66.2759L116.637 67.318L116.637 35.4869Z" fill="#435E9D"/>
<path d="M119.273 33.9711L121.158 32.929V64.7601L119.273 65.8022L119.273 33.9711Z" fill="#435E9D"/>
<path d="M121.914 32.4554L123.798 31.4133V63.2444L121.914 64.2865L121.914 32.4554Z" fill="#435E9D"/>
<path d="M111.172 74.8968L113.056 73.8547V107.202L111.172 108.244V74.8968Z" fill="#435E9D"/>
<path d="M113.809 73.3811L115.693 72.339V105.686L113.809 106.728V73.3811Z" fill="#435E9D"/>
<path d="M116.449 71.8653L118.333 70.8232V104.17L116.449 105.212V71.8653Z" fill="#435E9D"/>
<path d="M119.086 70.3495L120.97 69.3074V102.654L119.086 103.696V70.3495Z" fill="#435E9D"/>
<path d="M121.914 68.8337L123.798 67.7916V101.138L121.914 102.181V68.8337Z" fill="#435E9D"/>
<path d="M124.551 67.318L126.435 66.2759V99.6228L124.551 100.665V67.318Z" fill="#435E9D"/>
<path d="M54.3125 118.936V82.5375L75.6379 94.6637V131.062L54.3125 118.936Z" fill="#4D70B5"/>
<path d="M75.6367 131.062V94.6837L96.9621 82.5375V118.936L75.6367 131.062Z" fill="#5C85D4"/>
<path d="M54.3125 82.5375L75.6379 70.4114L96.9632 82.5375L75.6379 94.6636L54.3125 82.5375Z" fill="#749EEC"/>
<path d="M56.9766 82.5376L56.9766 47.6749L75.6362 58.2853V93.1479L56.9766 82.5376Z" fill="#4D70B5"/>
<path d="M75.6367 93.1479L75.6367 58.2853L94.2964 47.6749V82.5375L75.6367 93.1479Z" fill="#5C85D3"/>
<path d="M56.9766 47.6749L75.6362 36.8751L94.2959 47.6749L75.6362 58.2853L56.9766 47.6749Z" fill="#749EEC"/>
<path d="M59.9297 47.6749L75.6381 38.5803L91.6321 47.6749L75.6381 56.7695L59.9297 47.6749Z" fill="#4166AC"/>
<path d="M59.9297 47.6749L75.6381 38.5803L91.6321 47.6749L75.6381 56.7695L59.9297 47.6749Z" fill="#345799"/>
<path d="M70.3047 46.3486L75.636 43.3171L80.9674 46.3486L75.636 49.3801L70.3047 46.3486Z" fill="#749EEC"/>
<path d="M70.3047 46.3486L75.636 49.3802V50.8959L70.3047 47.8644V46.3486Z" fill="#5F7CBA"/>
<path d="M75.6367 49.3802L80.9681 46.3486V47.8644L75.6367 50.8959V49.3802Z" fill="#688CD4"/>
<path d="M55.6445 84.8112L57.6438 85.948V119.295L55.6445 118.158L55.6445 84.8112Z" fill="#415C9C"/>
<path d="M58.3125 49.9485L60.3118 51.0854V82.9165L58.3125 81.7796V49.9485Z" fill="#415C9C"/>
<path d="M60.9766 51.4643L62.9758 52.6011V84.4322L60.9766 83.2954V51.4643Z" fill="#415C9C"/>
<path d="M63.6406 52.9801L65.6399 54.1169V85.948L63.6406 84.8112V52.9801Z" fill="#415C9C"/>
<path d="M66.3086 54.4958L68.3078 55.6327V87.4638L66.3086 86.3269V54.4958Z" fill="#415C9C"/>
<path d="M68.9727 56.0116L70.9719 57.1484V88.9795L68.9727 87.8427V56.0116Z" fill="#415C9C"/>
<path d="M71.6406 57.5274L73.6399 58.6642V90.4953L71.6406 89.3585V57.5274Z" fill="#415C9C"/>
<path d="M58.3125 86.327L60.3118 87.4638V120.811L58.3125 119.674L58.3125 86.327Z" fill="#415C9C"/>
<path d="M60.9766 87.8427L62.9758 88.9795V122.326L60.9766 121.19L60.9766 87.8427Z" fill="#415C9C"/>
<path d="M63.6406 89.3585L65.6399 90.4953V123.842L63.6406 122.705L63.6406 89.3585Z" fill="#415C9C"/>
<path d="M66.3086 90.8743L68.3078 92.0111V125.358L66.3086 124.221L66.3086 90.8743Z" fill="#415C9C"/>
<path d="M68.9727 92.39L70.9719 93.5268V126.874L68.9727 125.737L68.9727 92.39Z" fill="#415C9C"/>
<path d="M71.6406 93.9058L73.6399 95.0426V128.389L71.6406 127.253L71.6406 93.9058Z" fill="#415C9C"/>
<path d="M76.9688 95.5163L78.8728 94.4742V127.821L76.9688 128.863V95.5163Z" fill="#435E9D"/>
<path d="M76.9688 59.1379L78.8728 58.0958V89.9269L76.9688 90.9689L76.9688 59.1379Z" fill="#435E9D"/>
<path d="M79.6367 57.6221L81.5408 56.58V88.4111L79.6367 89.4532L79.6367 57.6221Z" fill="#435E9D"/>
<path d="M82.3008 55.9169L84.2048 54.8748V86.7059L82.3008 87.748L82.3008 55.9169Z" fill="#435E9D"/>
<path d="M84.9688 54.5906L86.8728 53.5485V85.3796L84.9688 86.4217L84.9688 54.5906Z" fill="#435E9D"/>
<path d="M87.6328 53.0748L89.5369 52.0327V83.8638L87.6328 84.9059L87.6328 53.0748Z" fill="#435E9D"/>
<path d="M90.3008 51.5591L92.2048 50.517V82.3481L90.3008 83.3902L90.3008 51.5591Z" fill="#435E9D"/>
<path d="M79.4453 94.0005L81.3494 92.9584V126.305L79.4453 127.347V94.0005Z" fill="#435E9D"/>
<path d="M82.1133 92.4847L84.0173 91.4426V124.789L82.1133 125.832V92.4847Z" fill="#435E9D"/>
<path d="M84.7773 90.969L86.6814 89.9269V123.274L84.7773 124.316V90.969Z" fill="#435E9D"/>
<path d="M87.4414 89.4532L89.3455 88.4111V121.758L87.4414 122.8V89.4532Z" fill="#435E9D"/>
<path d="M90.3008 87.9374L92.2048 86.8953V120.242L90.3008 121.284V87.9374Z" fill="#435E9D"/>
<path d="M92.9648 86.4217L94.8689 85.3796V118.726L92.9648 119.769V86.4217Z" fill="#435E9D"/>
<path d="M96.0742 132.991L103.493 101.227L109.936 132.991H96.0742Z" fill="#B5EBA2"/>
<path d="M105.055 111.289L112.474 79.5253L118.917 111.289H105.055Z" fill="#B5EBA2"/>
<path d="M125.75 122.732L133.169 90.9681L139.612 122.732H125.75Z" fill="#B5EBA2"/>
<path d="M119.113 137.726L126.533 105.962L132.976 137.726H119.113Z" fill="#B5EBA2"/>
<path d="M110.133 137.726L117.552 105.962L123.995 137.726H110.133Z" fill="#B5EBA2"/>
<path d="M23.6602 167.052L43.6527 178.383V215.919L23.6602 204.601V167.052Z" fill="#51A5BF"/>
<path d="M43.6523 178.383L70.309 163.275V200.81L43.6523 215.919V178.383Z" fill="#6EC5E1"/>
<path d="M23.6602 167.052L50.3168 151.943L70.3094 163.275L43.6527 178.383L23.6602 167.052Z" fill="#8BD1E8"/>
<path d="M26.9922 167.052L50.3168 153.832L66.9772 163.275L43.6526 176.495L26.9922 167.052Z" fill="#599BB0"/>
<path d="M25.3281 194.436L27.8272 195.853V199.63L25.3281 198.214V194.436Z" fill="#0E5C75"/>
<path d="M25.6836 194.642L27.8256 195.853V199.158L25.6836 197.978V194.642Z" fill="#33819A"/>
<path d="M25.3281 183.105L27.8272 184.521V188.299L25.3281 186.882V183.105Z" fill="#0E5C75"/>
<path d="M25.6836 183.31L27.8256 184.521V187.826L25.6836 186.646V183.31Z" fill="#33819A"/>
<path d="M25.8008 172.245L28.2998 173.662V177.439L25.8008 176.023V172.245Z" fill="#0E5C75"/>
<path d="M26.1562 172.451L28.2983 173.662V176.967L26.1562 175.787V172.451Z" fill="#33819A"/>
<path d="M29.3711 196.797L31.8702 198.214V201.991L29.3711 200.574V196.797Z" fill="#0E5C75"/>
<path d="M29.7266 197.003L31.8686 198.214V201.519L29.7266 200.338V197.003Z" fill="#33819A"/>
<path d="M29.3711 185.466L31.8702 186.882V190.659L29.3711 189.243V185.466Z" fill="#0E5C75"/>
<path d="M29.7266 185.671L31.8686 186.882V190.187L29.7266 189.007V185.671Z" fill="#33819A"/>
<path d="M29.8477 174.606L32.3467 176.023V179.8L29.8477 178.383V174.606Z" fill="#0E5C75"/>
<path d="M30.2031 174.812L32.3452 176.023V179.328L30.2031 178.147V174.812Z" fill="#33819A"/>
<path d="M33.6562 199.158L36.1553 200.574V204.352L33.6562 202.935V199.158Z" fill="#0E5C75"/>
<path d="M34.0117 199.364L36.1538 200.574V203.879L34.0117 202.699V199.364Z" fill="#33819A"/>
<path d="M33.6562 187.826L36.1553 189.243V193.02L33.6562 191.604V187.826Z" fill="#0E5C75"/>
<path d="M34.0117 188.032L36.1538 189.243V192.548L34.0117 191.367V188.032Z" fill="#33819A"/>
<path d="M34.1328 176.967L36.6319 178.383V182.161L34.1328 180.744V176.967Z" fill="#0E5C75"/>
<path d="M34.4883 177.173L36.6303 178.383V181.688L34.4883 180.508V177.173Z" fill="#33819A"/>
<path d="M37.9414 201.519L40.4405 202.935V206.712L37.9414 205.296V201.519Z" fill="#0E5C75"/>
<path d="M38.2969 201.724L40.4389 202.935V206.24L38.2969 205.06V201.724Z" fill="#33819A"/>
<path d="M37.9414 190.187L40.4405 191.604V195.381L37.9414 193.964V190.187Z" fill="#0E5C75"/>
<path d="M38.2969 190.393L40.4389 191.604V194.909L38.2969 193.728V190.393Z" fill="#33819A"/>
<path d="M38.418 179.328L40.917 180.744V184.521L38.418 183.105V179.328Z" fill="#0E5C75"/>
<path d="M38.7734 179.533L40.9155 180.744V184.049L38.7734 182.869V179.533Z" fill="#33819A"/>
<path d="M23.6602 177.439L43.6527 188.771V189.479L23.6602 178.147V177.439Z" fill="#196780"/>
<path d="M43.6523 211.434L70.2793 196.561V197.269L43.6523 212.142V211.434Z" fill="#4494AE"/>
<path d="M43.6523 200.102L70.2793 185.23V185.938L43.6523 200.81V200.102Z" fill="#4494AE"/>
<path d="M43.6523 188.771L70.2793 173.898V174.606L43.6523 189.479V188.771Z" fill="#4494AE"/>
<path d="M23.6602 188.771L43.6527 200.102V200.81L23.6602 189.479L23.6602 188.771Z" fill="#196780"/>
<path d="M23.6602 200.102L43.6527 211.434V212.142L23.6602 200.81V200.102Z" fill="#196780"/>
<path d="M51.0312 178.029L53.4113 176.731V180.508L51.0312 181.806V178.029Z" fill="#0E5C75"/>
<path d="M51.0312 178.029L53.0543 176.926V180.272L51.0312 181.334V178.029Z" fill="#3D7E95"/>
<path d="M51.0312 189.125L53.4113 187.826V191.604L51.0312 192.902V189.125Z" fill="#0E5C75"/>
<path d="M51.0312 189.125L53.0543 188.022V191.367L51.0312 192.43V189.125Z" fill="#3D7E95"/>
<path d="M51.0312 200.456L53.4113 199.158V202.935L51.0312 204.234V200.456Z" fill="#0E5C75"/>
<path d="M51.0312 200.456L53.0543 199.353V202.699L51.0312 203.761V200.456Z" fill="#3D7E95"/>
<path d="M45.793 181.098L48.173 179.8V183.577L45.793 184.875V181.098Z" fill="#0E5C75"/>
<path d="M45.793 181.139L47.816 180.036V183.382L45.793 184.444V181.139Z" fill="#3D7E95"/>
<path d="M45.793 192.194L48.173 190.895V194.673L45.793 195.971V192.194Z" fill="#0E5C75"/>
<path d="M45.793 192.234L47.816 191.131V194.477L45.793 195.539V192.234Z" fill="#3D7E95"/>
<path d="M45.793 203.525L48.173 202.227V206.004L45.793 207.303V203.525Z" fill="#0E5C75"/>
<path d="M45.793 203.566L47.816 202.463V205.809L45.793 206.871V203.566Z" fill="#3D7E95"/>
<path d="M56.2656 175.196L58.6457 173.898V177.675L56.2656 178.974V175.196Z" fill="#0E5C75"/>
<path d="M56.2656 175.196L58.2887 174.094V177.439L56.2656 178.501V175.196Z" fill="#3D7E95"/>
<path d="M56.2656 186.292L58.6457 184.993V188.771L56.2656 190.069V186.292Z" fill="#0E5C75"/>
<path d="M56.2656 186.292L58.2887 185.189V188.535L56.2656 189.597V186.292Z" fill="#3D7E95"/>
<path d="M56.2656 197.623L58.6457 196.325V200.102L56.2656 201.401V197.623Z" fill="#0E5C75"/>
<path d="M56.2656 197.623L58.2887 196.521V199.866L56.2656 200.929V197.623Z" fill="#3D7E95"/>
<path d="M61.0273 172.364L63.4074 171.065V174.842L61.0273 176.141V172.364Z" fill="#0E5C75"/>
<path d="M61.0273 172.364L63.0504 171.261V174.606L61.0273 175.669V172.364Z" fill="#3D7E95"/>
<path d="M61.0273 183.459L63.4074 182.161V185.938L61.0273 187.236V183.459Z" fill="#0E5C75"/>
<path d="M61.0273 183.459L63.0504 182.356V185.702L61.0273 186.764V183.459Z" fill="#3D7E95"/>
<path d="M61.0273 194.791L63.4074 193.492V197.269L61.0273 198.568V194.791Z" fill="#0E5C75"/>
<path d="M61.0273 194.791L63.0504 193.688V197.033L61.0273 198.096V194.791Z" fill="#3D7E95"/>
<path d="M66.5 169.295L68.8801 167.996V171.773L66.5 173.072V169.295Z" fill="#0E5C75"/>
<path d="M66.5 169.295L68.5231 168.192V171.537L66.5 172.6V169.295Z" fill="#3D7E95"/>
<path d="M66.5 180.39L68.8801 179.092V182.869L66.5 184.167V180.39Z" fill="#0E5C75"/>
<path d="M66.5 180.39L68.5231 179.287V182.633L66.5 183.695V180.39Z" fill="#3D7E95"/>
<path d="M66.5 191.722L68.8801 190.423V194.2L66.5 195.499V191.722Z" fill="#0E5C75"/>
<path d="M66.5 191.722L68.5231 190.619V193.964L66.5 195.027V191.722Z" fill="#3D7E95"/>
<path d="M36.9883 163.275L43.6525 167.052V170.829L36.9883 167.052V163.275Z" fill="#75BAD1"/>
<path d="M46.9844 157.609L53.6486 161.386V165.163L46.9844 161.386V157.609Z" fill="#75BAD1"/>
<path d="M43.6523 167.052L46.9844 165.163V168.94L43.6523 170.829V167.052Z" fill="#83C6DE"/>
<path d="M53.6484 161.386L56.9805 159.497V163.275L53.6484 165.163V161.386Z" fill="#83C6DE"/>
<path d="M36.9883 163.275L40.3204 161.386L46.9845 165.163L43.6525 167.052L36.9883 163.275Z" fill="#8BD1E8"/>
<path d="M46.9844 157.609L50.3165 155.72L56.9806 159.498L53.6485 161.386L46.9844 157.609Z" fill="#8BD1E8"/>
<path d="M63.6445 220.071L71.0638 188.308L77.5068 220.071H63.6445Z" fill="#B5EBA2"/>
<path d="M72.625 198.369L80.0442 166.606L86.4873 198.369H72.625Z" fill="#B5EBA2"/>
<path d="M93.3203 209.812L100.74 178.049L107.183 209.812H93.3203Z" fill="#B5EBA2"/>
<path d="M86.6836 224.806L94.1028 193.043L100.546 224.806H86.6836Z" fill="#B5EBA2"/>
<path d="M77.7031 224.806L85.1224 193.043L91.5654 224.806H77.7031Z" fill="#B5EBA2"/>
<path d="M174.742 174.848L184.637 169.138L194.531 186.031V201.257L174.742 189.837V174.848Z" fill="#FBE98D"/>
<path d="M194.531 186.031L214.32 174.611V189.837L194.531 201.258V186.031Z" fill="#FFF2AE"/>
<path d="M194.41 186.744L183.691 169.733L204.423 157.718L215.142 174.73L194.41 186.744Z" fill="#EDD141"/>
<path d="M183.693 169.733L174.27 175.086V176.157L184.164 170.447L183.693 169.733Z" fill="#E1C42D"/>
<path d="M204.188 186.625L206.543 185.317V189.124L204.188 190.432V186.625Z" fill="#BEA418"/>
<path d="M204.188 186.625L206.19 185.514V188.886L204.188 189.956V186.625Z" fill="#E0BF3E"/>
<path d="M197.594 190.194L199.95 188.886V192.692L197.594 194.001V190.194Z" fill="#BEA418"/>
<path d="M197.594 190.194L199.596 189.083V192.455L197.594 193.525V190.194Z" fill="#E0BF3E"/>
<path d="M210.078 183.295L212.434 181.986V185.793L210.078 187.101V183.295Z" fill="#BEA418"/>
<path d="M210.078 183.295L212.081 182.183V185.555L210.078 186.625V183.295Z" fill="#E5C832"/>
<path d="M119.657 254.903L147.03 241.355L146.128 256.481L118.755 270.03L119.657 254.903Z" fill="#FFB899"/>
<path d="M100.481 242.375L110.259 237.502L119.658 254.903L118.756 270.03L99.5788 257.501L100.481 242.375Z" fill="#FFA077"/>
<path d="M118.23 256.953L107.448 238.877L137.749 223.961L148.531 242.037L118.23 256.953Z" fill="#FF8652"/>
<path d="M99.9956 242.583L107.451 238.877L107.777 239.37L100.197 243.188L99.9956 242.583Z" fill="#F06B32"/>
<path d="M122.208 259.918L124.649 258.759L124.423 262.54L121.982 263.699L122.208 259.918Z" fill="#D76737"/>
<path d="M122.208 259.918L124.282 258.933L124.083 262.283L122.01 263.227L122.208 259.918Z" fill="#FF8652"/>
<path d="M129.048 256.531L131.489 255.371L131.263 259.153L128.822 260.312L129.048 256.531Z" fill="#D76737"/>
<path d="M129.047 256.531L131.122 255.546L130.923 258.896L128.85 259.839L129.047 256.531Z" fill="#FF8652"/>
<path d="M135.891 253.144L138.332 251.984L138.107 255.766L135.666 256.925L135.891 253.144Z" fill="#D76737"/>
<path d="M135.891 253.144L137.966 252.159L137.766 255.509L135.694 256.452L135.891 253.144Z" fill="#FF8652"/>
<path d="M142.735 249.756L145.176 248.597L144.951 252.379L142.51 253.538L142.735 249.756Z" fill="#D76737"/>
<path d="M142.735 249.756L144.81 248.772L144.61 252.121L142.538 253.065L142.735 249.756Z" fill="#FF8652"/>
<path d="M207.59 236.517L226.403 247.301V261.679L207.59 250.896V236.517Z" fill="#FA70AA"/>
<path d="M226.402 247.301L245.215 236.517V250.896L226.402 261.679V247.301Z" fill="#FF8DBD"/>
<path d="M226.402 247.301L229.65 250.896V254.49L226.402 252.693V247.301Z" fill="#DF5C93"/>
<path d="M229.652 250.896L248.465 240.112V243.706L229.652 254.49V250.896Z" fill="#F279AC"/>
<path d="M226.402 247.301L245.215 236.517L248.463 240.112L229.65 250.896L226.402 247.301Z" fill="#FF96C1"/>
<path d="M226.401 222.139L238.929 229.328L226.499 236.742L213.859 229.328L226.401 222.139Z" fill="#FFAED0"/>
<path d="M207.59 236.517L213.861 229.328L226.403 236.517V247.413L207.59 236.517Z" fill="#D6578C"/>
<path d="M226.402 247.413V236.517L238.944 229.328L245.215 236.517L226.402 247.413Z" fill="#ED72A6"/>
<path d="M227.074 243.145L245.887 231.687V237.079L227.074 248.537V243.145Z" fill="#FFC4DD"/>
<path d="M226.402 242.808L227.074 243.145V248.537L226.402 248.2V242.808Z" fill="#EFA0CC"/>
<path d="M245.215 231.35L245.887 231.687L227.074 243.257L226.402 242.92L245.215 231.35Z" fill="#FFAED0"/>
<path d="M211.184 244.156L213.535 245.504V249.098L211.184 247.75V244.156Z" fill="#AB2D63"/>
<path d="M211.52 244.351L213.535 245.504V248.649L211.52 247.526V244.351Z" fill="#C04080"/>
<path d="M219.082 248.594L221.434 249.942V253.536L219.082 252.188V248.594Z" fill="#AB2D63"/>
<path d="M219.418 248.789L221.434 249.942V253.087L219.418 251.964V248.789Z" fill="#C04080"/>
<path d="M318.215 224.634L344.767 239.808V262.567L318.215 247.394V224.634Z" fill="#35BEB6"/>
<path d="M344.766 239.808L371.318 224.634V247.394L344.766 262.567V239.808Z" fill="#3BDBD1"/>
<path d="M344.767 209.698L371.319 224.634L344.767 239.808L318.215 224.634L344.767 209.698Z" fill="#83E6DF"/>
<path d="M344.768 211.595L368.001 224.649L344.768 237.911L321.535 224.649L344.768 211.595Z" fill="#44A39D"/>
<path d="M321.535 224.634L344.768 211.595V212.543L322.246 225.069L321.891 224.872L321.535 224.634Z" fill="#2E8D88"/>
<path d="M321.535 224.634L344.768 211.595V212.543L322.246 225.069L321.891 224.872L321.535 224.634Z" fill="#2E8D88"/>
<path d="M344.766 211.595L367.999 224.634L367.643 224.872L367.169 225.117L344.766 212.543V211.595Z" fill="#257B77"/>
<path d="M344.766 251.662L318.213 236.488V237.2L344.766 252.373V251.662Z" fill="#21A49C"/>
<path d="M371.32 236.488L344.768 251.656V252.367L371.32 237.2V236.488Z" fill="#30C3BA"/>
<path d="M348.086 218.944L354.724 222.738V226.531L348.086 222.738V218.944Z" fill="#4EC4BC"/>
<path d="M354.723 222.738L358.042 220.841V224.634L354.723 226.531V222.738Z" fill="#6AD1CB"/>
<path d="M348.086 218.944L351.405 217.048L358.043 220.841L354.724 222.738L348.086 218.944Z" fill="#6EE9E2"/>
<path d="M370.609 229.613L373.928 231.51V239.096L370.609 237.2V229.613Z" fill="#13B6AC"/>
<path d="M373.926 231.51L374.637 231.036V238.622L373.926 239.096V231.51Z" fill="#3BDBD1"/>
<path d="M370.609 229.613L371.321 229.139L374.64 231.036L373.928 231.51L370.609 229.613Z" fill="#3BDBD1"/>
<path d="M321.059 231.273L323.548 232.695V236.488L321.059 235.066V231.273Z" fill="#0D817A"/>
<path d="M321.414 231.479L323.548 232.695V236.014L321.414 234.829V231.479Z" fill="#19958D"/>
<path d="M321.059 241.941L323.548 243.364V247.157L321.059 245.735V241.941Z" fill="#0D817A"/>
<path d="M321.414 242.148L323.548 243.364V246.683L321.414 245.498V242.148Z" fill="#19958D"/>
<path d="M328.883 235.54L331.372 236.963V240.756L328.883 239.333V235.54Z" fill="#0D817A"/>
<path d="M329.238 235.747L331.372 236.963V240.282L329.238 239.096V235.747Z" fill="#19958D"/>
<path d="M328.883 246.209L331.372 247.631V251.425L328.883 250.002V246.209Z" fill="#0D817A"/>
<path d="M329.238 246.415L331.372 247.631V250.95L329.238 249.765V246.415Z" fill="#19958D"/>
<path d="M337.18 240.282L339.669 241.704V245.498L337.18 244.075V240.282Z" fill="#0D817A"/>
<path d="M337.535 240.488L339.669 241.704V245.023L337.535 243.838V240.488Z" fill="#19958D"/>
<path d="M337.18 250.95L339.669 252.373V256.166L337.18 254.744V250.95Z" fill="#0D817A"/>
<path d="M337.535 251.157L339.669 252.373V255.692L337.535 254.507V251.157Z" fill="#19958D"/>
<path d="M348.559 242.297L350.929 240.993V244.786L348.559 246.09V242.297Z" fill="#138280"/>
<path d="M348.559 242.297L350.574 241.189V244.549L348.559 245.616V242.297Z" fill="#19958D"/>
<path d="M348.559 253.677L350.929 252.373V256.166L348.559 257.47V253.677Z" fill="#138280"/>
<path d="M348.559 253.677L350.574 252.569V255.929L348.559 256.996V253.677Z" fill="#19958D"/>
<path d="M356.859 238.029L359.23 236.726V240.519L356.859 241.823V238.029Z" fill="#138280"/>
<path d="M356.859 238.029L358.875 236.922V240.282L356.859 241.349V238.029Z" fill="#19958D"/>
<path d="M356.859 249.409L359.23 248.105V251.899L356.859 253.203V249.409Z" fill="#138280"/>
<path d="M356.859 249.409L358.875 248.302V251.662L356.859 252.729V249.409Z" fill="#19958D"/>
<path d="M365.156 233.288L367.527 231.984V235.777L365.156 237.081V233.288Z" fill="#138280"/>
<path d="M365.156 233.288L367.171 232.18V235.54L365.156 236.607V233.288Z" fill="#19958D"/>
<path d="M365.156 244.668L367.527 243.364V247.157L365.156 248.461V244.668Z" fill="#138280"/>
<path d="M365.156 244.668L367.171 243.56V246.92L365.156 247.987V244.668Z" fill="#19958D"/>
<path d="M271.121 266.754L278.616 235.233L285.125 266.754H271.121Z" fill="#B5EBA2"/>
<path d="M280.195 245.218L287.69 213.697L294.199 245.218H280.195Z" fill="#B5EBA2"/>
<path d="M301.102 256.574L308.597 225.052L315.105 256.574H301.102Z" fill="#B5EBA2"/>
<path d="M294.395 271.453L301.889 239.932L308.398 271.453H294.395Z" fill="#B5EBA2"/>
<path d="M285.32 271.453L292.815 239.932L299.324 271.453H285.32Z" fill="#B5EBA2"/>
<path d="M280.453 193.856L287.872 162.093L294.315 193.856H280.453Z" fill="#B5EBA2"/>
<path d="M289.434 172.155L296.853 140.391L303.296 172.155H289.434Z" fill="#B5EBA2"/>
<path d="M310.129 183.597L317.548 151.834L323.991 183.597H310.129Z" fill="#B5EBA2"/>
<path d="M303.492 198.591L310.911 166.828L317.354 198.591H303.492Z" fill="#B5EBA2"/>
<path d="M294.512 198.591L301.931 166.828L308.374 198.591H294.512Z" fill="#B5EBA2"/>
</svg>
