<svg width="353" height="327" viewBox="0 0 353 327" fill="none" xmlns="http://www.w3.org/2000/svg">
<g filter="url(#filter0_d_333_3689)">
<g clip-path="url(#clip0_333_3689)">
<path d="M336.945 28.6968V290.853C336.945 297.14 331.989 302.571 324.797 305.205C321.807 306.316 318.44 306.925 314.866 306.925H209.435C209.393 306.972 209.351 306.986 209.309 307L208.701 306.925H38.0805C25.8901 306.925 16.0039 299.741 16.0039 290.853V28.6968C16.0039 27.8604 16.0884 27.0217 16.2769 26.2159C16.5921 24.6935 17.1966 23.2322 18.0318 21.879V21.8649C18.6786 20.8453 19.4521 19.8867 20.3328 18.9869C20.6253 18.6815 20.9405 18.3926 21.272 18.1036C21.7107 17.6784 22.2145 17.2813 22.7572 16.9172C23.0075 16.7339 23.2805 16.5366 23.5502 16.3533C24.3659 15.82 25.2434 15.3196 26.1631 14.8615C26.7709 14.5561 27.3981 14.2836 28.0643 14.0251C29.0263 13.6304 30.05 13.2945 31.116 13.0196C33.5859 12.3665 36.2606 12 39.0425 12H313.907C317.209 12 320.345 12.5028 323.189 13.4167C323.585 13.5529 323.982 13.6915 324.381 13.8419C326.178 14.4974 327.852 15.3337 329.337 16.3063C329.63 16.5037 329.922 16.701 330.195 16.9007C330.78 17.2954 331.304 17.723 331.785 18.1788C332.1 18.4677 332.412 18.7567 332.685 19.0457C333.25 19.6236 333.77 20.2321 334.251 20.8711C334.713 21.5101 335.129 22.1797 335.486 22.8493C336.029 23.8689 336.406 24.9331 336.656 26.0467C336.718 26.3357 336.783 26.6411 336.822 26.9442C336.906 27.5245 336.945 28.1024 336.945 28.6968Z" fill="#ACADBC" fill-opacity="0.2"/>
<path d="M272.847 168.231L238.427 178.869C237.286 179.222 235.97 178.834 235.486 178.005L233.796 175.105C233.312 174.276 233.845 173.315 234.986 172.963L269.405 162.325C270.546 161.973 271.862 162.36 272.346 163.19L274.036 166.089C274.521 166.92 273.988 167.879 272.847 168.231Z" fill="#ACADBC" fill-opacity="0.2"/>
<path d="M289.745 173.604L255.326 184.242C254.185 184.595 252.869 184.207 252.384 183.378L250.694 180.478C250.21 179.649 250.743 178.688 251.884 178.336L286.304 167.698C287.444 167.346 288.761 167.733 289.245 168.563L290.935 171.462C291.416 172.293 290.886 173.252 289.745 173.604Z" fill="#ACADBC" fill-opacity="0.2"/>
<path d="M306.515 179.353L272.095 189.991C270.954 190.343 269.638 189.956 269.154 189.126L267.464 186.227C266.98 185.398 267.513 184.437 268.653 184.085L303.073 173.447C304.214 173.094 305.53 173.482 306.015 174.311L307.704 177.21C308.189 178.042 307.656 179.001 306.515 179.353Z" fill="#ACADBC" fill-opacity="0.2"/>
<path d="M65.5982 39.5296L28.6793 43.8453C27.4573 43.9886 26.3036 43.3825 26.1086 42.4921L25.4229 39.3816C25.2279 38.4912 26.0599 37.6525 27.2818 37.5091L64.2008 33.1934C65.4227 33.0501 66.5765 33.6562 66.7715 34.5466L67.4572 37.6572C67.6554 38.5499 66.8202 39.3863 65.5982 39.5296Z" fill="#ACADBC" fill-opacity="0.2"/>
<path d="M70.9967 27.8416L34.0777 32.1573C32.8558 32.3006 31.702 31.6945 31.507 30.8041L30.8213 27.6936C30.6263 26.8032 31.4583 25.9645 32.6803 25.8212L69.5992 21.5054C70.8212 21.3621 71.9749 21.9682 72.1699 22.8586L72.8556 25.9692C73.0539 26.8619 72.2219 27.6983 70.9967 27.8416Z" fill="#ACADBC" fill-opacity="0.2"/>
<path d="M195.065 251.943L169.232 250.198C168.176 250.127 167.399 249.446 167.497 248.675L167.955 245.071C168.052 244.303 168.988 243.737 170.044 243.807L195.878 245.553C196.934 245.623 197.711 246.305 197.613 247.075L197.155 250.679C197.058 251.45 196.122 252.016 195.065 251.943Z" fill="#ACADBC" fill-opacity="0.2"/>
<path d="M93.3755 247.921L68.9947 241.465C67.997 241.202 67.4835 240.398 67.8475 239.673L69.5472 236.271C69.9112 235.545 71.0129 235.171 72.0106 235.434L96.3914 241.89C97.3892 242.153 97.9027 242.957 97.5387 243.683L95.839 247.085C95.475 247.811 94.3733 248.184 93.3755 247.921Z" fill="#ACADBC" fill-opacity="0.2"/>
<path d="M329.475 266.323L310.083 265.013C309.157 264.949 308.477 264.352 308.562 263.678L309.066 259.729C309.15 259.055 309.972 258.559 310.898 258.622L330.291 259.933C331.217 259.997 331.896 260.593 331.812 261.268L331.308 265.217C331.22 265.891 330.401 266.387 329.475 266.323Z" fill="#ACADBC" fill-opacity="0.2"/>
<path d="M207.4 166.204L189.474 171.744C188.619 172.009 187.631 171.718 187.267 171.095L185.139 167.444C184.775 166.822 185.174 166.103 186.029 165.837L203.956 160.298C204.81 160.032 205.798 160.323 206.162 160.946L208.291 164.597C208.655 165.222 208.255 165.941 207.4 166.204Z" fill="#ACADBC" fill-opacity="0.2"/>
<path d="M164.274 179.877L156.666 166.826C156.302 166.204 156.702 165.485 157.556 165.219L162.571 163.669C163.426 163.403 164.414 163.695 164.778 164.317L172.386 177.368C172.75 177.991 172.35 178.709 171.495 178.975L166.481 180.525C165.626 180.791 164.638 180.5 164.274 179.877Z" fill="#ACADBC" fill-opacity="0.2"/>
<path d="M43.542 191.401L32.2973 179.825C31.7611 179.273 31.9398 178.507 32.7003 178.117L37.1494 175.827C37.9099 175.437 38.9596 175.568 39.4959 176.12L50.7406 187.696C51.2768 188.248 51.0981 189.014 50.3376 189.404L45.8885 191.694C45.128 192.084 44.0783 191.955 43.542 191.401Z" fill="#ACADBC" fill-opacity="0.2"/>
<path d="M175.383 71.0272L158.519 63.9393C157.713 63.601 157.437 62.8515 157.901 62.2642L160.625 58.8294C161.09 58.2445 162.12 58.0424 162.926 58.3807L179.79 65.4687C180.596 65.807 180.872 66.5564 180.407 67.1438L177.684 70.5785C177.219 71.1658 176.189 71.3655 175.383 71.0272Z" fill="#ACADBC" fill-opacity="0.2"/>
<path d="M151.242 62.4592L134.378 55.3712C133.572 55.0329 133.296 54.2835 133.761 53.6961L136.484 50.2614C136.949 49.6764 137.979 49.4744 138.785 49.8127L155.649 56.9006C156.455 57.2389 156.731 57.9884 156.266 58.5757L153.543 62.0104C153.078 62.5978 152.048 62.7975 151.242 62.4592Z" fill="#ACADBC" fill-opacity="0.2"/>
<path d="M102.106 34.6077L94.667 21.5054C94.3127 20.8805 94.719 20.1639 95.5802 19.9055L100.614 18.3902C101.472 18.1318 102.457 18.4301 102.814 19.055L110.254 32.1573C110.608 32.7823 110.202 33.4988 109.34 33.7572L104.306 35.2726C103.445 35.531 102.46 35.235 102.106 34.6077Z" fill="#ACADBC" fill-opacity="0.2"/>
<path d="M126.29 33.2263L118.851 20.124C118.496 19.4991 118.903 18.7825 119.764 18.5241L124.798 17.0088C125.656 16.7503 126.641 17.0487 126.998 17.6736L134.437 30.7759C134.791 31.4008 134.385 32.1174 133.524 32.3758L128.49 33.8911C127.632 34.1496 126.647 33.8512 126.29 33.2263Z" fill="#ACADBC" fill-opacity="0.2"/>
<path d="M29.8545 192.838L18.6098 181.263C18.0736 180.711 18.2523 179.945 19.0128 179.555L23.462 177.265C24.2224 176.875 25.2722 177.006 25.8084 177.558L37.0531 189.133C37.5893 189.686 37.4106 190.451 36.6501 190.841L32.201 193.132C31.4437 193.522 30.394 193.39 29.8545 192.838Z" fill="#ACADBC" fill-opacity="0.2"/>
<path d="M57.9694 175.787L50.6311 163.201C50.1924 162.45 50.6733 161.583 51.7068 161.263L59.4156 158.881C60.4491 158.561 61.6385 158.912 62.0773 159.663L69.4156 172.249C69.8543 173 69.3733 173.867 68.3398 174.187L60.6311 176.569C59.6008 176.889 58.4081 176.539 57.9694 175.787Z" fill="#ACADBC" fill-opacity="0.2"/>
<path d="M86.8467 66.6645L76.0051 55.5028C75.3583 54.8356 75.5761 53.9146 76.4893 53.4424L83.3271 49.9231C84.2436 49.4509 85.511 49.6106 86.1578 50.2755L96.9995 61.4372C97.6462 62.1044 97.4284 63.0254 96.5152 63.4976L89.6774 67.0169C88.7609 67.4891 87.4935 67.3317 86.8467 66.6645Z" fill="#ACADBC" fill-opacity="0.2"/>
<path d="M50.7702 255.937L43.4319 243.352C42.9931 242.6 43.4741 241.733 44.5076 241.413L52.2164 239.031C53.2499 238.712 54.4393 239.062 54.8781 239.813L62.2164 252.399C62.6551 253.151 62.1741 254.018 61.1406 254.337L53.4318 256.719C52.4016 257.039 51.2089 256.689 50.7702 255.937Z" fill="#ACADBC" fill-opacity="0.2"/>
<path d="M224.102 148.224L196.348 156.802C195.276 157.133 194.037 156.769 193.579 155.989L191.785 152.911C191.33 152.129 191.831 151.229 192.903 150.896L220.657 142.318C221.73 141.987 222.968 142.351 223.426 143.131L225.22 146.209C225.675 146.991 225.175 147.893 224.102 148.224Z" fill="#ACADBC" fill-opacity="0.2"/>
<path d="M130.103 72.5567L105.485 85.2291C104.533 85.7201 103.216 85.5556 102.544 84.8626L99.8917 82.1326C99.219 81.4396 99.4432 80.481 100.395 79.99L125.014 67.3177C125.966 66.8266 127.282 66.9911 127.955 67.6841L130.607 70.4141C131.283 71.1071 131.055 72.0657 130.103 72.5567Z" fill="#ACADBC" fill-opacity="0.2"/>
<path d="M252.941 274.793L227.107 273.047C226.051 272.977 225.274 272.295 225.372 271.525L225.83 267.921C225.927 267.153 226.863 266.587 227.919 266.657L253.753 268.403C254.809 268.473 255.586 269.154 255.488 269.925L255.03 273.529C254.933 274.299 253.997 274.863 252.941 274.793Z" fill="#ACADBC" fill-opacity="0.2"/>
<path d="M255.116 265.139L229.283 263.394C228.227 263.323 227.45 262.642 227.547 261.871L228.006 258.268C228.103 257.499 229.039 256.933 230.095 257.004L255.929 258.749C256.985 258.82 257.762 259.501 257.664 260.272L257.206 263.875C257.108 264.644 256.173 265.21 255.116 265.139Z" fill="#ACADBC" fill-opacity="0.2"/>
<path d="M180.467 274.26L174.218 255.928C173.961 255.178 174.588 254.419 175.618 254.234L180.444 253.362C181.475 253.176 182.518 253.632 182.771 254.382L189.021 272.714C189.278 273.463 188.651 274.222 187.62 274.407L182.794 275.279C181.764 275.467 180.724 275.009 180.467 274.26Z" fill="#ACADBC" fill-opacity="0.2"/>
<path d="M80.4769 68.8048C80.4769 68.8048 90.9839 71.0601 93.2296 76.9077C95.4753 82.7575 86.174 87.2918 84.0746 89.2182C81.9751 91.1447 58.4263 89.4132 58.4263 89.4132C58.4263 89.4132 35.1862 81.4959 34.7767 76.9077C34.3672 72.3194 15.7615 71.5958 37.6496 66.0443C59.5378 60.4928 49.1413 57.5961 59.5378 60.4928C69.9375 63.3895 80.4769 68.8048 80.4769 68.8048Z" fill="#60D394"/>
<path d="M294.399 51.4737C294.399 51.4737 304.906 53.729 307.151 59.5765C309.397 65.4241 300.096 69.9607 297.996 71.8871C295.897 73.8136 272.348 72.0821 272.348 72.0821C272.348 72.0821 249.108 64.1648 248.699 59.5765C248.289 54.9883 229.683 54.2647 251.571 48.7132C273.46 43.1617 263.063 40.2649 273.46 43.1617C283.856 46.0608 294.399 51.4737 294.399 51.4737Z" fill="#FFD97D"/>
<path d="M104.22 153.008C104.22 153.008 102.39 156.818 96.6607 157.948C90.9312 159.081 86.053 156.095 84.0543 155.474C82.0557 154.854 82.8519 146.512 82.8519 146.512C82.8519 146.512 89.8132 137.911 94.3598 137.497C98.9064 137.081 98.8967 130.529 105.276 137.859C111.659 145.189 114.129 141.381 111.659 145.189C109.189 149 104.22 153.008 104.22 153.008Z" fill="#FFD97D"/>
<path d="M16 108.128C33.634 103.502 74.7193 97.178 84.1798 101.778C93.6403 106.376 129.929 106.101 129.929 106.101L163.149 91.4785C163.149 91.4785 213.003 100.481 212.541 81.8744C212.08 63.2653 227.234 33.9502 246.503 27.0525C265.772 20.1548 267.283 12.0049 267.283 12.0049H250.513C250.513 12.0049 241.501 24.9428 233.107 26.094C224.712 27.2428 200.195 43.4932 202.451 52.2304C204.709 60.9676 202.451 76.2736 202.451 76.2736L181.443 81.2471L154.173 78.092C154.173 78.092 142.148 89.4181 140.527 91.4785C138.905 93.5389 124.531 97.5351 115.97 95.456C107.41 93.3744 82.0576 93.5389 82.0576 93.5389C82.0576 93.5389 53.9427 101.785 48.9508 96.9196C43.9557 92.0565 30.0364 94.3048 30.0364 94.3048L16 96.9196V108.128Z" fill="#FFD97D"/>
<path d="M336.945 163.138V179.682C335.083 180.93 332.324 182.558 329.253 183.519C326.909 184.28 324.381 184.613 321.976 184.096C320.952 183.883 319.802 183.991 318.567 184.371C314.784 185.513 310.267 189.089 306.419 192.65C304.306 194.614 302.405 196.593 300.962 198.146C299.269 199.987 298.222 201.235 298.222 201.235C298.222 201.235 278.028 212.406 269.454 214.462C266.318 215.209 263.244 216.959 260.611 218.968C260.004 219.44 259.419 219.912 258.876 220.399C258.268 220.915 257.706 221.449 257.183 221.966C254.508 224.66 252.854 227.247 253.042 228.328C253.439 230.686 253.104 245.008 253.104 245.008L252.984 245.055L249.451 246.41L245.415 247.947L228.648 254.356L215.915 267.475C215.915 267.475 219.471 271.873 224.235 276.745C226.702 279.318 229.545 282.027 232.327 284.294H232.347C233.455 285.191 234.563 286.027 235.649 286.758C240.667 290.106 240.917 298.965 239.139 306.925H224.108C223.566 303.272 222.561 299.468 221.18 295.662C220.407 293.456 219.487 291.264 218.483 289.103C217.667 287.383 216.789 285.677 215.87 284.019C214.469 281.507 212.922 279.071 211.291 276.773C208.801 273.256 206.065 270.061 203.221 267.383C194.251 258.968 205.938 250.625 217.563 245.024C218.713 244.461 219.864 243.944 221.011 243.441C222.119 242.955 223.205 242.482 224.274 242.057C230.212 239.623 234.914 238.19 234.914 238.19L249.529 211.995C249.529 211.995 249.571 211.981 249.633 211.934C249.675 211.92 249.718 211.889 249.779 211.859C250.095 211.675 250.761 211.325 251.681 210.839C252.246 210.52 252.915 210.169 253.689 209.758C255.967 208.572 259.019 207.003 262.428 205.33C271.606 200.885 283.396 195.787 289.753 195.542C295.71 195.315 306.185 188.875 316.305 181.16C318.752 179.304 321.177 177.354 323.516 175.406C328.71 171.083 333.435 166.73 336.945 163.138Z" fill="#FFD97D"/>
<path d="M123.339 302.846C123.173 304.094 122.878 305.297 122.504 306.469C122.442 306.622 122.4 306.774 122.338 306.925H46.2772C46.2577 306.925 46.2577 306.911 46.2577 306.911C45.1495 305.875 44.1258 304.855 43.1833 303.835C40.5704 300.943 38.8349 298.143 38.7082 295.737C38.1232 284.808 11.279 283.088 42.8486 269.862C43.6838 269.511 44.48 269.161 45.2535 268.825C46.82 268.125 48.2629 267.456 49.6019 266.8C72.2245 255.613 60.6613 250.287 74.4409 256.632C78.4351 258.458 82.426 260.727 86.1699 263.039C87.4438 263.845 88.6983 264.667 89.9138 265.473C98.3798 271.104 104.652 276.433 104.652 276.433C104.652 276.433 119.81 281.789 123.05 295.732C123.632 298.204 123.674 300.577 123.339 302.846Z" fill="#60D394"/>
<path d="M254.899 92.8339C230.242 105.689 191.688 105.927 212.546 124.489C233.401 143.051 259.634 163.674 278.496 151.351C297.359 139.029 293.056 140.594 303.101 123.14C313.15 105.687 322.975 91.288 290.801 86.7185C258.626 82.1514 254.899 92.8339 254.899 92.8339Z" fill="#60D394"/>
<path d="M187.161 204.327C171.47 210.212 146.933 210.32 160.206 218.817C173.479 227.315 190.173 236.755 202.175 231.114C214.177 225.473 211.441 226.19 217.833 218.199C224.226 210.209 230.482 203.617 210.008 201.526C189.533 199.438 187.161 204.327 187.161 204.327Z" fill="#60D394"/>
<path d="M116.42 274.133C123.804 282.557 122.884 295.169 135.114 288.875C147.343 282.581 161.015 274.586 153.804 268.071C146.592 261.557 147.457 263.009 136.781 259.228C126.105 255.451 117.34 251.83 113.58 262.222C109.82 272.61 116.42 274.133 116.42 274.133Z" fill="#FFD97D"/>
<path d="M336.94 194.455V210.428L323.674 191.614L321.373 188.344L292.624 147.59L288.048 141.111L268.227 113.008L265.939 109.759L242.861 77.037L240.561 73.7761L222.65 48.3727L220.32 45.0718L198.172 13.6705C197.792 13.1396 197.61 12.5663 197.626 12.0048H208.266L229.826 42.5792L232.127 45.8401L260.918 86.6646L263.219 89.9255L297.064 137.913L301.639 144.393L336.94 194.455Z" fill="white"/>
<path d="M336.942 123.749V131.852L301.638 144.39L292.626 147.588L225.024 171.614L220.504 173.21L170.28 191.053L165.788 192.648L160.413 194.558L121.671 208.323L111.424 211.96L71.8529 226.021L65.9024 228.135L56.2729 231.549C56.1591 231.588 56.0356 231.631 55.9089 231.671L36.4257 238.599L31.9051 240.204L18.1904 245.078C17.4885 245.334 16.7312 245.447 16 245.447V237.741L48.1741 226.317L57.4526 223.025L109.432 204.559C109.558 204.508 109.685 204.468 109.812 204.428L150.956 189.815L159.997 186.596L182.441 178.625L186.932 177.03L253.087 153.536L257.579 151.932L288.053 141.111L297.065 137.911L336.942 123.749Z" fill="white"/>
<path d="M175.042 306.925H165.029C166.179 286.164 161.977 269.392 155.432 256.029C154.639 254.384 153.8 252.803 152.923 251.281C139.228 226.958 118.113 215.209 111.422 211.967C110.148 211.342 109.394 211.022 109.309 210.992C106.904 210.033 106.007 207.811 107.343 206.06C107.908 205.299 108.805 204.752 109.81 204.432C111.149 204.021 112.738 204.052 114.139 204.599C114.431 204.721 117.317 205.894 121.665 208.328C128.942 212.392 140.356 219.987 150.81 232.117C151.041 232.392 151.272 232.664 151.522 232.939C152.985 234.69 154.47 236.576 155.932 238.587C163.313 248.708 170.151 262.163 173.326 279.348C173.765 281.693 174.142 284.113 174.434 286.608C175.169 292.923 175.442 299.679 175.042 306.925Z" fill="white"/>
<path d="M336.943 64.7051V68.497L325.165 71.92L263.222 89.9253L258.324 91.3467C258.028 91.4383 257.706 91.4806 257.398 91.4806C256.4 91.4806 255.461 91.0507 255.081 90.3365C254.561 89.3967 255.194 88.3442 256.471 87.966L260.921 86.6691L320.732 69.2864L325.405 67.9261L336.016 64.8391C336.325 64.7451 336.634 64.7051 336.943 64.7051Z" fill="white"/>
<path d="M325.46 71.8167C325.362 71.8567 325.265 71.8872 325.164 71.9177C324.868 72 324.576 72.0399 324.267 72.0399C323.383 72.0399 322.525 71.6922 322.064 71.079L320.731 69.2818L290.185 28.1918L287.784 24.9614L278.801 12.8741C278.59 12.5992 278.492 12.3032 278.492 12.0048H283.855L292.431 23.5518L294.833 26.7798L325.405 67.9215L326.471 69.3523C327.13 70.2333 326.682 71.3351 325.46 71.8167Z" fill="white"/>
<path d="M160.694 257.506C160.365 257.506 160.031 257.459 159.709 257.361L61.8151 226.855C60.5444 226.457 59.9562 225.389 60.4989 224.461C61.0416 223.537 62.5106 223.107 63.7846 223.502L161.678 254.008C162.949 254.405 163.537 255.474 162.994 256.402C162.591 257.093 161.665 257.506 160.694 257.506Z" fill="white"/>
<path d="M113.72 242.908L113.616 242.999L89.908 265.48L63.0021 291.02L59.6969 294.156L46.252 306.911L46.2325 306.925H39.918L43.1809 303.835L55.9335 291.734L59.5929 288.248L86.1674 263.044L108.871 241.521L109.749 240.699C110.584 239.893 112.154 239.741 113.239 240.349C114.347 240.976 114.555 242.116 113.72 242.908Z" fill="white"/>
<path d="M204.308 243.624C203.411 243.624 202.544 243.272 202.092 242.654L163.486 189.479C162.839 188.591 163.307 187.487 164.529 187.017C165.751 186.544 167.266 186.885 167.913 187.775L206.518 240.951C207.165 241.839 206.697 242.943 205.475 243.413C205.101 243.556 204.702 243.624 204.308 243.624Z" fill="white"/>
<path d="M270.609 237.838C269.725 237.838 268.867 237.495 268.412 236.891L218.159 170.087C217.496 169.204 217.941 168.097 219.153 167.613C220.366 167.13 221.887 167.454 222.549 168.337L272.803 235.141C273.466 236.022 273.021 237.131 271.808 237.614C271.428 237.765 271.019 237.838 270.609 237.838Z" fill="white"/>
<path d="M251.402 212.307C250.405 212.307 249.465 211.87 249.075 211.156C248.565 210.221 249.196 209.162 250.479 208.79L326.277 186.934C327.561 186.566 329.017 187.021 329.527 187.959C330.037 188.894 329.407 189.953 328.123 190.325L252.325 212.181C252.023 212.265 251.711 212.307 251.402 212.307Z" fill="white"/>
<path d="M336.943 253.837V257.506C336.816 257.506 336.719 257.506 336.592 257.485L304.405 254.123V254.114L299.423 253.592L261.874 249.669L256.891 249.147L203.973 243.608L155.94 238.589V238.58L147.786 237.732C146.804 237.631 145.988 237.098 145.722 236.393C145.468 235.679 145.819 234.932 146.619 234.483L150.814 232.122L181.809 214.708L183.479 213.769C184.575 213.155 186.147 213.308 186.989 214.107C187.074 214.189 187.158 214.281 187.213 214.372C187.776 215.138 187.522 216.109 186.541 216.661L184.181 217.988L154.367 234.737L199.791 239.489L205.939 240.133L257.597 245.539L262.595 246.06L300.145 249.984L305.114 250.505L336.943 253.837Z" fill="white"/>
<path d="M329.336 16.3063L294.839 26.7797L290.175 28.194L232.119 45.8352L227.309 47.2965C227.247 47.3106 227.182 47.3271 227.12 47.3412C226.87 47.4164 225.469 47.7359 223.253 48.2386C223.064 48.2833 222.856 48.3302 222.645 48.3749C218.066 49.3945 210.562 50.9615 202.45 52.2255C195.697 53.2897 188.528 54.159 182.317 54.3117C181.628 54.3258 180.959 54.3422 180.289 54.3422C178.869 54.3422 177.488 54.2976 176.214 54.206C175.899 54.1754 175.567 54.1308 175.275 54.1002C167.706 53.036 161.391 45.9269 156.562 37.8451C155.892 36.7033 155.245 35.5475 154.618 34.3751C149.392 24.5878 146.318 14.4527 145.691 12.3806C145.648 12.2584 145.629 12.1222 145.629 12H150.709C152.736 18.8201 156.165 27.4939 160.325 34.892C160.409 34.9977 160.471 35.1058 160.513 35.228C165.301 43.5376 170.988 50.158 176.718 50.5692C183.702 51.086 193.715 49.9137 202.873 48.4242C209.73 47.2989 216.087 45.9879 220.331 45.0764C223.175 44.4515 225.057 44.0122 225.476 43.9041L226.353 43.6457L229.824 42.5814L287.793 24.9684L292.434 23.5541L324.38 13.8442C326.178 14.4974 327.851 15.3337 329.336 16.3063Z" fill="white"/>
<path d="M186.94 182.908C186.033 182.908 185.156 182.548 184.714 181.919C156.173 141.522 155.76 114.175 183.46 98.3101C190.606 94.2176 194.441 89.244 194.86 83.5281C195.929 68.941 174.938 53.8441 174.724 53.6914C173.736 52.989 173.716 51.8354 174.681 51.1142C175.647 50.3953 177.233 50.3788 178.221 51.0813C179.153 51.7438 201.045 67.4656 199.862 83.709C199.368 90.5221 194.889 96.3978 186.557 101.172C161.042 115.785 161.896 141.651 189.166 180.248C189.8 181.143 189.316 182.24 188.084 182.703C187.714 182.842 187.324 182.908 186.94 182.908Z" fill="white"/>
<path d="M167.031 144.125C166.056 144.125 165.13 143.709 164.727 143.016C164.187 142.088 164.779 141.019 166.053 140.627L270.736 108.276C272.01 107.881 273.479 108.316 274.018 109.242C274.558 110.17 273.966 111.239 272.692 111.631L168.009 143.981C167.691 144.08 167.359 144.125 167.031 144.125Z" fill="white"/>
<path d="M247.315 75.6579L242.866 77.037L197.581 91.0367L196.626 91.3327C196.304 91.4244 195.979 91.4761 195.644 91.4761C195.196 91.4761 194.747 91.3844 194.338 91.2106L192.486 90.393L148.297 70.8441L143.691 68.8119L91.0819 45.5323L90.2825 45.1846C89.7787 44.9708 89.3985 44.6231 89.2165 44.2143L88.261 42.1704L74.3936 12.5969C74.2962 12.4019 74.2539 12.1975 74.2539 12.0048H79.392L93.2594 41.5877L93.6526 42.4147L98.6932 44.6419L149.493 67.1134L194.185 86.876L195.843 87.6114L199.408 86.5072L240.565 73.7738L245.365 72.2913C246.629 71.9037 248.101 72.3313 248.65 73.2616C249.183 74.1872 248.592 75.2609 247.315 75.6579Z" fill="white"/>
<path d="M190.523 137.02C190.003 135.848 189.356 134.723 188.534 133.672C184.586 128.452 177.182 124.83 168.564 124.433H168.538C168.04 124.418 167.543 124.402 167.023 124.402C166.627 124.402 166.227 124.402 165.83 124.433C165.034 124.449 164.215 124.508 163.445 124.599H163.422C153.783 125.633 145.983 130.733 143.377 137.429V137.443C142.756 138.98 142.457 140.624 142.457 142.299C142.457 143.516 142.607 144.719 142.928 145.861C145.213 154.02 155.151 160.199 167.023 160.199C168.463 160.199 169.929 160.107 171.297 159.924C172.116 159.818 172.912 159.696 173.682 159.529C174.527 159.363 175.346 159.165 176.116 158.921H176.142C185.184 156.273 191.618 149.82 191.618 142.299C191.618 140.46 191.245 138.695 190.523 137.02ZM174.501 155.484H174.475C173.679 155.728 172.86 155.925 172.041 156.078H172.015C171.219 156.231 170.448 156.353 169.63 156.428C168.759 156.52 167.914 156.564 167.02 156.564C156.214 156.564 147.446 150.172 147.446 142.304C147.446 135.425 154.105 129.716 163.022 128.347H163.048C163.845 128.224 164.615 128.149 165.434 128.102C165.957 128.072 166.477 128.058 167.023 128.058C167.397 128.058 167.741 128.058 168.092 128.072H168.118C174.849 128.347 180.689 131.1 183.916 135.103C184.761 136.139 185.431 137.265 185.879 138.451V138.467C186.35 139.684 186.601 140.979 186.601 142.304C186.601 148.238 181.583 153.336 174.501 155.484Z" fill="white"/>
<path d="M270.612 237.84C269.718 237.84 268.873 237.49 268.425 236.896L267.804 236.059C267.804 236.059 267.804 236.059 267.804 236.045L267.281 235.376H267.255C262.51 237.795 259.032 241.357 257.593 245.544L258.587 245.649L262.588 246.06C264.005 242.438 267.333 239.409 271.804 237.612C271.434 237.765 271.011 237.84 270.612 237.84ZM270.612 237.84C269.718 237.84 268.873 237.49 268.425 236.896L267.804 236.059C267.804 236.059 267.804 236.059 267.804 236.045L267.281 235.376H267.255C262.51 237.795 259.032 241.357 257.593 245.544L258.587 245.649L262.588 246.06C264.005 242.438 267.333 239.409 271.804 237.612C271.434 237.765 271.011 237.84 270.612 237.84ZM270.612 237.84C269.718 237.84 268.873 237.49 268.425 236.896L267.804 236.059L267.281 235.373H267.255C262.51 237.793 259.032 241.355 257.593 245.541L258.587 245.647L262.588 246.058C264.005 242.435 267.333 239.407 271.804 237.61C271.434 237.765 271.011 237.84 270.612 237.84ZM280.995 232.253C277.716 232.253 274.538 232.74 271.681 233.623H271.655C270.885 233.867 270.114 234.126 269.419 234.415C268.97 234.598 268.525 234.779 268.103 234.979C267.83 235.101 267.557 235.237 267.284 235.373H267.258C262.513 237.793 259.036 241.355 257.596 245.541C257.521 245.755 257.446 245.966 257.398 246.18C257.297 246.514 257.199 246.864 257.151 247.214C257.001 247.853 256.926 248.492 256.9 249.147C256.852 249.375 256.852 249.589 256.852 249.831C256.852 259.51 267.706 267.411 280.998 267.411C292.276 267.411 301.765 261.749 304.424 254.123V254.109C304.82 252.953 305.044 251.75 305.119 250.503V249.833C305.116 240.138 294.31 232.253 280.995 232.253ZM280.995 263.76C270.436 263.76 261.866 257.504 261.866 249.833V249.667C261.915 248.419 262.139 247.202 262.588 246.06C264.005 242.438 267.333 239.409 271.804 237.612H271.83C274.538 236.531 277.667 235.907 280.995 235.907C291.554 235.907 300.124 242.163 300.124 249.833V249.986C300.124 251.234 299.877 252.451 299.429 253.592C297.167 259.452 289.767 263.76 280.995 263.76ZM270.612 237.84C269.718 237.84 268.873 237.49 268.425 236.896L267.804 236.059C267.804 236.059 267.804 236.059 267.804 236.045L267.281 235.376H267.255C262.51 237.795 259.032 241.357 257.593 245.544L258.587 245.649L262.588 246.06C264.005 242.438 267.333 239.409 271.804 237.612C271.434 237.765 271.011 237.84 270.612 237.84ZM270.612 237.84C269.718 237.84 268.873 237.49 268.425 236.896L267.804 236.059C267.804 236.059 267.804 236.059 267.804 236.045L267.281 235.376H267.255C262.51 237.795 259.032 241.357 257.593 245.544L258.587 245.649L262.588 246.06C264.005 242.438 267.333 239.409 271.804 237.612C271.434 237.765 271.011 237.84 270.612 237.84Z" fill="white"/>
<path d="M257.399 157.878C256.447 157.878 255.537 157.481 255.117 156.809L233.33 121.86C232.758 120.944 233.317 119.863 234.575 119.447C235.832 119.031 237.318 119.438 237.886 120.354L259.674 155.303C260.246 156.219 259.687 157.3 258.429 157.716C258.094 157.826 257.743 157.878 257.399 157.878Z" fill="white"/>
<path d="M324.799 305.205C321.809 306.316 318.443 306.925 314.868 306.925H313.759C301.676 297.368 284.364 290.761 261.868 287.155C260.237 286.897 258.566 286.652 256.85 286.408C252.879 285.875 248.781 285.419 244.514 285.052C240.415 284.702 236.34 284.444 232.346 284.291H232.326C229.506 284.169 226.724 284.077 223.984 284.047C222.291 284.016 220.598 284.002 218.947 284.002C217.9 284.002 216.876 284.002 215.872 284.016C197.201 284.153 181.647 285.75 174.436 286.603C171.719 286.939 170.172 287.15 170.107 287.167C167.41 287.578 164.754 286.314 164.189 284.336C163.623 282.372 165.359 280.438 168.079 280.03C168.394 279.985 170.234 279.71 173.328 279.346C180.5 278.479 194.361 277.079 211.296 276.773C215.437 276.682 219.785 276.668 224.237 276.743C231.137 276.865 238.349 277.184 245.667 277.807C281.543 280.882 308.261 290.214 324.799 305.205Z" fill="white"/>
<path d="M123.337 302.846L144.098 306.925H124.865L122.502 306.469L59.6978 294.156L58.0891 293.837C57.2733 293.67 56.6266 293.228 56.3731 292.664L55.9344 291.736L45.2487 268.828L31.8915 240.199L30.1788 236.515C29.7401 235.556 30.4291 234.52 31.7453 234.201C33.042 233.865 34.4622 234.384 34.9237 235.343L36.4512 238.599L49.6003 266.803L59.5938 288.248L60.6825 290.562L63.0029 291.017L123.337 302.846Z" fill="white"/>
<path d="M221.182 295.662C220.012 297.793 218.381 299.968 216.122 302.085C214.198 303.88 211.962 305.511 209.43 306.925C209.388 306.972 209.346 306.986 209.304 307L208.696 306.925H200.207C200.542 306.789 200.877 306.666 201.211 306.53C201.358 306.469 201.504 306.408 201.65 306.333C201.692 306.333 201.734 306.319 201.754 306.302C205.956 304.568 209.408 302.421 212.124 299.879C215.972 296.301 217.727 292.422 218.481 289.103C218.9 287.155 219.004 285.388 218.943 284.005C218.881 282.027 218.546 280.777 218.546 280.732C218.254 279.757 219.131 278.784 220.47 278.587C221.829 278.373 223.145 278.998 223.441 279.987C223.502 280.154 223.922 281.693 223.983 284.052C224.087 286.986 223.629 291.217 221.182 295.662Z" fill="white"/>
<path d="M261.869 283.06V306.925H256.852V283.06C256.852 282.055 257.979 281.249 259.38 281.249C260.742 281.249 261.869 282.055 261.869 283.06Z" fill="white"/>
<path d="M208.702 306.925H200.652C200.799 306.758 201.007 306.636 201.218 306.53C201.364 306.469 201.51 306.408 201.657 306.333C201.699 306.333 201.741 306.319 201.761 306.302C202.157 306.211 202.596 306.166 203.057 306.227L208.702 306.925Z" fill="white"/>
<path d="M158.548 37.6032L156.569 37.8381L98.6946 44.6441L91.0995 45.5322H91.0865L59.6437 49.2324L54.1676 49.8761L27.9473 52.9632L22.9652 53.5458L16.3971 54.3234C16.2574 54.3328 16.1437 54.3446 16.0039 54.3446V50.6655L24.4959 49.6741L88.2656 42.1726L93.264 41.59L154.619 34.3752L157.749 34.0063C159.11 33.8536 160.401 34.5279 160.612 35.5193C160.836 36.5107 159.91 37.4387 158.548 37.6032Z" fill="white"/>
<path d="M53.9941 231.95C51.8687 231.95 49.8992 230.959 49.2232 229.403C49.0445 228.99 31.8492 187.855 85.177 172.009C138.501 156.167 162.372 189.324 162.606 189.66C163.857 191.455 162.873 193.647 160.409 194.558C157.942 195.47 154.93 194.753 153.679 192.958C152.886 191.84 133.617 165.485 88.9599 178.756C70.1461 184.348 59.3499 194.138 56.867 207.853C54.9756 218.315 58.7292 227.115 58.7682 227.202C59.6034 229.119 58.141 231.168 55.5086 231.776C55.0048 231.896 54.4946 231.95 53.9941 231.95Z" fill="white"/>
<path d="M91.5848 175.97C90.86 175.97 90.1418 175.742 89.6478 175.303C88.7703 174.525 88.9263 173.376 89.9956 172.737L141.572 141.956L53.2683 48.9293C52.4819 48.1 52.7679 46.9653 53.9053 46.3944C55.0428 45.8235 56.6028 46.0302 57.386 46.8572L147.002 141.268C147.743 142.048 147.538 143.112 146.531 143.714L93.1707 175.557C92.706 175.834 92.1438 175.97 91.5848 175.97Z" fill="white"/>
<path d="M100.139 96.9194C99.3822 96.9194 98.6348 96.6703 98.1408 96.1958C97.3055 95.3923 97.5233 94.2505 98.625 93.642L146.629 67.1908C147.731 66.5846 149.301 66.742 150.136 67.5432C150.971 68.3466 150.754 69.4884 149.652 70.0969L101.647 96.5505C101.196 96.7995 100.663 96.9194 100.139 96.9194Z" fill="white"/>
<path d="M53.1575 71.584C47.532 71.584 42.4914 70.6701 38.0715 68.8447C25.0556 63.467 22.5142 52.2278 22.4134 51.7509C22.1989 50.7571 23.1349 49.8244 24.4999 49.6693C25.8648 49.5143 27.142 50.1932 27.3565 51.187C27.3825 51.2998 29.677 61.2046 40.5772 65.6895C48.4939 68.9457 59.0951 68.6614 72.0883 64.8437C73.372 64.4655 74.8279 64.9166 75.3447 65.8516C75.8614 66.7843 75.2439 67.8486 73.9602 68.2245C66.3424 70.4634 59.3909 71.584 53.1575 71.584Z" fill="white"/>
<path d="M84.5698 79.8678L82.9124 80.1545L59.0645 84.2L54.1669 85.0388L41.645 87.1649L36.7312 87.9919L16.5622 91.4266C16.3672 91.4666 16.1982 91.4783 16 91.4783V87.7781L37.8426 84.0685C37.8979 84.0591 37.9401 84.0591 37.9824 84.0473L79.8542 76.9359L83.4324 76.3227C84.4853 76.1394 85.5383 76.4754 86.1005 77.1097C86.2565 77.2836 86.367 77.4786 86.4385 77.6829C86.7473 78.6626 85.9185 79.6447 84.5698 79.8678Z" fill="white"/>
<path d="M103.062 130.144C98.0603 130.144 94.0369 125.454 90.1273 120.897C86.8026 117.023 82.6622 112.207 79.656 112.782C68.6649 114.906 57.1667 91.631 53.9038 84.4491C53.4715 83.4929 54.1833 82.4639 55.493 82.1467C56.8027 81.8343 58.2197 82.3511 58.6552 83.3049C65.2752 97.8826 74.4952 109.993 78.3723 109.26C84.9534 107.992 89.7405 113.572 94.3716 118.966C97.3323 122.417 101.391 127.148 103.699 126.375C112.09 123.584 122.734 118.879 122.841 118.829C124.021 118.308 125.561 118.58 126.279 119.438C126.997 120.298 126.624 121.418 125.444 121.942C124.999 122.14 114.443 126.808 105.779 129.69C104.84 130 103.936 130.144 103.062 130.144Z" fill="white"/>
<path d="M54.4204 202.139L47.9921 202.948L16.4225 206.901C16.2827 206.923 16.143 206.932 16 206.932V203.262L49.3798 199.074L53.5754 198.543C54.9242 198.378 56.2274 199.043 56.4679 200.034C56.6921 201.026 55.7821 201.966 54.4204 202.139Z" fill="white"/>
<path d="M62.1974 191.581C61.749 191.807 61.2582 191.917 60.7512 191.917C59.9648 191.917 59.1945 191.652 58.7005 191.142L56.1591 188.537L30.6278 162.233C30.5303 162.151 30.4458 162.069 30.3743 161.977L16 147.181V142.194C16.7865 142.194 17.5437 142.468 18.0344 142.971L31.6093 156.94L35.2297 160.671L59.2888 185.443L62.7824 189.049C63.5852 189.866 63.3187 190.999 62.1974 191.581Z" fill="white"/>
<path d="M81.6792 178.998C80.6392 178.998 79.6708 178.526 79.3133 177.772L36.005 86.446C35.5533 85.4945 36.2487 84.4561 37.5552 84.1295C38.8649 83.8006 40.2884 84.3057 40.7369 85.2572L84.0451 176.581C84.4969 177.532 83.8014 178.571 82.4949 178.897C82.2252 178.965 81.949 178.998 81.6792 178.998Z" fill="white"/>
<path d="M32.5463 162.877C32.413 162.877 32.2798 162.87 32.1465 162.854C30.7848 162.694 29.8553 161.766 30.0698 160.772C30.1478 160.42 32.0588 152.075 41.8898 147.386C48.7308 144.122 57.5511 143.481 68.11 145.478C69.449 145.729 70.2517 146.725 69.904 147.7C69.5562 148.675 68.188 149.26 66.8523 149.007C57.7428 147.287 50.2778 147.759 44.6749 150.416C36.6997 154.196 35.0292 161.277 35.0129 161.348C34.8147 162.241 33.752 162.877 32.5463 162.877Z" fill="white"/>
<path d="M53.6599 118.496L51.4012 118.935L16.6467 125.692C16.4225 125.732 16.2242 125.753 16 125.753V122.053L49.773 115.482L52.3697 114.972C53.5754 114.746 54.7974 115.186 55.2881 115.973C55.3434 116.064 55.3856 116.168 55.4279 116.269C55.7951 117.239 54.9956 118.242 53.6599 118.496Z" fill="white"/>
</g>
</g>
<defs>
<filter id="filter0_d_333_3689" x="0" y="0" width="352.945" height="327" filterUnits="userSpaceOnUse" color-interpolation-filters="sRGB">
<feFlood flood-opacity="0" result="BackgroundImageFix"/>
<feColorMatrix in="SourceAlpha" type="matrix" values="0 0 0 0 0 0 0 0 0 0 0 0 0 0 0 0 0 0 127 0" result="hardAlpha"/>
<feOffset dy="4"/>
<feGaussianBlur stdDeviation="8"/>
<feComposite in2="hardAlpha" operator="out"/>
<feColorMatrix type="matrix" values="0 0 0 0 0 0 0 0 0 0 0 0 0 0 0 0 0 0 0.15 0"/>
<feBlend mode="normal" in2="BackgroundImageFix" result="effect1_dropShadow_333_3689"/>
<feBlend mode="normal" in="SourceGraphic" in2="effect1_dropShadow_333_3689" result="shape"/>
</filter>
<clipPath id="clip0_333_3689">
<rect width="320.945" height="295" fill="white" transform="translate(16 12)"/>
</clipPath>
</defs>
</svg>
