<svg width="332" height="399" viewBox="0 0 332 399" fill="none" xmlns="http://www.w3.org/2000/svg">
<path d="M72.932 207.014H96.6578L115.994 391.706H53.2905L72.932 207.014Z" fill="#93642D"/>
<path d="M72.7614 207.014H96.3322L106.58 306.421H62.5132L72.7614 207.014Z" fill="#714D22"/>
<path d="M155.911 289.548C179.563 291.932 163.892 263.488 152.459 238.195C141.026 212.902 116.29 165.321 78.322 165.321C47.2095 165.321 -11.746 276.964 2.0605 287.468C13.1057 295.872 39.0328 289.278 56.2909 276.05C61.4683 287.722 69.2855 293.185 81.7114 294.118C94.1372 295.052 101.384 286.555 111.164 276.05C114.616 279.941 135.276 287.468 155.911 289.548Z" fill="#66A865"/>
<path fill-rule="evenodd" clip-rule="evenodd" d="M151.45 235.365C137.193 207.305 112.548 170.119 77.5615 170.119C59.5664 170.119 32.9982 204.495 14.3477 238.368C27.0412 237.084 42.1095 230.976 53.6253 222.15C59.2505 234.831 68.4851 248.016 81.9855 249.03C95.4858 250.045 105.556 236.815 113.244 222.15C116.409 225.718 132.9 232.103 151.45 235.365Z" fill="#458244"/>
<path d="M155.911 225.279C178.547 232.539 163.892 199.219 152.459 173.926C141.026 148.633 116.29 101.052 78.322 101.052C47.2095 101.052 -11.746 212.695 2.06051 223.199C13.1057 231.603 39.0328 211.006 56.2909 197.779C61.4683 209.45 69.2855 228.916 81.7114 229.849C94.1372 230.783 101.384 208.283 111.164 197.779C114.616 201.669 135.276 218.661 155.911 225.279Z" fill="#83C082"/>
<path fill-rule="evenodd" clip-rule="evenodd" d="M140.78 147.931C146.258 159.597 150.268 168.136 149.624 168.071C132.088 166.31 111.755 158.568 108.822 155.273C102.809 166.705 93.5712 173.986 83.0111 173.195C72.4509 172.405 62.8155 163.609 58.4154 153.724C43.7485 164.927 16.5366 169.096 18.4478 166.022C21.7171 160.762 24.7724 154.951 27.6809 148.842C45.1701 120.83 66.4703 96.3335 81.6612 96.3335C100.016 96.3335 115.524 106.568 128.18 120.35C128.832 121.994 129.487 123.56 130.153 125.029C133.769 133.001 137.532 141.015 140.78 147.931Z" fill="#458244"/>
<path d="M148.599 149.623C164.996 155.259 152.76 126.185 143.475 105.556C134.19 84.9261 110.76 52.3968 80.0033 50.2104C51.2414 48.1658 4.1604 137.981 15.3727 146.548C24.3426 153.402 48.0963 139.89 62.1117 129.102C66.3163 138.621 72.6647 154.497 82.7558 155.259C92.8469 156.02 98.7324 137.669 106.674 129.102C109.477 132.275 133.978 144.597 148.599 149.623Z" fill="#66A865"/>
<path fill-rule="evenodd" clip-rule="evenodd" d="M135.371 90.0164C138.709 95.9044 140.752 99.5087 140.4 99.4083C139.639 99.1908 138.701 98.9287 137.628 98.6287C128.584 96.1013 109.934 90.8889 106.581 87.1105C104.533 89.6793 102.683 92.0667 100.989 94.2524C93.4871 103.933 89.0518 109.656 84.0354 109.656C77.7375 109.656 73.9927 104.244 69.228 97.3579C66.9951 94.1307 64.5381 90.5797 61.4895 87.1105C42.739 101.482 29.7202 100.433 29.7202 100.433C29.7202 100.433 36.6455 74.7743 48.7765 51.5685C59.8208 39.0723 70.7545 30.7449 79.6115 30.7449C90.5018 30.7449 100.39 34.3478 109.275 40.1569C109.402 40.4329 109.528 40.7118 109.656 40.9937C117.819 59.0529 128.973 78.7301 135.371 90.0164Z" fill="#458244"/>
<path d="M133.152 84.9789C147.027 92.9627 138.5 67.1523 130.84 49.8501C123.18 32.5479 106.607 -7.76005e-06 81.1689 4.42229e-06C60.324 1.4405e-05 20.8246 76.3707 30.0748 83.5561C37.4749 89.3044 54.8457 75.2153 66.4084 66.167C69.8772 74.1508 75.1146 87.4663 83.4398 88.105C91.7649 88.7437 96.6204 73.3524 103.173 66.167C105.485 68.8283 122.052 78.5918 133.152 84.9789Z" fill="#83C082"/>
<rect x="284.655" y="303.321" width="20.0956" height="94.7366" fill="#93642D"/>
<rect x="284.71" y="268.294" width="20.0956" height="94.7366" fill="#714D22"/>
<rect x="259.041" y="266.262" width="72.7271" height="72.7271" rx="36.3636" fill="#83C082"/>
<rect x="262.702" y="219.949" width="66.555" height="66.555" rx="33.2775" fill="#66A865"/>
<rect x="267.583" y="184" width="56.2859" height="56.2859" rx="28.1429" fill="#83C082"/>
<path fill-rule="evenodd" clip-rule="evenodd" d="M259.266 298.693C259.09 300.142 259 301.617 259 303.112C259 323.195 275.281 339.476 295.364 339.476C315.447 339.476 331.727 323.195 331.727 303.112C331.727 301.617 331.637 300.142 331.461 298.693C329.281 316.692 313.951 330.638 295.364 330.638C276.776 330.638 261.446 316.692 259.266 298.693Z" fill="#679A66"/>
<rect x="197.959" y="262.39" width="26.297" height="123.972" fill="#93642D"/>
<rect x="198.03" y="216.555" width="26.297" height="123.972" fill="#714D22"/>
<path d="M268 266.691C268 299.125 241.707 325.418 209.273 325.418C176.839 325.418 150.546 299.125 150.546 266.691C150.546 234.257 176.839 168.813 209.273 168.813C241.707 168.813 268 234.257 268 266.691Z" fill="#66A865"/>
<path fill-rule="evenodd" clip-rule="evenodd" d="M266.221 252.925C260.67 279.589 237.038 299.622 208.727 299.622C180.416 299.622 156.784 279.589 151.233 252.925C150.425 257.912 150 262.569 150 266.691C150 299.125 176.293 325.418 208.727 325.418C241.161 325.418 267.454 299.125 267.454 266.691C267.454 262.569 267.029 257.912 266.221 252.925Z" fill="#458244"/>
<path d="M258.39 191.499C258.39 217.843 236.615 239.198 209.755 239.198C182.895 239.198 161.12 217.843 161.12 191.499C161.12 165.155 182.895 112 209.755 112C236.615 112 258.39 165.155 258.39 191.499Z" fill="#83C082"/>
</svg>
