<svg width="304" height="426" viewBox="0 0 304 426" fill="none" xmlns="http://www.w3.org/2000/svg">
<rect x="10.0814" y="292.45" width="60.7453" height="60.7453" rx="30.3727" fill="#66A865"/>
<path d="M55.6416 312.7C55.6416 304.312 62.4408 297.513 70.8279 297.513V297.513V297.513C70.8279 305.9 64.0288 312.7 55.6416 312.7V312.7V312.7Z" fill="#66A865"/>
<path d="M31.8141 307.311C24.0266 306.577 18.3089 299.669 19.0432 291.881V291.881V291.881C26.8307 292.616 32.5484 299.524 31.8141 307.311V307.311V307.311Z" fill="#66A865"/>
<path d="M19.9543 332.652C13.9653 337.683 5.03142 336.907 -0.000193025 330.918V330.918V330.918C5.98874 325.887 14.9227 326.663 19.9543 332.652V332.652V332.652Z" fill="#66A865"/>
<path d="M76.2931 337.488C70.3042 342.52 61.3703 341.744 56.3387 335.755V335.755V335.755C62.3276 330.723 71.2615 331.499 76.2931 337.488V337.488V337.488Z" fill="#66A865"/>
<rect x="107.276" y="332.053" width="60.7453" height="60.7453" rx="30.3727" transform="rotate(119.838 107.276 332.053)" fill="#66A865"/>
<path d="M67.0441 361.499C74.3194 365.672 76.8344 374.953 72.6614 382.228V382.228V382.228C65.386 378.055 62.8711 368.775 67.0441 361.499V361.499V361.499Z" fill="#66A865"/>
<path d="M83.5736 343.51C88.0852 337.12 96.9225 335.598 103.312 340.109V340.109V340.109C98.8008 346.499 89.9634 348.022 83.5736 343.51V343.51V343.51Z" fill="#66A865"/>
<path d="M67.4923 320.615C66.1075 312.916 71.2257 305.553 78.9242 304.168V304.168V304.168C80.309 311.867 75.1908 319.23 67.4923 320.615V320.615V320.615Z" fill="#66A865"/>
<path d="M35.265 367.08C33.8802 359.381 38.9984 352.018 46.6969 350.633V350.633V350.633C48.0817 358.332 42.9635 365.695 35.265 367.08V367.08V367.08Z" fill="#66A865"/>
<rect x="134.322" y="318.144" width="60.7453" height="60.7453" rx="30.3727" transform="rotate(119.838 134.322 318.144)" fill="#66A865"/>
<path d="M94.0893 347.587C101.365 351.76 103.88 361.041 99.7066 368.316V368.316V368.316C92.4312 364.143 89.9162 354.863 94.0893 347.587V347.587V347.587Z" fill="#66A865"/>
<path d="M110.619 329.6C115.13 323.21 123.968 321.687 130.358 326.199V326.199V326.199C125.846 332.589 117.009 334.111 110.619 329.6V329.6V329.6Z" fill="#66A865"/>
<path d="M62.3103 353.168C60.9255 345.469 66.0437 338.106 73.7422 336.721V336.721V336.721C75.127 344.419 70.0088 351.783 62.3103 353.168V353.168V353.168Z" fill="#66A865"/>
<path d="M91.106 277.38C104.726 285.192 109.434 302.566 101.622 316.186V316.186C93.8098 329.806 76.4358 334.514 62.8159 326.702V326.702C49.1961 318.89 44.488 301.516 52.3001 287.896V287.896C60.1122 274.276 77.4862 269.568 91.106 277.38V277.38Z" fill="#66A865"/>
<path d="M79.7034 318.725C86.5133 322.631 88.8673 331.318 84.9613 338.128V338.128V338.128C78.1514 334.222 75.7973 325.535 79.7034 318.725V318.725V318.725Z" fill="#66A865"/>
<path d="M95.1748 301.886C99.3978 295.905 107.67 294.48 113.651 298.703V298.703V298.703C109.428 304.684 101.156 306.109 95.1748 301.886V301.886V301.886Z" fill="#66A865"/>
<path d="M80.1239 280.456C78.8277 273.251 83.6184 266.358 90.8244 265.062V265.062V265.062C92.1207 272.268 87.3299 279.16 80.1239 280.456V280.456V280.456Z" fill="#66A865"/>
<path d="M49.9588 323.948C48.6625 316.742 53.4533 309.85 60.6593 308.554V308.554V308.554C61.9555 315.76 57.1647 322.652 49.9588 323.948V323.948V323.948Z" fill="#66A865"/>
<rect x="28.6984" y="273.239" width="56.8591" height="56.8591" rx="28.4296" transform="rotate(8.46442 28.6984 273.239)" fill="#66A865"/>
<path d="M68.0892 298.262C69.2447 290.497 76.4764 285.138 84.2415 286.294V286.294V286.294C83.0859 294.059 75.8543 299.417 68.0892 298.262V298.262V298.262Z" fill="#66A865"/>
<path d="M46.7699 289.991C39.6612 288.239 35.3193 281.055 37.0721 273.946V273.946V273.946C44.1809 275.699 48.5227 282.883 46.7699 289.991V289.991V289.991Z" fill="#66A865"/>
<path d="M32.299 311.818C26.061 315.651 17.8967 313.701 14.0634 307.463V307.463V307.463C20.3014 303.63 28.4657 305.58 32.299 311.818V311.818V311.818Z" fill="#66A865"/>
<path d="M83.7929 324.059C77.5549 327.893 69.3906 325.943 65.5573 319.705V319.705V319.705C71.7953 315.872 79.9596 317.822 83.7929 324.059V324.059V324.059Z" fill="#66A865"/>
<rect x="108.426" y="309.37" width="56.8591" height="56.8591" rx="28.4296" transform="rotate(119.838 108.426 309.37)" fill="#66A865"/>
<path d="M70.7669 336.931C77.5768 340.837 79.9308 349.524 76.0248 356.334V356.334V356.334C69.2149 352.428 66.8608 343.741 70.7669 336.931V336.931V336.931Z" fill="#66A865"/>
<path d="M86.2383 320.092C90.4613 314.111 98.7332 312.686 104.714 316.909V316.909V316.909C100.491 322.89 92.2193 324.315 86.2383 320.092V320.092V320.092Z" fill="#66A865"/>
<path d="M71.1874 298.663C69.8911 291.457 74.6819 284.564 81.8879 283.268V283.268V283.268C83.1841 290.474 78.3934 297.367 71.1874 298.663V298.663V298.663Z" fill="#66A865"/>
<path d="M41.0222 342.154C39.726 334.949 44.5168 328.056 51.7227 326.76V326.76V326.76C53.019 333.966 48.2282 340.858 41.0222 342.154V342.154V342.154Z" fill="#66A865"/>
<path fill-rule="evenodd" clip-rule="evenodd" d="M111.32 319.666C110.804 324.014 109.067 328.268 106.06 331.886L104.988 333.175C97.7813 341.843 85.6514 344.003 76.0556 338.97C75.6453 339.569 75.2037 340.153 74.7307 340.722L73.6588 342.012C65.3714 351.979 50.5726 353.342 40.6048 345.054C34.1054 339.65 31.2647 331.478 32.3722 323.682C28.5128 326.231 23.8883 327.714 18.9173 327.714C15.9365 327.714 13.0802 327.181 10.4389 326.204C10.4928 326.688 10.5581 327.169 10.6345 327.646C6.98337 327.295 3.19926 328.354 0.169067 330.9C3.46586 334.824 8.43792 336.51 13.1592 335.791C17.5648 345.092 26.5556 351.797 37.2127 352.988C37.5269 353.919 37.8861 354.835 38.2894 355.733C35.8437 358.811 34.6838 362.885 35.4344 367.058C38.4086 366.523 40.9976 365.095 42.9754 363.101C45.1612 365.637 47.8067 367.852 50.8759 369.612C55.6271 372.338 60.8058 373.637 65.917 373.644C67.0288 377.136 69.4007 380.239 72.8307 382.206C74.6076 379.108 75.1719 375.647 74.6723 372.371C81.4151 370.36 87.4743 366.017 91.5312 359.7C92.0081 359.723 92.4847 359.735 92.9607 359.735C94.0725 363.228 96.4444 366.331 99.8744 368.298C101.651 365.2 102.216 361.738 101.716 358.462C108.919 356.314 115.343 351.505 119.378 344.469C121.739 340.353 123.03 335.915 123.337 331.479C126.144 330.568 128.692 328.775 130.525 326.179C128.185 324.526 125.517 323.683 122.852 323.592C122.305 320.77 121.361 318.03 120.044 315.463C117.479 317.398 114.524 318.846 111.32 319.666Z" fill="#458244"/>
<path d="M60.2901 351.435H69.8215L77.5896 425.632H52.3994L60.2901 351.435Z" fill="#93642D"/>
<path d="M60.2213 351.435H69.8891L73.9824 391.37H56.1042L60.2213 351.435Z" fill="#714D22"/>
<path fill-rule="evenodd" clip-rule="evenodd" d="M68.8711 372.159C83.7775 361.427 85.5894 345.3 84.5466 338.261L77.8119 339.259C78.5846 344.474 77.2193 357.759 64.8931 366.634L68.8711 372.159Z" fill="#714D22"/>
<rect x="30.197" y="326.243" width="52.7462" height="52.7462" rx="26.3731" transform="rotate(-37.5969 30.197 326.243)" fill="#66A865"/>
<path d="M72.2662 316.038C67.823 310.268 68.8988 301.988 74.6691 297.545V297.545V297.545C79.1123 303.315 78.0365 311.595 72.2662 316.038V316.038V316.038Z" fill="#66A865"/>
<path d="M53.0197 324.954C47.273 328.574 39.6795 326.85 36.0592 321.104V321.104V321.104C41.8059 317.483 49.3994 319.207 53.0197 324.954V324.954V324.954Z" fill="#66A865"/>
<path d="M58.286 348.671C56.8313 355.306 50.2737 359.505 43.6393 358.05V358.05V358.05C45.0941 351.415 51.6516 347.216 58.286 348.671V348.671V348.671Z" fill="#66A865"/>
<path d="M99.6087 322.153C98.1539 328.788 91.5964 332.986 84.962 331.532V331.532V331.532C86.4167 324.897 92.9743 320.698 99.6087 322.153V322.153V322.153Z" fill="#66A865"/>
<rect x="32.0867" y="274.13" width="41.5134" height="41.5134" rx="20.7567" transform="rotate(8.46442 32.0867 274.13)" fill="#83C082"/>
<path d="M60.8463 292.4C61.69 286.731 66.9698 282.819 72.6392 283.662V283.662V283.662C71.7955 289.332 66.5156 293.244 60.8463 292.4V292.4V292.4Z" fill="#83C082"/>
<path d="M45.2811 286.362C40.091 285.083 36.921 279.838 38.2007 274.648V274.648V274.648C43.3908 275.927 46.5609 281.172 45.2811 286.362V286.362V286.362Z" fill="#83C082"/>
<path d="M34.716 302.298C30.1616 305.096 24.2007 303.673 21.402 299.119V299.119V299.119C25.9564 296.32 31.9172 297.743 34.716 302.298V302.298V302.298Z" fill="#83C082"/>
<path d="M72.3124 311.235C67.758 314.033 61.7971 312.61 58.9984 308.056V308.056V308.056C63.5528 305.257 69.5137 306.68 72.3124 311.235V311.235V311.235Z" fill="#83C082"/>
<path d="M177.326 247.196H198.117L215.061 409.036H160.115L177.326 247.196Z" fill="#93642D"/>
<path d="M177.177 247.196H197.831L206.811 334.303H168.197L177.177 247.196Z" fill="#714D22"/>
<path fill-rule="evenodd" clip-rule="evenodd" d="M95.6542 167.132C95.6542 145.042 113.562 127.135 135.652 127.135H143.023C165.113 127.135 183.021 145.042 183.021 167.132V177.624C183.021 177.759 183.02 177.893 183.019 178.028C200.879 182.035 214.224 197.987 214.224 217.056V227.548C214.224 249.638 196.316 267.545 174.226 267.545H166.855C155.399 267.545 145.069 262.73 137.777 255.013C130.485 262.73 120.155 267.545 108.7 267.545H101.328C79.2382 267.545 61.3306 249.638 61.3306 227.548V217.056C61.3306 196.892 76.2513 180.213 95.6542 177.458V167.132Z" fill="#66A865"/>
<path fill-rule="evenodd" clip-rule="evenodd" d="M192.633 305.563C178.51 322.549 153.292 324.871 136.306 310.748L133.323 308.269C116.337 294.146 114.016 268.927 128.138 251.941L132.533 246.656C133.029 246.059 133.538 245.481 134.06 244.921C123.62 230.476 123.824 210.274 135.745 195.936L140.139 190.65C154.262 173.664 179.481 171.343 196.467 185.465L199.449 187.945C208.435 195.416 213.317 205.992 213.831 216.811C224.563 215.342 235.852 218.211 244.838 225.682L247.82 228.162C264.806 242.284 267.128 267.503 253.005 284.489L248.61 289.775C236.018 304.921 214.602 308.407 198.068 298.972C197.732 299.412 197.385 299.848 197.028 300.277L192.633 305.563Z" fill="#66A865"/>
<path fill-rule="evenodd" clip-rule="evenodd" d="M183.402 152.569C183.402 130.479 201.31 112.571 223.4 112.571H231.742C253.832 112.571 271.74 130.479 271.74 152.569V163.943C289.772 167.821 303.289 183.855 303.289 203.047V214.544C303.289 236.634 285.381 254.542 263.291 254.542H254.949C243.557 254.542 233.278 249.779 225.993 242.137C218.708 249.779 208.429 254.542 197.038 254.542H188.696C166.605 254.542 148.698 236.634 148.698 214.544V203.047C148.698 182.751 163.814 165.986 183.402 163.396V152.569Z" fill="#66A865"/>
<path fill-rule="evenodd" clip-rule="evenodd" d="M167.316 90.4888C167.316 68.3986 185.224 50.491 207.314 50.491H215.656C237.746 50.491 255.654 68.3986 255.654 90.4888V101.863C273.687 105.74 287.203 121.775 287.203 140.967V152.464C287.203 174.554 269.296 192.461 247.205 192.461H238.863C227.472 192.461 217.192 187.699 209.908 180.057C202.623 187.699 192.343 192.461 180.952 192.461H172.61C150.52 192.461 132.612 174.554 132.612 152.464V140.967C132.612 120.671 147.728 103.906 167.316 101.316V90.4888Z" fill="#66A865"/>
<path fill-rule="evenodd" clip-rule="evenodd" d="M104.175 112.814C104.175 92.7982 120.401 76.5725 140.416 76.5725C160.432 76.5725 176.657 92.7982 176.657 112.814V115.402C176.657 116.763 176.582 118.106 176.436 119.427C191.52 123.811 202.544 137.734 202.544 154.232V156.821C202.544 176.837 186.319 193.062 166.303 193.062C155.479 193.062 145.763 188.317 139.122 180.792C132.481 188.317 122.765 193.062 111.941 193.062C91.9254 193.062 75.6997 176.836 75.6997 156.821V154.232C75.6997 136.827 87.9695 122.288 104.331 118.792C104.228 117.676 104.175 116.545 104.175 115.402V112.814Z" fill="#66A865"/>
<path fill-rule="evenodd" clip-rule="evenodd" d="M220.613 77.8858C234.359 92.4337 233.71 115.371 219.162 129.118C204.614 142.865 181.677 142.215 167.93 127.667L166.152 125.786C165.218 124.797 164.35 123.77 163.549 122.709C149.575 129.882 132 127.333 120.669 115.342L118.891 113.46C105.145 98.9124 105.794 75.9751 120.342 62.2283C128.21 54.7939 138.531 51.57 148.526 52.4781C148.184 42.4481 151.987 32.3253 159.855 24.8908C174.403 11.144 197.34 11.7935 211.087 26.3414L212.865 28.2229C224.82 40.8743 225.887 59.8703 216.394 73.6491C217.236 74.3888 218.05 75.1739 218.835 76.0043L220.613 77.8858Z" fill="#83C082"/>
<path fill-rule="evenodd" clip-rule="evenodd" d="M300.903 190.221C294.657 200.298 284.059 207.393 271.735 208.884C270.366 214.746 267.649 220.386 263.539 225.33L259.144 230.615C246.552 245.762 225.136 249.248 208.602 239.813C208.266 240.253 207.919 240.688 207.562 241.118L203.167 246.404C189.044 263.39 163.826 265.712 146.84 251.589L143.857 249.109C134.342 241.199 129.429 229.806 129.43 218.329C124.235 220.796 118.424 222.177 112.29 222.177H104.919C87.856 222.177 73.2887 211.493 67.5418 196.45C63.6082 202.642 61.3301 209.989 61.3301 217.868V228.359C61.3301 250.449 79.2377 268.357 101.328 268.357H108.699C112.867 268.357 116.885 267.72 120.663 266.537C116.052 281.508 120.526 298.445 133.323 309.084L136.305 311.564C153.291 325.687 178.51 323.365 192.632 306.379L197.027 301.093C197.384 300.663 197.731 300.228 198.068 299.788C214.602 309.223 236.017 305.737 248.61 290.59L253.005 285.305C260.23 276.614 263.151 265.768 262.006 255.356H263.291C285.381 255.356 303.288 237.448 303.288 215.358V203.861C303.288 199.071 302.446 194.478 300.903 190.221Z" fill="#458244"/>
</svg>
